<svg width="272" height="20" viewBox="0 0 272 20" fill="none" xmlns="http://www.w3.org/2000/svg">
<g clip-path="url(#clip0_251_5843)">
<path d="M7.99988 3.4375C6.5879 3.4375 5.37115 4.41357 5.04263 5.76995C4.59 5.81948 4.13741 5.8758 3.68486 5.94815C2.78361 6.09224 2.01771 6.80106 1.80065 7.78285V7.78385C1.31629 9.97912 1.31629 12.1867 1.80065 14.382C2.01762 15.364 2.78266 16.0736 3.68395 16.2177C6.55979 16.6774 9.43905 16.6774 12.3149 16.2177C13.2161 16.0736 13.982 15.3648 14.1991 14.383V14.382C14.6835 12.1867 14.6835 9.97912 14.1991 7.78385C14.0916 7.29716 13.8492 6.87757 13.5225 6.56038C13.4766 6.49839 13.418 6.44895 13.3513 6.41603C13.0502 6.17526 12.6967 6.00904 12.3158 5.94815C11.863 5.87577 11.4101 5.81949 10.9571 5.76995C10.6286 4.41357 9.41186 3.4375 7.99988 3.4375ZM7.99988 4.45689C8.87738 4.45689 9.60013 4.97034 9.92346 5.67538C9.28222 5.6298 8.64109 5.6037 7.99988 5.6037C7.35867 5.6037 6.71734 5.6298 6.07629 5.67538C6.39963 4.97034 7.12237 4.45689 7.99988 4.45689ZM7.99988 6.62309C8.82342 6.62309 9.64716 6.66657 10.471 6.74455C10.5059 6.75258 10.5415 6.75625 10.5772 6.7555H10.5781C11.1118 6.80821 11.6456 6.87225 12.1794 6.95758C12.3378 6.98291 12.4862 7.04002 12.6225 7.11786C12.2414 8.55781 11.1392 9.73767 9.68816 10.2676C9.45588 9.62912 8.84152 9.11682 7.99988 9.11682C7.15656 9.11682 6.54187 9.63131 6.31068 10.2716C4.85926 9.7415 3.75971 8.55681 3.37907 7.11686C3.51512 7.03941 3.66344 6.98282 3.82128 6.95758C4.35678 6.87198 4.8919 6.80827 5.42717 6.7555C5.46161 6.75595 5.496 6.75228 5.52971 6.74455H5.53154C6.35428 6.66672 7.17713 6.62309 7.99988 6.62309ZM13.2964 8.06955C13.7372 10.0988 13.735 12.1146 13.2872 14.1441C13.164 14.7016 12.7182 15.122 12.1785 15.2083C9.39164 15.6538 6.6072 15.6538 3.82037 15.2083C3.28067 15.122 2.83589 14.7024 2.71254 14.1441C2.26483 12.1149 2.26279 10.0995 2.70339 8.07055C3.34072 9.6357 4.66535 10.8389 6.29603 11.3388C6.51375 12.0001 7.13666 12.5393 7.99988 12.5393C8.86478 12.5393 9.48811 11.9979 9.70464 11.3348C11.3337 10.8343 12.6595 9.63338 13.2964 8.06955ZM7.99988 10.1362C8.63068 10.1362 8.81591 10.4414 8.84402 10.7455C8.81119 10.8392 8.8045 10.9413 8.82479 11.0391C8.75554 11.2949 8.54119 11.52 7.99988 11.52C7.54448 11.52 7.31918 11.3603 7.21708 11.1576C7.2517 11.0755 7.26561 10.9848 7.25741 10.8949C7.24921 10.805 7.21917 10.719 7.17038 10.6459C7.23083 10.3784 7.43842 10.1362 7.99988 10.1362Z" fill="#555555"/>
</g>
<path d="M27.78 8.022C28.704 8.022 29.4833 8.29733 30.118 8.848C30.762 9.38933 31.084 10.1407 31.084 11.102C31.084 12.054 30.7573 12.8053 30.104 13.356C29.4507 13.9067 28.6573 14.182 27.724 14.182C26.9773 14.182 26.31 14.0047 25.722 13.65C25.134 13.286 24.7233 12.7633 24.49 12.082L25.596 11.452C25.7267 11.928 25.9787 12.292 26.352 12.544C26.7253 12.7867 27.1827 12.908 27.724 12.908C28.34 12.908 28.8393 12.7493 29.222 12.432C29.6047 12.1147 29.796 11.6713 29.796 11.102C29.796 10.5327 29.6047 10.0893 29.222 9.772C28.8393 9.44533 28.3493 9.282 27.752 9.282H24.98L25.344 4.2H30.706V5.418H26.52L26.352 8.022H27.78ZM43.4456 4.2L39.9736 10.038V14H38.6716V10.024L35.2136 4.2H36.6696L39.3296 8.792L41.9896 4.2H43.4456ZM43.9343 11.06C44.0556 11.6853 44.3403 12.1707 44.7883 12.516C45.2456 12.8613 45.8056 13.034 46.4683 13.034C47.3923 13.034 48.0643 12.6933 48.4843 12.012L49.5203 12.6C48.8389 13.6547 47.8123 14.182 46.4403 14.182C45.3296 14.182 44.4243 13.8367 43.7243 13.146C43.0336 12.446 42.6883 11.564 42.6883 10.5C42.6883 9.44533 43.0289 8.568 43.7103 7.868C44.3916 7.168 45.2736 6.818 46.3563 6.818C47.3829 6.818 48.2183 7.182 48.8623 7.91C49.5156 8.62867 49.8423 9.49667 49.8423 10.514C49.8423 10.6913 49.8283 10.8733 49.8003 11.06H43.9343ZM46.3563 7.966C45.7029 7.966 45.1616 8.15267 44.7323 8.526C44.3029 8.89 44.0369 9.38 43.9343 9.996H48.6103C48.5076 9.33333 48.2463 8.82933 47.8263 8.484C47.4063 8.13867 46.9163 7.966 46.3563 7.966ZM57.0247 7H58.2427V14H57.0247V12.796C56.418 13.72 55.536 14.182 54.3787 14.182C53.3987 14.182 52.5634 13.8273 51.8727 13.118C51.182 12.3993 50.8367 11.5267 50.8367 10.5C50.8367 9.47333 51.182 8.60533 51.8727 7.896C52.5634 7.17733 53.3987 6.818 54.3787 6.818C55.536 6.818 56.418 7.28 57.0247 8.204V7ZM54.5327 13.006C55.242 13.006 55.8347 12.768 56.3107 12.292C56.7867 11.8067 57.0247 11.2093 57.0247 10.5C57.0247 9.79067 56.7867 9.198 56.3107 8.722C55.8347 8.23667 55.242 7.994 54.5327 7.994C53.8327 7.994 53.2447 8.23667 52.7687 8.722C52.2927 9.198 52.0547 9.79067 52.0547 10.5C52.0547 11.2093 52.2927 11.8067 52.7687 12.292C53.2447 12.768 53.8327 13.006 54.5327 13.006ZM61.3061 8.176C61.7074 7.308 62.4354 6.874 63.4901 6.874V8.148C62.8927 8.12 62.3794 8.27867 61.9501 8.624C61.5207 8.96933 61.3061 9.52467 61.3061 10.29V14H60.0881V7H61.3061V8.176ZM65.472 8.89C65.472 9.16067 65.6074 9.38 65.878 9.548C66.1487 9.70667 66.4754 9.83733 66.858 9.94C67.2407 10.0333 67.6234 10.1453 68.006 10.276C68.3887 10.3973 68.7154 10.612 68.986 10.92C69.2567 11.2187 69.392 11.606 69.392 12.082C69.392 12.7167 69.1447 13.2253 68.65 13.608C68.1647 13.9907 67.5394 14.182 66.774 14.182C66.0927 14.182 65.5094 14.0327 65.024 13.734C64.5387 13.4353 64.1934 13.0387 63.988 12.544L65.038 11.942C65.15 12.278 65.36 12.544 65.668 12.74C65.976 12.936 66.3447 13.034 66.774 13.034C67.1754 13.034 67.5067 12.9593 67.768 12.81C68.0294 12.6513 68.16 12.4087 68.16 12.082C68.16 11.8113 68.0247 11.5967 67.754 11.438C67.4834 11.27 67.1567 11.1393 66.774 11.046C66.3914 10.9433 66.0087 10.8267 65.626 10.696C65.2434 10.5653 64.9167 10.3507 64.646 10.052C64.3754 9.75333 64.24 9.37067 64.24 8.904C64.24 8.29733 64.4734 7.798 64.94 7.406C65.416 7.014 66.0087 6.818 66.718 6.818C67.2874 6.818 67.7914 6.94867 68.23 7.21C68.678 7.462 69.014 7.81667 69.238 8.274L68.216 8.848C67.964 8.25067 67.4647 7.952 66.718 7.952C66.3727 7.952 66.0787 8.036 65.836 8.204C65.5934 8.36267 65.472 8.59133 65.472 8.89ZM75.7622 12.768H80.3122V14H74.4602V4.2H80.2422V5.432H75.7622V8.442H79.8922V9.66H75.7622V12.768ZM87.834 14H86.406L84.446 11.354L82.472 14H81.044L83.732 10.402L81.198 7H82.64L84.446 9.436L86.252 7H87.68L85.16 10.388L87.834 14ZM92.8271 6.818C93.8071 6.818 94.6424 7.17733 95.3331 7.896C96.0237 8.60533 96.3691 9.47333 96.3691 10.5C96.3691 11.5267 96.0237 12.3993 95.3331 13.118C94.6424 13.8273 93.8071 14.182 92.8271 14.182C91.6697 14.182 90.7877 13.72 90.1811 12.796V16.8H88.9631V7H90.1811V8.204C90.7877 7.28 91.6697 6.818 92.8271 6.818ZM92.6731 13.006C93.3731 13.006 93.9611 12.768 94.4371 12.292C94.9131 11.8067 95.1511 11.2093 95.1511 10.5C95.1511 9.79067 94.9131 9.198 94.4371 8.722C93.9611 8.23667 93.3731 7.994 92.6731 7.994C91.9637 7.994 91.3711 8.23667 90.8951 8.722C90.4191 9.198 90.1811 9.79067 90.1811 10.5C90.1811 11.2093 90.4191 11.8067 90.8951 12.292C91.3711 12.768 91.9637 13.006 92.6731 13.006ZM98.6764 11.06C98.7978 11.6853 99.0824 12.1707 99.5304 12.516C99.9878 12.8613 100.548 13.034 101.21 13.034C102.134 13.034 102.806 12.6933 103.226 12.012L104.262 12.6C103.581 13.6547 102.554 14.182 101.182 14.182C100.072 14.182 99.1664 13.8367 98.4664 13.146C97.7758 12.446 97.4304 11.564 97.4304 10.5C97.4304 9.44533 97.7711 8.568 98.4524 7.868C99.1338 7.168 100.016 6.818 101.098 6.818C102.125 6.818 102.96 7.182 103.604 7.91C104.258 8.62867 104.584 9.49667 104.584 10.514C104.584 10.6913 104.57 10.8733 104.542 11.06H98.6764ZM101.098 7.966C100.445 7.966 99.9038 8.15267 99.4744 8.526C99.0451 8.89 98.7791 9.38 98.6764 9.996H103.352C103.25 9.33333 102.988 8.82933 102.568 8.484C102.148 8.13867 101.658 7.966 101.098 7.966ZM107.203 8.176C107.604 7.308 108.332 6.874 109.387 6.874V8.148C108.789 8.12 108.276 8.27867 107.847 8.624C107.417 8.96933 107.203 9.52467 107.203 10.29V14H105.985V7H107.203V8.176ZM111.194 5.726C110.961 5.726 110.765 5.64667 110.606 5.488C110.448 5.32933 110.368 5.138 110.368 4.914C110.368 4.69 110.448 4.49867 110.606 4.34C110.765 4.172 110.961 4.088 111.194 4.088C111.418 4.088 111.61 4.172 111.768 4.34C111.927 4.49867 112.006 4.69 112.006 4.914C112.006 5.138 111.927 5.32933 111.768 5.488C111.61 5.64667 111.418 5.726 111.194 5.726ZM110.578 14V7H111.796V14H110.578ZM114.508 11.06C114.63 11.6853 114.914 12.1707 115.362 12.516C115.82 12.8613 116.38 13.034 117.042 13.034C117.966 13.034 118.638 12.6933 119.058 12.012L120.094 12.6C119.413 13.6547 118.386 14.182 117.014 14.182C115.904 14.182 114.998 13.8367 114.298 13.146C113.608 12.446 113.262 11.564 113.262 10.5C113.262 9.44533 113.603 8.568 114.284 7.868C114.966 7.168 115.848 6.818 116.93 6.818C117.957 6.818 118.792 7.182 119.436 7.91C120.09 8.62867 120.416 9.49667 120.416 10.514C120.416 10.6913 120.402 10.8733 120.374 11.06H114.508ZM116.93 7.966C116.277 7.966 115.736 8.15267 115.306 8.526C114.877 8.89 114.611 9.38 114.508 9.996H119.184C119.082 9.33333 118.82 8.82933 118.4 8.484C117.98 8.13867 117.49 7.966 116.93 7.966ZM125.303 6.818C126.124 6.818 126.782 7.07933 127.277 7.602C127.771 8.11533 128.019 8.81533 128.019 9.702V14H126.801V9.772C126.801 9.20267 126.647 8.764 126.339 8.456C126.031 8.13867 125.606 7.98 125.065 7.98C124.458 7.98 123.968 8.17133 123.595 8.554C123.221 8.92733 123.035 9.506 123.035 10.29V14H121.817V7H123.035V8.008C123.529 7.21467 124.285 6.818 125.303 6.818ZM133.009 14.182C131.954 14.182 131.077 13.832 130.377 13.132C129.677 12.4227 129.327 11.5453 129.327 10.5C129.327 9.45467 129.677 8.582 130.377 7.882C131.077 7.17267 131.954 6.818 133.009 6.818C133.7 6.818 134.32 6.986 134.871 7.322C135.422 7.64867 135.832 8.092 136.103 8.652L135.081 9.24C134.904 8.86667 134.628 8.568 134.255 8.344C133.891 8.12 133.476 8.008 133.009 8.008C132.309 8.008 131.721 8.246 131.245 8.722C130.778 9.198 130.545 9.79067 130.545 10.5C130.545 11.2 130.778 11.788 131.245 12.264C131.721 12.74 132.309 12.978 133.009 12.978C133.476 12.978 133.896 12.8707 134.269 12.656C134.642 12.432 134.927 12.1333 135.123 11.76L136.159 12.362C135.86 12.9127 135.431 13.356 134.871 13.692C134.311 14.0187 133.69 14.182 133.009 14.182ZM138.12 11.06C138.241 11.6853 138.526 12.1707 138.974 12.516C139.431 12.8613 139.991 13.034 140.654 13.034C141.578 13.034 142.25 12.6933 142.67 12.012L143.706 12.6C143.024 13.6547 141.998 14.182 140.626 14.182C139.515 14.182 138.61 13.8367 137.91 13.146C137.219 12.446 136.874 11.564 136.874 10.5C136.874 9.44533 137.214 8.568 137.896 7.868C138.577 7.168 139.459 6.818 140.542 6.818C141.568 6.818 142.404 7.182 143.048 7.91C143.701 8.62867 144.028 9.49667 144.028 10.514C144.028 10.6913 144.014 10.8733 143.986 11.06H138.12ZM140.542 7.966C139.888 7.966 139.347 8.15267 138.918 8.526C138.488 8.89 138.222 9.38 138.12 9.996H142.796C142.693 9.33333 142.432 8.82933 142.012 8.484C141.592 8.13867 141.102 7.966 140.542 7.966Z" fill="#555555"/>
<defs>
<clipPath id="clip0_251_5843">
<rect width="14" height="14" fill="white" transform="translate(1 3)"/>
</clipPath>
</defs>
</svg>
