<svg width="264" height="20" viewBox="0 0 264 20" fill="none" xmlns="http://www.w3.org/2000/svg">
<g clip-path="url(#clip0_251_5881)">
<path d="M7.99988 3.4375C6.5879 3.4375 5.37115 4.41357 5.04263 5.76995C4.59 5.81948 4.13741 5.8758 3.68486 5.94815C2.78361 6.09224 2.01771 6.80106 1.80065 7.78285V7.78385C1.31629 9.97912 1.31629 12.1867 1.80065 14.382C2.01762 15.364 2.78266 16.0736 3.68395 16.2177C6.55979 16.6774 9.43905 16.6774 12.3149 16.2177C13.2161 16.0736 13.982 15.3648 14.1991 14.383V14.382C14.6835 12.1867 14.6835 9.97912 14.1991 7.78385C14.0916 7.29716 13.8492 6.87757 13.5225 6.56038C13.4766 6.49839 13.418 6.44895 13.3513 6.41603C13.0502 6.17526 12.6967 6.00904 12.3158 5.94815C11.863 5.87577 11.4101 5.81949 10.9571 5.76995C10.6286 4.41357 9.41186 3.4375 7.99988 3.4375ZM7.99988 4.45689C8.87738 4.45689 9.60013 4.97034 9.92346 5.67538C9.28222 5.6298 8.64109 5.6037 7.99988 5.6037C7.35867 5.6037 6.71734 5.6298 6.07629 5.67538C6.39963 4.97034 7.12237 4.45689 7.99988 4.45689ZM7.99988 6.62309C8.82342 6.62309 9.64716 6.66657 10.471 6.74455C10.5059 6.75258 10.5415 6.75625 10.5772 6.7555H10.5781C11.1118 6.80821 11.6456 6.87225 12.1794 6.95758C12.3378 6.98291 12.4862 7.04002 12.6225 7.11786C12.2414 8.55781 11.1392 9.73767 9.68816 10.2676C9.45588 9.62912 8.84152 9.11682 7.99988 9.11682C7.15656 9.11682 6.54187 9.63131 6.31068 10.2716C4.85926 9.7415 3.75971 8.55681 3.37907 7.11686C3.51512 7.03941 3.66344 6.98282 3.82128 6.95758C4.35678 6.87198 4.8919 6.80827 5.42717 6.7555C5.46161 6.75595 5.496 6.75228 5.52971 6.74455H5.53154C6.35428 6.66672 7.17713 6.62309 7.99988 6.62309ZM13.2964 8.06955C13.7372 10.0988 13.735 12.1146 13.2872 14.1441C13.164 14.7016 12.7182 15.122 12.1785 15.2083C9.39164 15.6538 6.6072 15.6538 3.82037 15.2083C3.28067 15.122 2.83589 14.7024 2.71254 14.1441C2.26483 12.1149 2.26279 10.0995 2.70339 8.07055C3.34072 9.6357 4.66535 10.8389 6.29603 11.3388C6.51375 12.0001 7.13666 12.5393 7.99988 12.5393C8.86478 12.5393 9.48811 11.9979 9.70464 11.3348C11.3337 10.8343 12.6595 9.63338 13.2964 8.06955ZM7.99988 10.1362C8.63068 10.1362 8.81591 10.4414 8.84402 10.7455C8.81119 10.8392 8.8045 10.9413 8.82479 11.0391C8.75554 11.2949 8.54119 11.52 7.99988 11.52C7.54448 11.52 7.31918 11.3603 7.21708 11.1576C7.2517 11.0755 7.26561 10.9848 7.25741 10.8949C7.24921 10.805 7.21917 10.719 7.17038 10.6459C7.23083 10.3784 7.43842 10.1362 7.99988 10.1362Z" fill="#555555"/>
</g>
<path d="M24.504 14V12.936L27.962 9.408C28.886 8.484 29.348 7.69067 29.348 7.028C29.348 6.47733 29.18 6.048 28.844 5.74C28.508 5.432 28.0973 5.278 27.612 5.278C26.688 5.278 26.016 5.71667 25.596 6.594L24.504 5.95C24.812 5.31533 25.2367 4.83467 25.778 4.508C26.3287 4.18133 26.9353 4.018 27.598 4.018C28.4193 4.018 29.1333 4.28867 29.74 4.83C30.3467 5.37133 30.65 6.09933 30.65 7.014C30.65 8.00333 30.0667 9.08133 28.9 10.248L26.394 12.74H30.832V14H24.504ZM43.2268 4.2L39.7548 10.038V14H38.4528V10.024L34.9948 4.2H36.4508L39.1108 8.792L41.7708 4.2H43.2268ZM43.7155 11.06C43.8368 11.6853 44.1215 12.1707 44.5695 12.516C45.0268 12.8613 45.5868 13.034 46.2495 13.034C47.1735 13.034 47.8455 12.6933 48.2655 12.012L49.3015 12.6C48.6202 13.6547 47.5935 14.182 46.2215 14.182C45.1108 14.182 44.2055 13.8367 43.5055 13.146C42.8148 12.446 42.4695 11.564 42.4695 10.5C42.4695 9.44533 42.8102 8.568 43.4915 7.868C44.1728 7.168 45.0548 6.818 46.1375 6.818C47.1642 6.818 47.9995 7.182 48.6435 7.91C49.2968 8.62867 49.6235 9.49667 49.6235 10.514C49.6235 10.6913 49.6095 10.8733 49.5815 11.06H43.7155ZM46.1375 7.966C45.4842 7.966 44.9428 8.15267 44.5135 8.526C44.0842 8.89 43.8182 9.38 43.7155 9.996H48.3915C48.2888 9.33333 48.0275 8.82933 47.6075 8.484C47.1875 8.13867 46.6975 7.966 46.1375 7.966ZM56.8059 7H58.0239V14H56.8059V12.796C56.1993 13.72 55.3173 14.182 54.1599 14.182C53.1799 14.182 52.3446 13.8273 51.6539 13.118C50.9633 12.3993 50.6179 11.5267 50.6179 10.5C50.6179 9.47333 50.9633 8.60533 51.6539 7.896C52.3446 7.17733 53.1799 6.818 54.1599 6.818C55.3173 6.818 56.1993 7.28 56.8059 8.204V7ZM54.3139 13.006C55.0233 13.006 55.6159 12.768 56.0919 12.292C56.5679 11.8067 56.8059 11.2093 56.8059 10.5C56.8059 9.79067 56.5679 9.198 56.0919 8.722C55.6159 8.23667 55.0233 7.994 54.3139 7.994C53.6139 7.994 53.0259 8.23667 52.5499 8.722C52.0739 9.198 51.8359 9.79067 51.8359 10.5C51.8359 11.2093 52.0739 11.8067 52.5499 12.292C53.0259 12.768 53.6139 13.006 54.3139 13.006ZM61.0873 8.176C61.4886 7.308 62.2166 6.874 63.2713 6.874V8.148C62.674 8.12 62.1606 8.27867 61.7313 8.624C61.302 8.96933 61.0873 9.52467 61.0873 10.29V14H59.8693V7H61.0873V8.176ZM65.2533 8.89C65.2533 9.16067 65.3886 9.38 65.6593 9.548C65.93 9.70667 66.2566 9.83733 66.6393 9.94C67.022 10.0333 67.4046 10.1453 67.7873 10.276C68.17 10.3973 68.4966 10.612 68.7673 10.92C69.038 11.2187 69.1733 11.606 69.1733 12.082C69.1733 12.7167 68.926 13.2253 68.4313 13.608C67.946 13.9907 67.3206 14.182 66.5553 14.182C65.874 14.182 65.2906 14.0327 64.8053 13.734C64.32 13.4353 63.9746 13.0387 63.7693 12.544L64.8193 11.942C64.9313 12.278 65.1413 12.544 65.4493 12.74C65.7573 12.936 66.126 13.034 66.5553 13.034C66.9566 13.034 67.288 12.9593 67.5493 12.81C67.8106 12.6513 67.9413 12.4087 67.9413 12.082C67.9413 11.8113 67.806 11.5967 67.5353 11.438C67.2646 11.27 66.938 11.1393 66.5553 11.046C66.1726 10.9433 65.79 10.8267 65.4073 10.696C65.0246 10.5653 64.698 10.3507 64.4273 10.052C64.1566 9.75333 64.0213 9.37067 64.0213 8.904C64.0213 8.29733 64.2546 7.798 64.7213 7.406C65.1973 7.014 65.79 6.818 66.4993 6.818C67.0686 6.818 67.5726 6.94867 68.0113 7.21C68.4593 7.462 68.7953 7.81667 69.0193 8.274L67.9973 8.848C67.7453 8.25067 67.246 7.952 66.4993 7.952C66.154 7.952 65.86 8.036 65.6173 8.204C65.3746 8.36267 65.2533 8.59133 65.2533 8.89ZM75.5434 12.768H80.0934V14H74.2414V4.2H80.0234V5.432H75.5434V8.442H79.6734V9.66H75.5434V12.768ZM87.6152 14H86.1872L84.2272 11.354L82.2532 14H80.8252L83.5132 10.402L80.9792 7H82.4212L84.2272 9.436L86.0332 7H87.4612L84.9412 10.388L87.6152 14ZM92.6083 6.818C93.5883 6.818 94.4236 7.17733 95.1143 7.896C95.805 8.60533 96.1503 9.47333 96.1503 10.5C96.1503 11.5267 95.805 12.3993 95.1143 13.118C94.4236 13.8273 93.5883 14.182 92.6083 14.182C91.451 14.182 90.569 13.72 89.9623 12.796V16.8H88.7443V7H89.9623V8.204C90.569 7.28 91.451 6.818 92.6083 6.818ZM92.4543 13.006C93.1543 13.006 93.7423 12.768 94.2183 12.292C94.6943 11.8067 94.9323 11.2093 94.9323 10.5C94.9323 9.79067 94.6943 9.198 94.2183 8.722C93.7423 8.23667 93.1543 7.994 92.4543 7.994C91.745 7.994 91.1523 8.23667 90.6763 8.722C90.2003 9.198 89.9623 9.79067 89.9623 10.5C89.9623 11.2093 90.2003 11.8067 90.6763 12.292C91.1523 12.768 91.745 13.006 92.4543 13.006ZM98.4577 11.06C98.579 11.6853 98.8637 12.1707 99.3117 12.516C99.769 12.8613 100.329 13.034 100.992 13.034C101.916 13.034 102.588 12.6933 103.008 12.012L104.044 12.6C103.362 13.6547 102.336 14.182 100.964 14.182C99.853 14.182 98.9477 13.8367 98.2477 13.146C97.557 12.446 97.2117 11.564 97.2117 10.5C97.2117 9.44533 97.5524 8.568 98.2337 7.868C98.915 7.168 99.797 6.818 100.88 6.818C101.906 6.818 102.742 7.182 103.386 7.91C104.039 8.62867 104.366 9.49667 104.366 10.514C104.366 10.6913 104.352 10.8733 104.324 11.06H98.4577ZM100.88 7.966C100.226 7.966 99.685 8.15267 99.2557 8.526C98.8264 8.89 98.5604 9.38 98.4577 9.996H103.134C103.031 9.33333 102.77 8.82933 102.35 8.484C101.93 8.13867 101.44 7.966 100.88 7.966ZM106.984 8.176C107.385 7.308 108.113 6.874 109.168 6.874V8.148C108.57 8.12 108.057 8.27867 107.628 8.624C107.198 8.96933 106.984 9.52467 106.984 10.29V14H105.766V7H106.984V8.176ZM110.976 5.726C110.742 5.726 110.546 5.64667 110.388 5.488C110.229 5.32933 110.15 5.138 110.15 4.914C110.15 4.69 110.229 4.49867 110.388 4.34C110.546 4.172 110.742 4.088 110.976 4.088C111.2 4.088 111.391 4.172 111.55 4.34C111.708 4.49867 111.788 4.69 111.788 4.914C111.788 5.138 111.708 5.32933 111.55 5.488C111.391 5.64667 111.2 5.726 110.976 5.726ZM110.36 14V7H111.578V14H110.36ZM114.29 11.06C114.411 11.6853 114.696 12.1707 115.144 12.516C115.601 12.8613 116.161 13.034 116.824 13.034C117.748 13.034 118.42 12.6933 118.84 12.012L119.876 12.6C119.194 13.6547 118.168 14.182 116.796 14.182C115.685 14.182 114.78 13.8367 114.08 13.146C113.389 12.446 113.044 11.564 113.044 10.5C113.044 9.44533 113.384 8.568 114.066 7.868C114.747 7.168 115.629 6.818 116.712 6.818C117.738 6.818 118.574 7.182 119.218 7.91C119.871 8.62867 120.198 9.49667 120.198 10.514C120.198 10.6913 120.184 10.8733 120.156 11.06H114.29ZM116.712 7.966C116.058 7.966 115.517 8.15267 115.088 8.526C114.658 8.89 114.392 9.38 114.29 9.996H118.966C118.863 9.33333 118.602 8.82933 118.182 8.484C117.762 8.13867 117.272 7.966 116.712 7.966ZM125.084 6.818C125.905 6.818 126.563 7.07933 127.058 7.602C127.552 8.11533 127.8 8.81533 127.8 9.702V14H126.582V9.772C126.582 9.20267 126.428 8.764 126.12 8.456C125.812 8.13867 125.387 7.98 124.846 7.98C124.239 7.98 123.749 8.17133 123.376 8.554C123.002 8.92733 122.816 9.506 122.816 10.29V14H121.598V7H122.816V8.008C123.31 7.21467 124.066 6.818 125.084 6.818ZM132.79 14.182C131.736 14.182 130.858 13.832 130.158 13.132C129.458 12.4227 129.108 11.5453 129.108 10.5C129.108 9.45467 129.458 8.582 130.158 7.882C130.858 7.17267 131.736 6.818 132.79 6.818C133.481 6.818 134.102 6.986 134.652 7.322C135.203 7.64867 135.614 8.092 135.884 8.652L134.862 9.24C134.685 8.86667 134.41 8.568 134.036 8.344C133.672 8.12 133.257 8.008 132.79 8.008C132.09 8.008 131.502 8.246 131.026 8.722C130.56 9.198 130.326 9.79067 130.326 10.5C130.326 11.2 130.56 11.788 131.026 12.264C131.502 12.74 132.09 12.978 132.79 12.978C133.257 12.978 133.677 12.8707 134.05 12.656C134.424 12.432 134.708 12.1333 134.904 11.76L135.94 12.362C135.642 12.9127 135.212 13.356 134.652 13.692C134.092 14.0187 133.472 14.182 132.79 14.182ZM137.901 11.06C138.022 11.6853 138.307 12.1707 138.755 12.516C139.212 12.8613 139.772 13.034 140.435 13.034C141.359 13.034 142.031 12.6933 142.451 12.012L143.487 12.6C142.806 13.6547 141.779 14.182 140.407 14.182C139.296 14.182 138.391 13.8367 137.691 13.146C137 12.446 136.655 11.564 136.655 10.5C136.655 9.44533 136.996 8.568 137.677 7.868C138.358 7.168 139.24 6.818 140.323 6.818C141.35 6.818 142.185 7.182 142.829 7.91C143.482 8.62867 143.809 9.49667 143.809 10.514C143.809 10.6913 143.795 10.8733 143.767 11.06H137.901ZM140.323 7.966C139.67 7.966 139.128 8.15267 138.699 8.526C138.27 8.89 138.004 9.38 137.901 9.996H142.577C142.474 9.33333 142.213 8.82933 141.793 8.484C141.373 8.13867 140.883 7.966 140.323 7.966Z" fill="#555555"/>
<defs>
<clipPath id="clip0_251_5881">
<rect width="14" height="14" fill="white" transform="translate(1 3)"/>
</clipPath>
</defs>
</svg>
