<svg width="264" height="20" viewBox="0 0 264 20" fill="none" xmlns="http://www.w3.org/2000/svg">
<g clip-path="url(#clip0_251_5922)">
<path d="M7.99988 3.4375C6.5879 3.4375 5.37115 4.41357 5.04263 5.76995C4.59 5.81948 4.13741 5.8758 3.68486 5.94815C2.78361 6.09224 2.01771 6.80106 1.80065 7.78285V7.78385C1.31629 9.97912 1.31629 12.1867 1.80065 14.382C2.01762 15.364 2.78266 16.0736 3.68395 16.2177C6.55979 16.6774 9.43905 16.6774 12.3149 16.2177C13.2161 16.0736 13.982 15.3648 14.1991 14.383V14.382C14.6835 12.1867 14.6835 9.97912 14.1991 7.78385C14.0916 7.29716 13.8492 6.87757 13.5225 6.56038C13.4766 6.49839 13.418 6.44895 13.3513 6.41603C13.0502 6.17526 12.6967 6.00904 12.3158 5.94815C11.863 5.87577 11.4101 5.81949 10.9571 5.76995C10.6286 4.41357 9.41186 3.4375 7.99988 3.4375ZM7.99988 4.45689C8.87738 4.45689 9.60013 4.97034 9.92346 5.67538C9.28222 5.6298 8.64109 5.6037 7.99988 5.6037C7.35867 5.6037 6.71734 5.6298 6.07629 5.67538C6.39963 4.97034 7.12237 4.45689 7.99988 4.45689ZM7.99988 6.62309C8.82342 6.62309 9.64716 6.66657 10.471 6.74455C10.5059 6.75258 10.5415 6.75625 10.5772 6.7555H10.5781C11.1118 6.80821 11.6456 6.87225 12.1794 6.95758C12.3378 6.98291 12.4862 7.04002 12.6225 7.11786C12.2414 8.55781 11.1392 9.73767 9.68816 10.2676C9.45588 9.62912 8.84152 9.11682 7.99988 9.11682C7.15656 9.11682 6.54187 9.63131 6.31068 10.2716C4.85926 9.7415 3.75971 8.55681 3.37907 7.11686C3.51512 7.03941 3.66344 6.98282 3.82128 6.95758C4.35678 6.87198 4.8919 6.80827 5.42717 6.7555C5.46161 6.75595 5.496 6.75228 5.52971 6.74455H5.53154C6.35428 6.66672 7.17713 6.62309 7.99988 6.62309ZM13.2964 8.06955C13.7372 10.0988 13.735 12.1146 13.2872 14.1441C13.164 14.7016 12.7182 15.122 12.1785 15.2083C9.39164 15.6538 6.6072 15.6538 3.82037 15.2083C3.28067 15.122 2.83589 14.7024 2.71254 14.1441C2.26483 12.1149 2.26279 10.0995 2.70339 8.07055C3.34072 9.6357 4.66535 10.8389 6.29603 11.3388C6.51375 12.0001 7.13666 12.5393 7.99988 12.5393C8.86478 12.5393 9.48811 11.9979 9.70464 11.3348C11.3337 10.8343 12.6595 9.63338 13.2964 8.06955ZM7.99988 10.1362C8.63068 10.1362 8.81591 10.4414 8.84402 10.7455C8.81119 10.8392 8.8045 10.9413 8.82479 11.0391C8.75554 11.2949 8.54119 11.52 7.99988 11.52C7.54448 11.52 7.31918 11.3603 7.21708 11.1576C7.2517 11.0755 7.26561 10.9848 7.25741 10.8949C7.24921 10.805 7.21917 10.719 7.17038 10.6459C7.23083 10.3784 7.43842 10.1362 7.99988 10.1362Z" fill="#555555"/>
</g>
<path d="M27.766 7.588C28.746 7.588 29.5533 7.896 30.188 8.512C30.8227 9.11867 31.14 9.90733 31.14 10.878C31.14 11.8487 30.8227 12.642 30.188 13.258C29.5533 13.874 28.746 14.182 27.766 14.182C26.7767 14.182 25.9647 13.874 25.33 13.258C24.7047 12.642 24.392 11.8487 24.392 10.878C24.392 10.122 24.588 9.46867 24.98 8.918L28.13 4.2H29.614L27.304 7.616C27.5093 7.59733 27.6633 7.588 27.766 7.588ZM26.254 12.376C26.646 12.7493 27.15 12.936 27.766 12.936C28.382 12.936 28.8813 12.7493 29.264 12.376C29.656 11.9933 29.852 11.494 29.852 10.878C29.852 10.262 29.656 9.76733 29.264 9.394C28.8813 9.02067 28.382 8.834 27.766 8.834C27.1407 8.834 26.6367 9.02067 26.254 9.394C25.8713 9.76733 25.68 10.262 25.68 10.878C25.68 11.494 25.8713 11.9933 26.254 12.376ZM43.3772 4.2L39.9052 10.038V14H38.6032V10.024L35.1452 4.2H36.6012L39.2612 8.792L41.9212 4.2H43.3772ZM43.8659 11.06C43.9872 11.6853 44.2719 12.1707 44.7199 12.516C45.1772 12.8613 45.7372 13.034 46.3999 13.034C47.3239 13.034 47.9959 12.6933 48.4159 12.012L49.4519 12.6C48.7706 13.6547 47.7439 14.182 46.3719 14.182C45.2612 14.182 44.3559 13.8367 43.6559 13.146C42.9652 12.446 42.6199 11.564 42.6199 10.5C42.6199 9.44533 42.9606 8.568 43.6419 7.868C44.3232 7.168 45.2052 6.818 46.2879 6.818C47.3146 6.818 48.1499 7.182 48.7939 7.91C49.4472 8.62867 49.7739 9.49667 49.7739 10.514C49.7739 10.6913 49.7599 10.8733 49.7319 11.06H43.8659ZM46.2879 7.966C45.6346 7.966 45.0932 8.15267 44.6639 8.526C44.2346 8.89 43.9686 9.38 43.8659 9.996H48.5419C48.4392 9.33333 48.1779 8.82933 47.7579 8.484C47.3379 8.13867 46.8479 7.966 46.2879 7.966ZM56.9563 7H58.1743V14H56.9563V12.796C56.3497 13.72 55.4677 14.182 54.3103 14.182C53.3303 14.182 52.495 13.8273 51.8043 13.118C51.1137 12.3993 50.7683 11.5267 50.7683 10.5C50.7683 9.47333 51.1137 8.60533 51.8043 7.896C52.495 7.17733 53.3303 6.818 54.3103 6.818C55.4677 6.818 56.3497 7.28 56.9563 8.204V7ZM54.4643 13.006C55.1737 13.006 55.7663 12.768 56.2423 12.292C56.7183 11.8067 56.9563 11.2093 56.9563 10.5C56.9563 9.79067 56.7183 9.198 56.2423 8.722C55.7663 8.23667 55.1737 7.994 54.4643 7.994C53.7643 7.994 53.1763 8.23667 52.7003 8.722C52.2243 9.198 51.9863 9.79067 51.9863 10.5C51.9863 11.2093 52.2243 11.8067 52.7003 12.292C53.1763 12.768 53.7643 13.006 54.4643 13.006ZM61.2377 8.176C61.639 7.308 62.367 6.874 63.4217 6.874V8.148C62.8244 8.12 62.311 8.27867 61.8817 8.624C61.4524 8.96933 61.2377 9.52467 61.2377 10.29V14H60.0197V7H61.2377V8.176ZM65.4037 8.89C65.4037 9.16067 65.539 9.38 65.8097 9.548C66.0804 9.70667 66.407 9.83733 66.7897 9.94C67.1724 10.0333 67.555 10.1453 67.9377 10.276C68.3204 10.3973 68.647 10.612 68.9177 10.92C69.1884 11.2187 69.3237 11.606 69.3237 12.082C69.3237 12.7167 69.0764 13.2253 68.5817 13.608C68.0964 13.9907 67.471 14.182 66.7057 14.182C66.0244 14.182 65.441 14.0327 64.9557 13.734C64.4704 13.4353 64.125 13.0387 63.9197 12.544L64.9697 11.942C65.0817 12.278 65.2917 12.544 65.5997 12.74C65.9077 12.936 66.2764 13.034 66.7057 13.034C67.107 13.034 67.4384 12.9593 67.6997 12.81C67.961 12.6513 68.0917 12.4087 68.0917 12.082C68.0917 11.8113 67.9564 11.5967 67.6857 11.438C67.415 11.27 67.0884 11.1393 66.7057 11.046C66.323 10.9433 65.9404 10.8267 65.5577 10.696C65.175 10.5653 64.8484 10.3507 64.5777 10.052C64.307 9.75333 64.1717 9.37067 64.1717 8.904C64.1717 8.29733 64.405 7.798 64.8717 7.406C65.3477 7.014 65.9404 6.818 66.6497 6.818C67.219 6.818 67.723 6.94867 68.1617 7.21C68.6097 7.462 68.9457 7.81667 69.1697 8.274L68.1477 8.848C67.8957 8.25067 67.3964 7.952 66.6497 7.952C66.3044 7.952 66.0104 8.036 65.7677 8.204C65.525 8.36267 65.4037 8.59133 65.4037 8.89ZM75.6938 12.768H80.2438V14H74.3918V4.2H80.1738V5.432H75.6938V8.442H79.8238V9.66H75.6938V12.768ZM87.7656 14H86.3376L84.3776 11.354L82.4036 14H80.9756L83.6636 10.402L81.1296 7H82.5716L84.3776 9.436L86.1836 7H87.6116L85.0916 10.388L87.7656 14ZM92.7587 6.818C93.7387 6.818 94.574 7.17733 95.2647 7.896C95.9554 8.60533 96.3007 9.47333 96.3007 10.5C96.3007 11.5267 95.9554 12.3993 95.2647 13.118C94.574 13.8273 93.7387 14.182 92.7587 14.182C91.6014 14.182 90.7194 13.72 90.1127 12.796V16.8H88.8947V7H90.1127V8.204C90.7194 7.28 91.6014 6.818 92.7587 6.818ZM92.6047 13.006C93.3047 13.006 93.8927 12.768 94.3687 12.292C94.8447 11.8067 95.0827 11.2093 95.0827 10.5C95.0827 9.79067 94.8447 9.198 94.3687 8.722C93.8927 8.23667 93.3047 7.994 92.6047 7.994C91.8954 7.994 91.3027 8.23667 90.8267 8.722C90.3507 9.198 90.1127 9.79067 90.1127 10.5C90.1127 11.2093 90.3507 11.8067 90.8267 12.292C91.3027 12.768 91.8954 13.006 92.6047 13.006ZM98.6081 11.06C98.7294 11.6853 99.0141 12.1707 99.4621 12.516C99.9194 12.8613 100.479 13.034 101.142 13.034C102.066 13.034 102.738 12.6933 103.158 12.012L104.194 12.6C103.513 13.6547 102.486 14.182 101.114 14.182C100.003 14.182 99.0981 13.8367 98.3981 13.146C97.7074 12.446 97.3621 11.564 97.3621 10.5C97.3621 9.44533 97.7027 8.568 98.3841 7.868C99.0654 7.168 99.9474 6.818 101.03 6.818C102.057 6.818 102.892 7.182 103.536 7.91C104.189 8.62867 104.516 9.49667 104.516 10.514C104.516 10.6913 104.502 10.8733 104.474 11.06H98.6081ZM101.03 7.966C100.377 7.966 99.8354 8.15267 99.4061 8.526C98.9767 8.89 98.7107 9.38 98.6081 9.996H103.284C103.181 9.33333 102.92 8.82933 102.5 8.484C102.08 8.13867 101.59 7.966 101.03 7.966ZM107.134 8.176C107.536 7.308 108.264 6.874 109.318 6.874V8.148C108.721 8.12 108.208 8.27867 107.778 8.624C107.349 8.96933 107.134 9.52467 107.134 10.29V14H105.916V7H107.134V8.176ZM111.126 5.726C110.893 5.726 110.697 5.64667 110.538 5.488C110.379 5.32933 110.3 5.138 110.3 4.914C110.3 4.69 110.379 4.49867 110.538 4.34C110.697 4.172 110.893 4.088 111.126 4.088C111.35 4.088 111.541 4.172 111.7 4.34C111.859 4.49867 111.938 4.69 111.938 4.914C111.938 5.138 111.859 5.32933 111.7 5.488C111.541 5.64667 111.35 5.726 111.126 5.726ZM110.51 14V7H111.728V14H110.51ZM114.44 11.06C114.561 11.6853 114.846 12.1707 115.294 12.516C115.751 12.8613 116.311 13.034 116.974 13.034C117.898 13.034 118.57 12.6933 118.99 12.012L120.026 12.6C119.345 13.6547 118.318 14.182 116.946 14.182C115.835 14.182 114.93 13.8367 114.23 13.146C113.539 12.446 113.194 11.564 113.194 10.5C113.194 9.44533 113.535 8.568 114.216 7.868C114.897 7.168 115.779 6.818 116.862 6.818C117.889 6.818 118.724 7.182 119.368 7.91C120.021 8.62867 120.348 9.49667 120.348 10.514C120.348 10.6913 120.334 10.8733 120.306 11.06H114.44ZM116.862 7.966C116.209 7.966 115.667 8.15267 115.238 8.526C114.809 8.89 114.543 9.38 114.44 9.996H119.116C119.013 9.33333 118.752 8.82933 118.332 8.484C117.912 8.13867 117.422 7.966 116.862 7.966ZM125.234 6.818C126.056 6.818 126.714 7.07933 127.208 7.602C127.703 8.11533 127.95 8.81533 127.95 9.702V14H126.732V9.772C126.732 9.20267 126.578 8.764 126.27 8.456C125.962 8.13867 125.538 7.98 124.996 7.98C124.39 7.98 123.9 8.17133 123.526 8.554C123.153 8.92733 122.966 9.506 122.966 10.29V14H121.748V7H122.966V8.008C123.461 7.21467 124.217 6.818 125.234 6.818ZM132.941 14.182C131.886 14.182 131.009 13.832 130.309 13.132C129.609 12.4227 129.259 11.5453 129.259 10.5C129.259 9.45467 129.609 8.582 130.309 7.882C131.009 7.17267 131.886 6.818 132.941 6.818C133.631 6.818 134.252 6.986 134.803 7.322C135.353 7.64867 135.764 8.092 136.035 8.652L135.013 9.24C134.835 8.86667 134.56 8.568 134.187 8.344C133.823 8.12 133.407 8.008 132.941 8.008C132.241 8.008 131.653 8.246 131.177 8.722C130.71 9.198 130.477 9.79067 130.477 10.5C130.477 11.2 130.71 11.788 131.177 12.264C131.653 12.74 132.241 12.978 132.941 12.978C133.407 12.978 133.827 12.8707 134.201 12.656C134.574 12.432 134.859 12.1333 135.055 11.76L136.091 12.362C135.792 12.9127 135.363 13.356 134.803 13.692C134.243 14.0187 133.622 14.182 132.941 14.182ZM138.051 11.06C138.173 11.6853 138.457 12.1707 138.905 12.516C139.363 12.8613 139.923 13.034 140.585 13.034C141.509 13.034 142.181 12.6933 142.601 12.012L143.637 12.6C142.956 13.6547 141.929 14.182 140.557 14.182C139.447 14.182 138.541 13.8367 137.841 13.146C137.151 12.446 136.805 11.564 136.805 10.5C136.805 9.44533 137.146 8.568 137.827 7.868C138.509 7.168 139.391 6.818 140.473 6.818C141.5 6.818 142.335 7.182 142.979 7.91C143.633 8.62867 143.959 9.49667 143.959 10.514C143.959 10.6913 143.945 10.8733 143.917 11.06H138.051ZM140.473 7.966C139.82 7.966 139.279 8.15267 138.849 8.526C138.42 8.89 138.154 9.38 138.051 9.996H142.727C142.625 9.33333 142.363 8.82933 141.943 8.484C141.523 8.13867 141.033 7.966 140.473 7.966Z" fill="#555555"/>
<defs>
<clipPath id="clip0_251_5922">
<rect width="14" height="14" fill="white" transform="translate(1 3)"/>
</clipPath>
</defs>
</svg>
