<svg width="577" height="171" viewBox="0 0 577 171" fill="none" xmlns="http://www.w3.org/2000/svg">
<path d="M47.648 72.672C43.904 72.672 40.832 71.616 38.432 69.504C36.032 67.392 34.832 64.56 34.832 61.008V38.4H41.408V60.48C41.408 62.24 41.904 63.632 42.896 64.656C43.92 65.68 45.504 66.192 47.648 66.192C49.792 66.192 51.36 65.68 52.352 64.656C53.376 63.632 53.888 62.24 53.888 60.48V38.4H60.512V61.008C60.512 64.56 59.312 67.392 56.912 69.504C54.512 71.616 51.424 72.672 47.648 72.672ZM79.5354 47.328C82.1594 47.328 84.3194 48.208 86.0154 49.968C87.7434 51.728 88.6074 54.16 88.6074 57.264V72H82.4154V58.032C82.4154 56.432 81.9834 55.216 81.1194 54.384C80.2554 53.52 79.1034 53.088 77.6634 53.088C76.0634 53.088 74.7834 53.584 73.8234 54.576C72.8634 55.568 72.3834 57.056 72.3834 59.04V72H66.1914V48H72.3834V50.688C73.8874 48.448 76.2714 47.328 79.5354 47.328ZM93.8945 72V36.96H100.087V72H93.8945ZM126.202 69.024C123.738 71.456 120.73 72.672 117.178 72.672C113.626 72.672 110.618 71.456 108.154 69.024C105.722 66.56 104.506 63.552 104.506 60C104.506 56.448 105.722 53.456 108.154 51.024C110.618 48.56 113.626 47.328 117.178 47.328C120.73 47.328 123.738 48.56 126.202 51.024C128.666 53.456 129.898 56.448 129.898 60C129.898 63.552 128.666 66.56 126.202 69.024ZM112.522 64.752C113.77 66 115.322 66.624 117.178 66.624C119.034 66.624 120.586 66 121.834 64.752C123.082 63.504 123.706 61.92 123.706 60C123.706 58.08 123.082 56.496 121.834 55.248C120.586 54 119.034 53.376 117.178 53.376C115.322 53.376 113.77 54 112.522 55.248C111.306 56.496 110.698 58.08 110.698 60C110.698 61.92 111.306 63.504 112.522 64.752ZM145.678 72.672C142.062 72.672 139.038 71.456 136.606 69.024C134.206 66.592 133.006 63.584 133.006 60C133.006 56.416 134.206 53.408 136.606 50.976C139.038 48.544 142.062 47.328 145.678 47.328C148.014 47.328 150.142 47.888 152.062 49.008C153.982 50.128 155.438 51.632 156.43 53.52L151.102 56.64C150.622 55.648 149.886 54.864 148.894 54.288C147.934 53.712 146.846 53.424 145.63 53.424C143.774 53.424 142.238 54.048 141.022 55.296C139.806 56.512 139.198 58.08 139.198 60C139.198 61.888 139.806 63.456 141.022 64.704C142.238 65.92 143.774 66.528 145.63 66.528C146.878 66.528 147.982 66.256 148.942 65.712C149.934 65.136 150.67 64.352 151.15 63.36L156.526 66.432C155.47 68.32 153.982 69.84 152.062 70.992C150.142 72.112 148.014 72.672 145.678 72.672ZM181.929 72H174.729L165.993 61.104V72H159.801V38.4H165.993V58.56L174.249 48H181.641L171.993 59.856L181.929 72ZM217.372 44.736H203.932V52.704H216.988V59.04H203.932V72H197.308V38.4H217.372V44.736ZM224.982 45.12C223.958 45.12 223.062 44.752 222.294 44.016C221.558 43.248 221.19 42.352 221.19 41.328C221.19 40.304 221.558 39.408 222.294 38.64C223.062 37.872 223.958 37.488 224.982 37.488C226.038 37.488 226.934 37.872 227.67 38.64C228.438 39.408 228.822 40.304 228.822 41.328C228.822 42.352 228.438 43.248 227.67 44.016C226.934 44.752 226.038 45.12 224.982 45.12ZM221.91 72V48H228.102V72H221.91ZM247.114 47.328C249.738 47.328 251.898 48.208 253.594 49.968C255.322 51.728 256.186 54.16 256.186 57.264V72H249.994V58.032C249.994 56.432 249.562 55.216 248.698 54.384C247.834 53.52 246.682 53.088 245.242 53.088C243.642 53.088 242.362 53.584 241.402 54.576C240.442 55.568 239.962 57.056 239.962 59.04V72H233.77V48H239.962V50.688C241.466 48.448 243.85 47.328 247.114 47.328ZM279.713 48H285.905V72H279.713V69.168C277.857 71.504 275.249 72.672 271.889 72.672C268.689 72.672 265.937 71.456 263.633 69.024C261.361 66.56 260.225 63.552 260.225 60C260.225 56.448 261.361 53.456 263.633 51.024C265.937 48.56 268.689 47.328 271.889 47.328C275.249 47.328 277.857 48.496 279.713 50.832V48ZM268.289 64.896C269.537 66.144 271.121 66.768 273.041 66.768C274.961 66.768 276.545 66.144 277.793 64.896C279.073 63.616 279.713 61.984 279.713 60C279.713 58.016 279.073 56.4 277.793 55.152C276.545 53.872 274.961 53.232 273.041 53.232C271.121 53.232 269.537 53.872 268.289 55.152C267.041 56.4 266.417 58.016 266.417 60C266.417 61.984 267.041 63.616 268.289 64.896ZM304.864 47.328C307.488 47.328 309.648 48.208 311.344 49.968C313.072 51.728 313.936 54.16 313.936 57.264V72H307.744V58.032C307.744 56.432 307.312 55.216 306.448 54.384C305.584 53.52 304.432 53.088 302.992 53.088C301.392 53.088 300.112 53.584 299.152 54.576C298.192 55.568 297.712 57.056 297.712 59.04V72H291.52V48H297.712V50.688C299.216 48.448 301.6 47.328 304.864 47.328ZM330.647 72.672C327.031 72.672 324.007 71.456 321.575 69.024C319.175 66.592 317.975 63.584 317.975 60C317.975 56.416 319.175 53.408 321.575 50.976C324.007 48.544 327.031 47.328 330.647 47.328C332.983 47.328 335.111 47.888 337.031 49.008C338.951 50.128 340.407 51.632 341.399 53.52L336.071 56.64C335.591 55.648 334.855 54.864 333.863 54.288C332.903 53.712 331.815 53.424 330.599 53.424C328.743 53.424 327.207 54.048 325.991 55.296C324.775 56.512 324.167 58.08 324.167 60C324.167 61.888 324.775 63.456 325.991 64.704C327.207 65.92 328.743 66.528 330.599 66.528C331.847 66.528 332.951 66.256 333.911 65.712C334.903 65.136 335.639 64.352 336.119 63.36L341.495 66.432C340.439 68.32 338.951 69.84 337.031 70.992C335.111 72.112 332.983 72.672 330.647 72.672ZM347.842 45.12C346.818 45.12 345.922 44.752 345.154 44.016C344.418 43.248 344.05 42.352 344.05 41.328C344.05 40.304 344.418 39.408 345.154 38.64C345.922 37.872 346.818 37.488 347.842 37.488C348.898 37.488 349.794 37.872 350.53 38.64C351.298 39.408 351.682 40.304 351.682 41.328C351.682 42.352 351.298 43.248 350.53 44.016C349.794 44.752 348.898 45.12 347.842 45.12ZM344.77 72V48H350.962V72H344.77ZM374.869 48H381.061V72H374.869V69.168C373.013 71.504 370.405 72.672 367.045 72.672C363.845 72.672 361.093 71.456 358.789 69.024C356.517 66.56 355.381 63.552 355.381 60C355.381 56.448 356.517 53.456 358.789 51.024C361.093 48.56 363.845 47.328 367.045 47.328C370.405 47.328 373.013 48.496 374.869 50.832V48ZM363.445 64.896C364.693 66.144 366.277 66.768 368.197 66.768C370.117 66.768 371.701 66.144 372.949 64.896C374.229 63.616 374.869 61.984 374.869 60C374.869 58.016 374.229 56.4 372.949 55.152C371.701 53.872 370.117 53.232 368.197 53.232C366.277 53.232 364.693 53.872 363.445 55.152C362.197 56.4 361.573 58.016 361.573 60C361.573 61.984 362.197 63.616 363.445 64.896ZM386.676 72V36.96H392.868V72H386.676ZM426.759 72.672C421.703 72.672 417.527 70.992 414.231 67.632C410.935 64.272 409.287 60.128 409.287 55.2C409.287 50.24 410.935 46.096 414.231 42.768C417.527 39.408 421.703 37.728 426.759 37.728C429.799 37.728 432.599 38.448 435.159 39.888C437.751 41.296 439.767 43.216 441.207 45.648L435.495 48.96C434.663 47.456 433.479 46.288 431.943 45.456C430.407 44.592 428.679 44.16 426.759 44.16C423.495 44.16 420.855 45.184 418.839 47.232C416.855 49.28 415.863 51.936 415.863 55.2C415.863 58.432 416.855 61.072 418.839 63.12C420.855 65.168 423.495 66.192 426.759 66.192C428.679 66.192 430.407 65.776 431.943 64.944C433.511 64.08 434.695 62.912 435.495 61.44L441.207 64.752C439.767 67.184 437.767 69.12 435.207 70.56C432.647 71.968 429.831 72.672 426.759 72.672ZM445.363 72V36.96H451.555V72H445.363ZM475.463 48H481.655V72H475.463V69.168C473.607 71.504 470.999 72.672 467.639 72.672C464.439 72.672 461.687 71.456 459.383 69.024C457.111 66.56 455.975 63.552 455.975 60C455.975 56.448 457.111 53.456 459.383 51.024C461.687 48.56 464.439 47.328 467.639 47.328C470.999 47.328 473.607 48.496 475.463 50.832V48ZM464.039 64.896C465.287 66.144 466.871 66.768 468.791 66.768C470.711 66.768 472.295 66.144 473.543 64.896C474.823 63.616 475.463 61.984 475.463 60C475.463 58.016 474.823 56.4 473.543 55.152C472.295 53.872 470.711 53.232 468.791 53.232C466.871 53.232 465.287 53.872 464.039 55.152C462.791 56.4 462.167 58.016 462.167 60C462.167 61.984 462.791 63.616 464.039 64.896ZM493.462 52.128C494.038 50.592 494.982 49.44 496.294 48.672C497.638 47.904 499.126 47.52 500.758 47.52V54.432C498.87 54.208 497.174 54.592 495.67 55.584C494.198 56.576 493.462 58.224 493.462 60.528V72H487.27V48H493.462V52.128ZM507.451 45.12C506.427 45.12 505.531 44.752 504.763 44.016C504.027 43.248 503.659 42.352 503.659 41.328C503.659 40.304 504.027 39.408 504.763 38.64C505.531 37.872 506.427 37.488 507.451 37.488C508.507 37.488 509.403 37.872 510.139 38.64C510.907 39.408 511.291 40.304 511.291 41.328C511.291 42.352 510.907 43.248 510.139 44.016C509.403 44.752 508.507 45.12 507.451 45.12ZM504.379 72V48H510.571V72H504.379ZM529.966 53.952H524.542V63.936C524.542 64.768 524.75 65.376 525.166 65.76C525.582 66.144 526.19 66.368 526.99 66.432C527.79 66.464 528.782 66.448 529.966 66.384V72C525.71 72.48 522.702 72.08 520.942 70.8C519.214 69.52 518.35 67.232 518.35 63.936V53.952H514.174V48H518.35V43.152L524.542 41.28V48H529.966V53.952ZM550.496 48H557.12L548.384 72C547.136 75.456 545.472 77.952 543.392 79.488C541.344 81.056 538.784 81.76 535.712 81.6V75.84C537.376 75.872 538.688 75.52 539.648 74.784C540.64 74.048 541.424 72.864 542 71.232L532.16 48H538.928L545.168 64.128L550.496 48ZM42.128 136L32.72 102.4H39.68L46.112 127.312L53.12 102.4H58.784L65.84 127.312L72.272 102.4H79.232L69.824 136H62.288L55.952 113.824L49.664 136H42.128ZM84.9196 109.12C83.8956 109.12 82.9996 108.752 82.2316 108.016C81.4956 107.248 81.1276 106.352 81.1276 105.328C81.1276 104.304 81.4956 103.408 82.2316 102.64C82.9996 101.872 83.8956 101.488 84.9196 101.488C85.9756 101.488 86.8716 101.872 87.6076 102.64C88.3756 103.408 88.7596 104.304 88.7596 105.328C88.7596 106.352 88.3756 107.248 87.6076 108.016C86.8716 108.752 85.9756 109.12 84.9196 109.12ZM81.8476 136V112H88.0396V136H81.8476ZM107.435 117.952H102.011V127.936C102.011 128.768 102.219 129.376 102.635 129.76C103.051 130.144 103.659 130.368 104.459 130.432C105.259 130.464 106.251 130.448 107.435 130.384V136C103.179 136.48 100.171 136.08 98.411 134.8C96.683 133.52 95.819 131.232 95.819 127.936V117.952H91.643V112H95.819V107.152L102.011 105.28V112H107.435V117.952ZM125.145 111.328C127.769 111.328 129.929 112.208 131.625 113.968C133.353 115.728 134.217 118.16 134.217 121.264V136H128.025V122.032C128.025 120.432 127.593 119.216 126.729 118.384C125.865 117.52 124.713 117.088 123.273 117.088C121.673 117.088 120.393 117.584 119.433 118.576C118.473 119.568 117.993 121.056 117.993 123.04V136H111.801V102.4H117.993V114.688C119.497 112.448 121.881 111.328 125.145 111.328Z" fill="#121214"/>
<path d="M167.728 136.672C162.672 136.672 158.496 134.992 155.2 131.632C151.904 128.272 150.256 124.128 150.256 119.2C150.256 114.24 151.904 110.096 155.2 106.768C158.496 103.408 162.672 101.728 167.728 101.728C170.768 101.728 173.568 102.448 176.128 103.888C178.72 105.296 180.736 107.216 182.176 109.648L176.464 112.96C175.632 111.456 174.448 110.288 172.912 109.456C171.376 108.592 169.648 108.16 167.728 108.16C164.464 108.16 161.824 109.184 159.808 111.232C157.824 113.28 156.832 115.936 156.832 119.2C156.832 122.432 157.824 125.072 159.808 127.12C161.824 129.168 164.464 130.192 167.728 130.192C169.648 130.192 171.376 129.776 172.912 128.944C174.48 128.08 175.664 126.912 176.464 125.44L182.176 128.752C180.736 131.184 178.736 133.12 176.176 134.56C173.616 135.968 170.8 136.672 167.728 136.672ZM191.33 126.544C192.162 129.552 194.418 131.056 198.098 131.056C200.466 131.056 202.258 130.256 203.474 128.656L208.466 131.536C206.098 134.96 202.61 136.672 198.002 136.672C194.034 136.672 190.85 135.472 188.45 133.072C186.05 130.672 184.85 127.648 184.85 124C184.85 120.384 186.034 117.376 188.402 114.976C190.77 112.544 193.81 111.328 197.522 111.328C201.042 111.328 203.938 112.544 206.21 114.976C208.514 117.408 209.666 120.416 209.666 124C209.666 124.8 209.586 125.648 209.426 126.544H191.33ZM191.234 121.744H203.474C203.122 120.112 202.386 118.896 201.266 118.096C200.178 117.296 198.93 116.896 197.522 116.896C195.858 116.896 194.482 117.328 193.394 118.192C192.306 119.024 191.586 120.208 191.234 121.744ZM220.18 116.128C220.756 114.592 221.7 113.44 223.012 112.672C224.356 111.904 225.844 111.52 227.476 111.52V118.432C225.588 118.208 223.892 118.592 222.388 119.584C220.916 120.576 220.18 122.224 220.18 124.528V136H213.988V112H220.18V116.128ZM245.482 117.952H240.058V127.936C240.058 128.768 240.266 129.376 240.682 129.76C241.098 130.144 241.706 130.368 242.506 130.432C243.306 130.464 244.298 130.448 245.482 130.384V136C241.226 136.48 238.218 136.08 236.458 134.8C234.73 133.52 233.866 131.232 233.866 127.936V117.952H229.69V112H233.866V107.152L240.058 105.28V112H245.482V117.952ZM252.92 109.12C251.896 109.12 251 108.752 250.232 108.016C249.496 107.248 249.128 106.352 249.128 105.328C249.128 104.304 249.496 103.408 250.232 102.64C251 101.872 251.896 101.488 252.92 101.488C253.976 101.488 254.872 101.872 255.608 102.64C256.376 103.408 256.76 104.304 256.76 105.328C256.76 106.352 256.376 107.248 255.608 108.016C254.872 108.752 253.976 109.12 252.92 109.12ZM249.848 136V112H256.04V136H249.848ZM282.779 112V136H276.587V117.952H269.531V136H263.339V117.952H259.883V112H263.339V111.76C263.339 105.072 267.099 101.728 274.619 101.728C276.315 101.728 278.187 101.952 280.235 102.4V108.064C278.091 107.808 276.219 107.68 274.619 107.68C272.891 107.68 271.611 107.984 270.779 108.592C269.947 109.168 269.531 110.224 269.531 111.76V112H282.779ZM293.658 126.544C294.49 129.552 296.746 131.056 300.426 131.056C302.794 131.056 304.586 130.256 305.802 128.656L310.794 131.536C308.426 134.96 304.938 136.672 300.33 136.672C296.362 136.672 293.178 135.472 290.778 133.072C288.378 130.672 287.178 127.648 287.178 124C287.178 120.384 288.362 117.376 290.73 114.976C293.098 112.544 296.138 111.328 299.85 111.328C303.37 111.328 306.266 112.544 308.538 114.976C310.842 117.408 311.994 120.416 311.994 124C311.994 124.8 311.914 125.648 311.754 126.544H293.658ZM293.562 121.744H305.802C305.45 120.112 304.714 118.896 303.594 118.096C302.506 117.296 301.258 116.896 299.85 116.896C298.186 116.896 296.81 117.328 295.722 118.192C294.634 119.024 293.914 120.208 293.562 121.744ZM334.321 102.4H340.513V136H334.321V133.168C332.497 135.504 329.905 136.672 326.545 136.672C323.313 136.672 320.545 135.456 318.241 133.024C315.969 130.56 314.833 127.552 314.833 124C314.833 120.448 315.969 117.456 318.241 115.024C320.545 112.56 323.313 111.328 326.545 111.328C329.905 111.328 332.497 112.496 334.321 114.832V102.4ZM322.897 128.896C324.177 130.144 325.777 130.768 327.697 130.768C329.617 130.768 331.201 130.144 332.449 128.896C333.697 127.616 334.321 125.984 334.321 124C334.321 122.016 333.697 120.4 332.449 119.152C331.201 117.872 329.617 117.232 327.697 117.232C325.777 117.232 324.177 117.872 322.897 119.152C321.649 120.4 321.025 122.016 321.025 124C321.025 125.984 321.649 127.616 322.897 128.896ZM380.064 136L378.048 129.952H364.656L362.64 136H355.488L367.248 102.4H375.456L387.264 136H380.064ZM366.768 123.76H375.984L371.376 110.032L366.768 123.76ZM407.774 102.4H413.966V136H407.774V133.168C405.95 135.504 403.358 136.672 399.998 136.672C396.766 136.672 393.998 135.456 391.694 133.024C389.422 130.56 388.286 127.552 388.286 124C388.286 120.448 389.422 117.456 391.694 115.024C393.998 112.56 396.766 111.328 399.998 111.328C403.358 111.328 405.95 112.496 407.774 114.832V102.4ZM396.35 128.896C397.63 130.144 399.23 130.768 401.15 130.768C403.07 130.768 404.654 130.144 405.902 128.896C407.15 127.616 407.774 125.984 407.774 124C407.774 122.016 407.15 120.4 405.902 119.152C404.654 117.872 403.07 117.232 401.15 117.232C399.23 117.232 397.63 117.872 396.35 119.152C395.102 120.4 394.478 122.016 394.478 124C394.478 125.984 395.102 127.616 396.35 128.896ZM435.421 112H442.237L433.117 136H426.061L416.941 112H423.757L429.565 128.8L435.421 112ZM448.295 109.12C447.271 109.12 446.375 108.752 445.607 108.016C444.871 107.248 444.503 106.352 444.503 105.328C444.503 104.304 444.871 103.408 445.607 102.64C446.375 101.872 447.271 101.488 448.295 101.488C449.351 101.488 450.247 101.872 450.983 102.64C451.751 103.408 452.135 104.304 452.135 105.328C452.135 106.352 451.751 107.248 450.983 108.016C450.247 108.752 449.351 109.12 448.295 109.12ZM445.223 136V112H451.415V136H445.223ZM462.607 118.816C462.607 119.456 463.023 119.984 463.855 120.4C464.719 120.784 465.759 121.136 466.975 121.456C468.191 121.744 469.407 122.128 470.623 122.608C471.839 123.056 472.863 123.824 473.695 124.912C474.559 126 474.991 127.36 474.991 128.992C474.991 131.456 474.063 133.36 472.207 134.704C470.383 136.016 468.095 136.672 465.343 136.672C460.415 136.672 457.055 134.768 455.263 130.96L460.639 127.936C461.343 130.016 462.911 131.056 465.343 131.056C467.551 131.056 468.655 130.368 468.655 128.992C468.655 128.352 468.223 127.84 467.359 127.456C466.527 127.04 465.503 126.672 464.287 126.352C463.071 126.032 461.855 125.632 460.639 125.152C459.423 124.672 458.383 123.92 457.519 122.896C456.687 121.84 456.271 120.528 456.271 118.96C456.271 116.592 457.135 114.736 458.863 113.392C460.623 112.016 462.799 111.328 465.391 111.328C467.343 111.328 469.119 111.776 470.719 112.672C472.319 113.536 473.583 114.784 474.511 116.416L469.231 119.296C468.463 117.664 467.183 116.848 465.391 116.848C464.591 116.848 463.919 117.024 463.375 117.376C462.863 117.728 462.607 118.208 462.607 118.816ZM499.093 133.024C496.629 135.456 493.621 136.672 490.069 136.672C486.517 136.672 483.509 135.456 481.045 133.024C478.613 130.56 477.396 127.552 477.396 124C477.396 120.448 478.613 117.456 481.045 115.024C483.509 112.56 486.517 111.328 490.069 111.328C493.621 111.328 496.629 112.56 499.093 115.024C501.557 117.456 502.789 120.448 502.789 124C502.789 127.552 501.557 130.56 499.093 133.024ZM485.413 128.752C486.661 130 488.213 130.624 490.069 130.624C491.925 130.624 493.477 130 494.725 128.752C495.973 127.504 496.597 125.92 496.597 124C496.597 122.08 495.973 120.496 494.725 119.248C493.477 118 491.925 117.376 490.069 117.376C488.213 117.376 486.661 118 485.413 119.248C484.197 120.496 483.589 122.08 483.589 124C483.589 125.92 484.197 127.504 485.413 128.752ZM513.337 116.128C513.913 114.592 514.857 113.44 516.169 112.672C517.513 111.904 519.001 111.52 520.633 111.52V118.432C518.745 118.208 517.049 118.592 515.545 119.584C514.073 120.576 513.337 122.224 513.337 124.528V136H507.145V112H513.337V116.128ZM529.216 118.816C529.216 119.456 529.632 119.984 530.464 120.4C531.328 120.784 532.368 121.136 533.584 121.456C534.8 121.744 536.016 122.128 537.232 122.608C538.448 123.056 539.472 123.824 540.304 124.912C541.168 126 541.6 127.36 541.6 128.992C541.6 131.456 540.672 133.36 538.816 134.704C536.992 136.016 534.704 136.672 531.952 136.672C527.024 136.672 523.664 134.768 521.872 130.96L527.248 127.936C527.952 130.016 529.52 131.056 531.952 131.056C534.16 131.056 535.264 130.368 535.264 128.992C535.264 128.352 534.832 127.84 533.968 127.456C533.136 127.04 532.112 126.672 530.896 126.352C529.68 126.032 528.464 125.632 527.248 125.152C526.032 124.672 524.992 123.92 524.128 122.896C523.296 121.84 522.88 120.528 522.88 118.96C522.88 116.592 523.744 114.736 525.472 113.392C527.232 112.016 529.408 111.328 532 111.328C533.952 111.328 535.728 111.776 537.328 112.672C538.928 113.536 540.192 114.784 541.12 116.416L535.84 119.296C535.072 117.664 533.792 116.848 532 116.848C531.2 116.848 530.528 117.024 529.984 117.376C529.472 117.728 529.216 118.208 529.216 118.816Z" fill="#5978FF"/>
<path d="M276 169C309.144 159.945 401.145 147.267 504 169" stroke="#F8971F" stroke-width="4" stroke-linecap="round"/>
<path d="M37.5995 22.5017C35.3942 18.866 33.1505 15.3211 30.4496 12.0284C29.1895 10.4987 27.7876 9.09119 26.2917 7.79415C25.0289 6.70057 23.1699 4.86148 21.4071 5.81078C20.1917 6.46415 21.0562 7.99587 21.694 8.6824C23.2568 10.3702 25.1611 11.7626 26.7579 13.4373C29.8848 16.7102 32.4711 20.4895 35.2898 24.026C36.2612 25.2479 38.4291 23.8673 37.5995 22.5017Z" fill="#F8971F"/>
<path d="M12.1103 19.2576C14.165 20.9605 16.6752 21.9517 19.0353 23.1502C21.7243 24.51 24.3964 25.9822 27.3488 26.6768C29.0956 27.0884 30.0699 24.6607 28.3121 23.9936C25.3778 22.8803 22.634 21.4794 19.868 20.0017C17.4938 18.7344 15.1738 17.5487 12.4144 17.8229C11.6615 17.8968 11.634 18.8607 12.1103 19.2576Z" fill="#F8971F"/>
<path d="M1.88064 37.7328C1.2087 37.9817 1.42904 39.1275 2.1388 39.1264C9.4296 39.1104 17.1615 38.6469 24.1504 36.4485C25.911 35.8947 25.4894 33.0953 23.6147 33.557C16.4485 35.3218 8.85326 35.1557 1.88064 37.7328Z" fill="#F8971F"/>
</svg>
