<svg width="262" height="149" viewBox="0 0 262 149" fill="none" xmlns="http://www.w3.org/2000/svg">
<g filter="url(#filter0_d_251_4646)">
<rect x="32" y="30" width="198" height="85" rx="12" fill="white" shape-rendering="crispEdges"/>
<g clip-path="url(#clip0_251_4646)">
<path d="M78.9989 62.718L73.121 66.0081L74.4338 59.4012L69.4883 54.8278L76.1775 54.0347L78.9989 47.918L81.8202 54.0347L88.5094 54.8278L83.564 59.4012L84.8767 66.0081L78.9989 62.718Z" fill="#F8971F"/>
</g>
<g clip-path="url(#clip1_251_4646)">
<path d="M104.999 62.718L99.121 66.0081L100.434 59.4012L95.4883 54.8278L102.177 54.0347L104.999 47.918L107.82 54.0347L114.509 54.8278L109.564 59.4012L110.877 66.0081L104.999 62.718Z" fill="#F8971F"/>
</g>
<g clip-path="url(#clip2_251_4646)">
<path d="M130.999 62.718L125.121 66.0081L126.434 59.4012L121.488 54.8278L128.177 54.0347L130.999 47.918L133.82 54.0347L140.509 54.8278L135.564 59.4012L136.877 66.0081L130.999 62.718Z" fill="#F8971F"/>
</g>
<g clip-path="url(#clip3_251_4646)">
<path d="M156.999 62.718L151.121 66.0081L152.434 59.4012L147.488 54.8278L154.177 54.0347L156.999 47.918L159.82 54.0347L166.509 54.8278L161.564 59.4012L162.877 66.0081L156.999 62.718Z" fill="#F8971F"/>
</g>
<g clip-path="url(#clip4_251_4646)">
<path d="M182.999 62.718L177.121 66.0081L178.434 59.4012L173.488 54.8278L180.177 54.0347L182.999 47.918L185.82 54.0347L192.509 54.8278L187.564 59.4012L188.877 66.0081L182.999 62.718Z" fill="#F8971F"/>
</g>
<path d="M54.652 78.3H56.252V89.5H54.412V80.268L52.156 80.908L51.708 79.34L54.652 78.3ZM65.7251 88.124C64.9571 89.18 63.8798 89.708 62.4931 89.708C61.1065 89.708 60.0238 89.18 59.2451 88.124C58.4771 87.068 58.0931 85.66 58.0931 83.9C58.0931 82.14 58.4771 80.732 59.2451 79.676C60.0238 78.62 61.1065 78.092 62.4931 78.092C63.8798 78.092 64.9571 78.62 65.7251 79.676C66.5038 80.732 66.8931 82.14 66.8931 83.9C66.8931 85.66 66.5038 87.068 65.7251 88.124ZM62.4931 87.916C63.3251 87.916 63.9598 87.5693 64.3971 86.876C64.8345 86.1827 65.0531 85.1907 65.0531 83.9C65.0531 82.6093 64.8345 81.6173 64.3971 80.924C63.9598 80.2307 63.3251 79.884 62.4931 79.884C61.6718 79.884 61.0371 80.2307 60.5891 80.924C60.1518 81.6173 59.9331 82.6093 59.9331 83.9C59.9331 85.1907 60.1518 86.1827 60.5891 86.876C61.0371 87.5693 61.6718 87.916 62.4931 87.916ZM75.8033 88.124C75.0353 89.18 73.9579 89.708 72.5713 89.708C71.1846 89.708 70.1019 89.18 69.3233 88.124C68.5553 87.068 68.1713 85.66 68.1713 83.9C68.1713 82.14 68.5553 80.732 69.3233 79.676C70.1019 78.62 71.1846 78.092 72.5713 78.092C73.9579 78.092 75.0353 78.62 75.8033 79.676C76.5819 80.732 76.9713 82.14 76.9713 83.9C76.9713 85.66 76.5819 87.068 75.8033 88.124ZM72.5713 87.916C73.4033 87.916 74.0379 87.5693 74.4753 86.876C74.9126 86.1827 75.1313 85.1907 75.1313 83.9C75.1313 82.6093 74.9126 81.6173 74.4753 80.924C74.0379 80.2307 73.4033 79.884 72.5713 79.884C71.7499 79.884 71.1153 80.2307 70.6673 80.924C70.2299 81.6173 70.0113 82.6093 70.0113 83.9C70.0113 85.1907 70.2299 86.1827 70.6673 86.876C71.1153 87.5693 71.7499 87.916 72.5713 87.916ZM85.5294 83.084V84.716H82.8254V87.42H81.1934V84.716H78.4894V83.084H81.1934V80.38H82.8254V83.084H85.5294ZM95.6543 78.3C96.7103 78.3 97.5903 78.652 98.2943 79.356C99.0089 80.06 99.3663 80.9347 99.3663 81.98C99.3663 83.0147 99.0089 83.8893 98.2943 84.604C97.5903 85.308 96.7103 85.66 95.6543 85.66H93.3663V89.5H91.5263V78.3H95.6543ZM95.6543 83.932C96.1983 83.932 96.6463 83.7507 96.9983 83.388C97.3503 83.0147 97.5263 82.5453 97.5263 81.98C97.5263 81.4147 97.3503 80.9507 96.9983 80.588C96.6463 80.2147 96.1983 80.028 95.6543 80.028H93.3663V83.932H95.6543ZM104.065 89.708C102.892 89.708 101.895 89.3027 101.073 88.492C100.252 87.6813 99.8413 86.684 99.8413 85.5C99.8413 84.316 100.252 83.3187 101.073 82.508C101.895 81.6973 102.892 81.292 104.065 81.292C105.249 81.292 106.247 81.6973 107.057 82.508C107.879 83.3187 108.289 84.316 108.289 85.5C108.289 86.684 107.879 87.6813 107.057 88.492C106.247 89.3027 105.249 89.708 104.065 89.708ZM102.289 87.308C102.769 87.788 103.361 88.028 104.065 88.028C104.769 88.028 105.361 87.788 105.841 87.308C106.321 86.828 106.561 86.2253 106.561 85.5C106.561 84.7747 106.321 84.172 105.841 83.692C105.361 83.212 104.769 82.972 104.065 82.972C103.361 82.972 102.769 83.212 102.289 83.692C101.809 84.172 101.569 84.7747 101.569 85.5C101.569 86.2253 101.809 86.828 102.289 87.308ZM111.248 83.708C111.248 83.9747 111.392 84.188 111.68 84.348C111.978 84.4973 112.336 84.6307 112.752 84.748C113.178 84.8547 113.605 84.9827 114.032 85.132C114.458 85.2813 114.816 85.5373 115.104 85.9C115.402 86.252 115.552 86.7 115.552 87.244C115.552 88.012 115.253 88.6147 114.656 89.052C114.069 89.4893 113.328 89.708 112.432 89.708C111.642 89.708 110.965 89.5427 110.4 89.212C109.834 88.8813 109.424 88.4227 109.168 87.836L110.656 86.972C110.933 87.74 111.525 88.124 112.432 88.124C113.338 88.124 113.792 87.8253 113.792 87.228C113.792 86.972 113.642 86.764 113.344 86.604C113.056 86.444 112.698 86.3107 112.272 86.204C111.856 86.0867 111.434 85.9533 111.008 85.804C110.581 85.6547 110.218 85.4093 109.92 85.068C109.632 84.716 109.488 84.2733 109.488 83.74C109.488 83.004 109.765 82.412 110.32 81.964C110.885 81.516 111.584 81.292 112.416 81.292C113.077 81.292 113.664 81.4413 114.176 81.74C114.698 82.028 115.098 82.4333 115.376 82.956L113.92 83.772C113.642 83.164 113.141 82.86 112.416 82.86C112.085 82.86 111.808 82.9347 111.584 83.084C111.36 83.2227 111.248 83.4307 111.248 83.708ZM118.609 79.98C118.395 80.1933 118.139 80.3 117.841 80.3C117.542 80.3 117.281 80.1933 117.057 79.98C116.843 79.756 116.737 79.4947 116.737 79.196C116.737 78.8973 116.843 78.6413 117.057 78.428C117.27 78.204 117.531 78.092 117.841 78.092C118.15 78.092 118.411 78.204 118.625 78.428C118.838 78.6413 118.945 78.8973 118.945 79.196C118.945 79.4947 118.833 79.756 118.609 79.98ZM116.977 89.5V81.5H118.705V89.5H116.977ZM125.175 83.164H123.191V87.004C123.191 87.3347 123.266 87.5747 123.415 87.724C123.564 87.8627 123.783 87.9427 124.071 87.964C124.37 87.9747 124.738 87.9693 125.175 87.948V89.5C123.852 89.66 122.903 89.548 122.327 89.164C121.751 88.7693 121.463 88.0493 121.463 87.004V83.164H119.991V81.5H121.463V79.772L123.191 79.26V81.5H125.175V83.164ZM128.374 79.98C128.161 80.1933 127.905 80.3 127.606 80.3C127.308 80.3 127.046 80.1933 126.822 79.98C126.609 79.756 126.502 79.4947 126.502 79.196C126.502 78.8973 126.609 78.6413 126.822 78.428C127.036 78.204 127.297 78.092 127.606 78.092C127.916 78.092 128.177 78.204 128.39 78.428C128.604 78.6413 128.71 78.8973 128.71 79.196C128.71 79.4947 128.598 79.756 128.374 79.98ZM126.742 89.5V81.5H128.47V89.5H126.742ZM135.901 81.5H137.789L134.669 89.5H132.669L129.549 81.5H131.437L133.677 87.58L135.901 81.5ZM139.931 86.236C140.059 86.844 140.352 87.3133 140.811 87.644C141.269 87.964 141.829 88.124 142.491 88.124C143.408 88.124 144.096 87.7933 144.555 87.132L145.979 87.964C145.189 89.1267 144.021 89.708 142.475 89.708C141.173 89.708 140.123 89.3133 139.323 88.524C138.523 87.724 138.123 86.716 138.123 85.5C138.123 84.3053 138.517 83.308 139.307 82.508C140.096 81.6973 141.109 81.292 142.347 81.292C143.52 81.292 144.48 81.7027 145.227 82.524C145.984 83.3453 146.363 84.3427 146.363 85.516C146.363 85.6973 146.341 85.9373 146.299 86.236H139.931ZM139.914 84.828H144.619C144.501 84.1773 144.229 83.6867 143.803 83.356C143.387 83.0253 142.896 82.86 142.331 82.86C141.691 82.86 141.157 83.036 140.731 83.388C140.304 83.74 140.032 84.22 139.914 84.828ZM158.379 89.5L156.011 85.42H153.835V89.5H151.995V78.3H156.475C157.478 78.3 158.326 78.652 159.019 79.356C159.723 80.0493 160.075 80.8973 160.075 81.9C160.075 82.6147 159.867 83.2707 159.451 83.868C159.046 84.4547 158.512 84.8813 157.851 85.148L160.395 89.5H158.379ZM153.835 80.028V83.772H156.475C156.966 83.772 157.382 83.5907 157.723 83.228C158.064 82.8653 158.235 82.4227 158.235 81.9C158.235 81.3773 158.064 80.9347 157.723 80.572C157.382 80.2093 156.966 80.028 156.475 80.028H153.835ZM162.634 86.236C162.762 86.844 163.055 87.3133 163.514 87.644C163.972 87.964 164.532 88.124 165.194 88.124C166.111 88.124 166.799 87.7933 167.258 87.132L168.682 87.964C167.892 89.1267 166.724 89.708 165.178 89.708C163.876 89.708 162.826 89.3133 162.026 88.524C161.226 87.724 160.826 86.716 160.826 85.5C160.826 84.3053 161.22 83.308 162.01 82.508C162.799 81.6973 163.812 81.292 165.05 81.292C166.223 81.292 167.183 81.7027 167.93 82.524C168.687 83.3453 169.066 84.3427 169.066 85.516C169.066 85.6973 169.044 85.9373 169.002 86.236H162.634ZM162.618 84.828H167.322C167.204 84.1773 166.932 83.6867 166.506 83.356C166.09 83.0253 165.599 82.86 165.034 82.86C164.394 82.86 163.86 83.036 163.434 83.388C163.007 83.74 162.735 84.22 162.618 84.828ZM175.698 81.5H177.586L174.466 89.5H172.466L169.346 81.5H171.234L173.474 87.58L175.698 81.5ZM180.312 79.98C180.099 80.1933 179.843 80.3 179.544 80.3C179.245 80.3 178.984 80.1933 178.76 79.98C178.547 79.756 178.44 79.4947 178.44 79.196C178.44 78.8973 178.547 78.6413 178.76 78.428C178.973 78.204 179.235 78.092 179.544 78.092C179.853 78.092 180.115 78.204 180.328 78.428C180.541 78.6413 180.648 78.8973 180.648 79.196C180.648 79.4947 180.536 79.756 180.312 79.98ZM178.68 89.5V81.5H180.408V89.5H178.68ZM183.774 86.236C183.902 86.844 184.196 87.3133 184.654 87.644C185.113 87.964 185.673 88.124 186.334 88.124C187.252 88.124 187.94 87.7933 188.398 87.132L189.822 87.964C189.033 89.1267 187.865 89.708 186.318 89.708C185.017 89.708 183.966 89.3133 183.166 88.524C182.366 87.724 181.966 86.716 181.966 85.5C181.966 84.3053 182.361 83.308 183.15 82.508C183.94 81.6973 184.953 81.292 186.19 81.292C187.364 81.292 188.324 81.7027 189.07 82.524C189.828 83.3453 190.206 84.3427 190.206 85.516C190.206 85.6973 190.185 85.9373 190.142 86.236H183.774ZM183.758 84.828H188.462C188.345 84.1773 188.073 83.6867 187.646 83.356C187.23 83.0253 186.74 82.86 186.174 82.86C185.534 82.86 185.001 83.036 184.574 83.388C184.148 83.74 183.876 84.22 183.758 84.828ZM200.63 81.5H202.454L199.942 89.5H198.246L196.582 84.108L194.902 89.5H193.206L190.694 81.5H192.518L194.07 87.02L195.75 81.5H197.398L199.062 87.02L200.63 81.5ZM204.794 83.708C204.794 83.9747 204.938 84.188 205.226 84.348C205.525 84.4973 205.882 84.6307 206.298 84.748C206.725 84.8547 207.152 84.9827 207.578 85.132C208.005 85.2813 208.362 85.5373 208.65 85.9C208.949 86.252 209.098 86.7 209.098 87.244C209.098 88.012 208.8 88.6147 208.202 89.052C207.616 89.4893 206.874 89.708 205.978 89.708C205.189 89.708 204.512 89.5427 203.946 89.212C203.381 88.8813 202.97 88.4227 202.714 87.836L204.202 86.972C204.48 87.74 205.072 88.124 205.978 88.124C206.885 88.124 207.338 87.8253 207.338 87.228C207.338 86.972 207.189 86.764 206.89 86.604C206.602 86.444 206.245 86.3107 205.818 86.204C205.402 86.0867 204.981 85.9533 204.554 85.804C204.128 85.6547 203.765 85.4093 203.466 85.068C203.178 84.716 203.034 84.2733 203.034 83.74C203.034 83.004 203.312 82.412 203.866 81.964C204.432 81.516 205.13 81.292 205.962 81.292C206.624 81.292 207.21 81.4413 207.722 81.74C208.245 82.028 208.645 82.4333 208.922 82.956L207.466 83.772C207.189 83.164 206.688 82.86 205.962 82.86C205.632 82.86 205.354 82.9347 205.13 83.084C204.906 83.2227 204.794 83.4307 204.794 83.708Z" fill="#0D0E10"/>
</g>
<defs>
<filter id="filter0_d_251_4646" x="0" y="0" width="262" height="149" filterUnits="userSpaceOnUse" color-interpolation-filters="sRGB">
<feFlood flood-opacity="0" result="BackgroundImageFix"/>
<feColorMatrix in="SourceAlpha" type="matrix" values="0 0 0 0 0 0 0 0 0 0 0 0 0 0 0 0 0 0 127 0" result="hardAlpha"/>
<feOffset dy="2"/>
<feGaussianBlur stdDeviation="16"/>
<feComposite in2="hardAlpha" operator="out"/>
<feColorMatrix type="matrix" values="0 0 0 0 0 0 0 0 0 0 0 0 0 0 0 0 0 0 0.08 0"/>
<feBlend mode="normal" in2="BackgroundImageFix" result="effect1_dropShadow_251_4646"/>
<feBlend mode="normal" in="SourceGraphic" in2="effect1_dropShadow_251_4646" result="shape"/>
</filter>
<clipPath id="clip0_251_4646">
<rect width="20" height="20" fill="white" transform="translate(69 47.5)"/>
</clipPath>
<clipPath id="clip1_251_4646">
<rect width="20" height="20" fill="white" transform="translate(95 47.5)"/>
</clipPath>
<clipPath id="clip2_251_4646">
<rect width="20" height="20" fill="white" transform="translate(121 47.5)"/>
</clipPath>
<clipPath id="clip3_251_4646">
<rect width="20" height="20" fill="white" transform="translate(147 47.5)"/>
</clipPath>
<clipPath id="clip4_251_4646">
<rect width="20" height="20" fill="white" transform="translate(173 47.5)"/>
</clipPath>
</defs>
</svg>
