<svg width="103" height="32" viewBox="0 0 103 32" fill="none" xmlns="http://www.w3.org/2000/svg">
<path d="M60.4502 9.436V11.47H55.2122V14.692H59.2262V16.69H55.2122V22H52.6922V9.436H60.4502ZM71.7771 12.028L65.6031 26.716H62.9211L65.0811 21.748L61.0851 12.028H63.9111L66.4851 18.994L69.0951 12.028H71.7771ZM78.6616 11.884C79.8496 11.884 80.8096 12.262 81.5416 13.018C82.2736 13.762 82.6396 14.806 82.6396 16.15V22H80.1196V16.492C80.1196 15.7 79.9216 15.094 79.5256 14.674C79.1296 14.242 78.5896 14.026 77.9056 14.026C77.2096 14.026 76.6576 14.242 76.2496 14.674C75.8536 15.094 75.6556 15.7 75.6556 16.492V22H73.1356V12.028H75.6556V13.27C75.9916 12.838 76.4176 12.502 76.9336 12.262C77.4616 12.01 78.0376 11.884 78.6616 11.884ZM87.5559 13.576C87.8799 13.048 88.2999 12.634 88.8159 12.334C89.3439 12.034 89.9439 11.884 90.6159 11.884V14.53H89.9499C89.1579 14.53 88.5579 14.716 88.1499 15.088C87.7539 15.46 87.5559 16.108 87.5559 17.032V22H85.0359V12.028H87.5559V13.576ZM96.7413 22.162C95.7813 22.162 94.9173 21.952 94.1493 21.532C93.3813 21.1 92.7753 20.494 92.3313 19.714C91.8993 18.934 91.6833 18.034 91.6833 17.014C91.6833 15.994 91.9053 15.094 92.3493 14.314C92.8053 13.534 93.4233 12.934 94.2033 12.514C94.9833 12.082 95.8533 11.866 96.8133 11.866C97.7733 11.866 98.6433 12.082 99.4233 12.514C100.203 12.934 100.815 13.534 101.259 14.314C101.715 15.094 101.943 15.994 101.943 17.014C101.943 18.034 101.709 18.934 101.241 19.714C100.785 20.494 100.161 21.1 99.3693 21.532C98.5893 21.952 97.7133 22.162 96.7413 22.162ZM96.7413 19.966C97.1973 19.966 97.6233 19.858 98.0193 19.642C98.4273 19.414 98.7513 19.078 98.9913 18.634C99.2313 18.19 99.3513 17.65 99.3513 17.014C99.3513 16.066 99.0993 15.34 98.5953 14.836C98.1033 14.32 97.4973 14.062 96.7773 14.062C96.0573 14.062 95.4513 14.32 94.9593 14.836C94.4793 15.34 94.2393 16.066 94.2393 17.014C94.2393 17.962 94.4733 18.694 94.9413 19.21C95.4213 19.714 96.0213 19.966 96.7413 19.966Z" fill="#383E54"/>
<g clip-path="url(#clip0_251_6061)">
<path d="M13.4913 1.64062H30.7314L18.0565 20.4902H0.816406L13.4913 1.64062Z" fill="#5978FF"/>
<path d="M14.2452 22.2361L9.33594 29.5371H27.3938L40.0687 10.6875H26.7409L18.9752 22.2361H14.2452Z" fill="#F8971F"/>
</g>
<defs>
<clipPath id="clip0_251_6061">
<rect width="40.8889" height="32" fill="white"/>
</clipPath>
</defs>
</svg>
