<svg width="412" height="34" viewBox="0 0 412 34" fill="none" xmlns="http://www.w3.org/2000/svg">
<path d="M406.998 3.22166C404.234 2.78532 401.555 3.10949 398.881 3.21582C395.893 3.33382 392.906 3.49201 389.923 3.68586C385.774 3.95492 381.625 4.24085 377.483 4.58901C376.291 4.68885 375.971 5.47204 376.762 6.32526C378.385 8.07514 380.223 9.58383 382.512 10.6601C382.553 13.199 383.577 15.6374 384.088 18.1822C384.236 18.9219 384.25 19.6883 384.39 20.4306C384.576 21.4206 385.039 21.691 386.029 21.4291C388.442 20.7904 390.755 19.8627 393.106 19.047C393.759 18.8208 394.32 18.8409 394.962 19.1171C397.077 20.0299 399.213 20.9 401.354 21.7545C402.545 22.2298 402.783 22.1234 402.996 20.9201C403.388 18.7028 404.055 16.5639 404.776 14.4373C405.809 11.3921 406.155 8.2262 406.413 5.05516C406.468 4.38607 407.036 3.94585 406.998 3.22166ZM404.902 4.23955C404.901 4.5501 404.678 4.64411 404.527 4.77702C401.8 7.14606 399.135 9.57865 396.508 12.056C394.795 13.6716 392.929 15.1751 390.722 16.0699C389.509 16.562 388.549 17.2784 387.607 18.094C386.888 18.717 386.171 19.3427 385.362 20.0461C385.176 16.7188 383.604 13.8765 383.135 10.7794C386.866 9.73101 390.451 8.55038 394.025 7.33344C397.589 6.12039 401.178 4.97347 404.902 4.23955ZM404.851 5.91293C404.581 11.1094 402.641 15.9337 401.973 21.1081C398.478 19.5087 395.078 17.915 391.243 16.8206C396.587 13.9141 400.429 9.57412 404.851 5.91293ZM377.376 5.32423C385.828 4.90086 394.039 4.48981 402.475 4.06709C402.049 4.23112 401.838 4.34004 401.613 4.3945C396.11 5.72814 390.731 7.47477 385.346 9.18964C383.778 9.68886 382.441 10.013 381.315 8.49333C381.176 8.30531 380.928 8.19639 380.732 8.04792C379.659 7.23749 378.544 6.47504 377.376 5.32423ZM386.993 20.1233C388.004 19.2338 388.874 18.4797 389.729 17.7089C389.965 17.4956 390.22 17.4547 390.495 17.5416C391.251 17.7802 392.002 18.0382 392.927 18.3462C390.893 18.955 389.036 19.5113 386.993 20.1233Z" fill="#5978FF"/>
<path d="M385.955 23.9551C385.5 24.0932 385.239 24.4031 384.966 24.6845C383.254 26.446 381.36 27.9968 379.335 29.396C378.957 29.6566 378.554 29.8822 378.171 30.1357C377.936 30.2913 377.498 30.3607 377.673 30.764C377.856 31.188 378.214 30.939 378.463 30.8132C381.373 29.3441 384.009 27.5333 385.957 24.8868C386.115 24.6715 386.349 24.4627 386.197 24.1567C386.151 24.0653 386.025 24.0115 385.955 23.9551Z" fill="#5978FF"/>
<path d="M373.998 24.9859C373.998 25.24 374.14 25.3904 374.397 25.3288C374.6 25.2802 374.792 25.1629 374.971 25.0494C376.989 23.7722 379.006 22.4924 381.018 21.206C381.511 20.8909 381.965 20.5181 382.275 20.0202C382.438 19.7589 382.519 19.4374 382.229 19.1929C381.967 18.9725 381.693 19.0924 381.478 19.2818C379.245 21.2456 376.726 22.8334 374.32 24.569C374.17 24.6779 373.997 24.7609 373.998 24.9859Z" fill="#5978FF"/>
<path d="M383.387 21.5098C383.013 21.5286 382.779 21.786 382.535 22.0116C380.807 23.6097 379.186 25.3207 377.343 26.7977C376.961 27.1037 376.566 27.3948 376.169 27.682C375.986 27.8149 375.797 27.9511 375.925 28.1948C376.098 28.5222 376.348 28.318 376.557 28.2298C376.725 28.1592 376.88 28.0522 377.03 27.9472C379.349 26.3257 381.461 24.4714 383.411 22.4382C383.596 22.245 383.832 22.0537 383.748 21.7386C383.703 21.5752 383.549 21.5227 383.387 21.5098Z" fill="#5978FF"/>
<path d="M11.707 20.707C11.512 20.902 11.256 21 11 21C10.744 21 10.488 20.902 10.293 20.707L6.293 16.707C5.902 16.316 5.902 15.684 6.293 15.293C6.684 14.902 7.316 14.902 7.707 15.293L11 18.586L19.35 10.236C17.523 8.251 14.911 7 12 7C6.477 7 2 11.477 2 17C2 22.523 6.477 27 12 27C17.523 27 22 22.523 22 17C22 15.115 21.469 13.358 20.562 11.852L11.707 20.707Z" fill="#008545"/>
<path d="M40.644 22L36.144 9.4H37.944L41.598 19.912L45.234 9.4H47.052L42.534 22H40.644ZM48.3934 18.22C48.5494 19.024 48.9154 19.648 49.4914 20.092C50.0794 20.536 50.7994 20.758 51.6514 20.758C52.8394 20.758 53.7034 20.32 54.2434 19.444L55.5754 20.2C54.6994 21.556 53.3794 22.234 51.6154 22.234C50.1874 22.234 49.0234 21.79 48.1234 20.902C47.2354 20.002 46.7914 18.868 46.7914 17.5C46.7914 16.144 47.2294 15.016 48.1054 14.116C48.9814 13.216 50.1154 12.766 51.5074 12.766C52.8274 12.766 53.9014 13.234 54.7294 14.17C55.5694 15.094 55.9894 16.21 55.9894 17.518C55.9894 17.746 55.9714 17.98 55.9354 18.22H48.3934ZM51.5074 14.242C50.6674 14.242 49.9714 14.482 49.4194 14.962C48.8674 15.43 48.5254 16.06 48.3934 16.852H54.4054C54.2734 16 53.9374 15.352 53.3974 14.908C52.8574 14.464 52.2274 14.242 51.5074 14.242ZM59.3556 14.512C59.8716 13.396 60.8076 12.838 62.1636 12.838V14.476C61.3956 14.44 60.7356 14.644 60.1836 15.088C59.6316 15.532 59.3556 16.246 59.3556 17.23V22H57.7896V13H59.3556V14.512ZM64.4878 11.362C64.1878 11.362 63.9358 11.26 63.7318 11.056C63.5278 10.852 63.4258 10.606 63.4258 10.318C63.4258 10.03 63.5278 9.784 63.7318 9.58C63.9358 9.364 64.1878 9.256 64.4878 9.256C64.7758 9.256 65.0218 9.364 65.2258 9.58C65.4298 9.784 65.5318 10.03 65.5318 10.318C65.5318 10.606 65.4298 10.852 65.2258 11.056C65.0218 11.26 64.7758 11.362 64.4878 11.362ZM63.6958 22V13H65.2618V22H63.6958ZM74.7969 13V22H73.2309V14.512H69.9009V22H68.3349V14.512H66.8949V13H68.3349V12.73C68.3349 10.354 69.6489 9.166 72.2769 9.166C72.7689 9.166 73.3869 9.244 74.1309 9.4V10.822C73.3989 10.726 72.7809 10.678 72.2769 10.678C71.4609 10.678 70.8609 10.834 70.4769 11.146C70.0929 11.446 69.9009 11.974 69.9009 12.73V13H74.7969ZM78.2938 18.22C78.4498 19.024 78.8158 19.648 79.3918 20.092C79.9798 20.536 80.6998 20.758 81.5518 20.758C82.7398 20.758 83.6038 20.32 84.1438 19.444L85.4758 20.2C84.5998 21.556 83.2798 22.234 81.5158 22.234C80.0878 22.234 78.9238 21.79 78.0238 20.902C77.1358 20.002 76.6918 18.868 76.6918 17.5C76.6918 16.144 77.1298 15.016 78.0058 14.116C78.8818 13.216 80.0158 12.766 81.4078 12.766C82.7278 12.766 83.8018 13.234 84.6298 14.17C85.4698 15.094 85.8898 16.21 85.8898 17.518C85.8898 17.746 85.8718 17.98 85.8358 18.22H78.2938ZM81.4078 14.242C80.5678 14.242 79.8718 14.482 79.3198 14.962C78.7678 15.43 78.4258 16.06 78.2938 16.852H84.3058C84.1738 16 83.8378 15.352 83.2978 14.908C82.7578 14.464 82.1278 14.242 81.4078 14.242ZM95.1244 9.4H96.6904V22H95.1244V20.452C94.3444 21.64 93.2104 22.234 91.7224 22.234C90.4624 22.234 89.3884 21.778 88.5004 20.866C87.6124 19.942 87.1684 18.82 87.1684 17.5C87.1684 16.18 87.6124 15.064 88.5004 14.152C89.3884 13.228 90.4624 12.766 91.7224 12.766C93.2104 12.766 94.3444 13.36 95.1244 14.548V9.4ZM91.9204 20.722C92.8324 20.722 93.5944 20.416 94.2064 19.804C94.8184 19.18 95.1244 18.412 95.1244 17.5C95.1244 16.588 94.8184 15.826 94.2064 15.214C93.5944 14.59 92.8324 14.278 91.9204 14.278C91.0204 14.278 90.2644 14.59 89.6524 15.214C89.0404 15.826 88.7344 16.588 88.7344 17.5C88.7344 18.412 89.0404 19.18 89.6524 19.804C90.2644 20.416 91.0204 20.722 91.9204 20.722ZM112.023 22L110.997 19.174H105.327L104.301 22H102.519L107.217 9.4H109.107L113.805 22H112.023ZM105.903 17.608H110.421L108.153 11.398L105.903 17.608ZM122.37 9.4H123.936V22H122.37V20.452C121.59 21.64 120.456 22.234 118.968 22.234C117.708 22.234 116.634 21.778 115.746 20.866C114.858 19.942 114.414 18.82 114.414 17.5C114.414 16.18 114.858 15.064 115.746 14.152C116.634 13.228 117.708 12.766 118.968 12.766C120.456 12.766 121.59 13.36 122.37 14.548V9.4ZM119.166 20.722C120.078 20.722 120.84 20.416 121.452 19.804C122.064 19.18 122.37 18.412 122.37 17.5C122.37 16.588 122.064 15.826 121.452 15.214C120.84 14.59 120.078 14.278 119.166 14.278C118.266 14.278 117.51 14.59 116.898 15.214C116.286 15.826 115.98 16.588 115.98 17.5C115.98 18.412 116.286 19.18 116.898 19.804C117.51 20.416 118.266 20.722 119.166 20.722ZM132.609 13H134.301L130.701 22H128.865L125.265 13H126.957L129.783 20.326L132.609 13ZM136.418 11.362C136.118 11.362 135.866 11.26 135.662 11.056C135.458 10.852 135.356 10.606 135.356 10.318C135.356 10.03 135.458 9.784 135.662 9.58C135.866 9.364 136.118 9.256 136.418 9.256C136.706 9.256 136.952 9.364 137.156 9.58C137.36 9.784 137.462 10.03 137.462 10.318C137.462 10.606 137.36 10.852 137.156 11.056C136.952 11.26 136.706 11.362 136.418 11.362ZM135.625 22V13H137.192V22H135.625ZM140.913 15.43C140.913 15.778 141.087 16.06 141.435 16.276C141.783 16.48 142.203 16.648 142.695 16.78C143.187 16.9 143.679 17.044 144.171 17.212C144.663 17.368 145.083 17.644 145.431 18.04C145.779 18.424 145.953 18.922 145.953 19.534C145.953 20.35 145.635 21.004 144.999 21.496C144.375 21.988 143.571 22.234 142.587 22.234C141.711 22.234 140.961 22.042 140.337 21.658C139.713 21.274 139.269 20.764 139.005 20.128L140.355 19.354C140.499 19.786 140.769 20.128 141.165 20.38C141.561 20.632 142.035 20.758 142.587 20.758C143.103 20.758 143.529 20.662 143.865 20.47C144.201 20.266 144.369 19.954 144.369 19.534C144.369 19.186 144.195 18.91 143.847 18.706C143.499 18.49 143.079 18.322 142.587 18.202C142.095 18.07 141.603 17.92 141.111 17.752C140.619 17.584 140.199 17.308 139.851 16.924C139.503 16.54 139.329 16.048 139.329 15.448C139.329 14.668 139.629 14.026 140.229 13.522C140.841 13.018 141.603 12.766 142.515 12.766C143.247 12.766 143.895 12.934 144.459 13.27C145.035 13.594 145.467 14.05 145.755 14.638L144.441 15.376C144.117 14.608 143.475 14.224 142.515 14.224C142.071 14.224 141.693 14.332 141.381 14.548C141.069 14.752 140.913 15.046 140.913 15.43ZM155.157 20.866C154.233 21.778 153.111 22.234 151.791 22.234C150.471 22.234 149.349 21.778 148.425 20.866C147.513 19.954 147.057 18.832 147.057 17.5C147.057 16.168 147.513 15.046 148.425 14.134C149.349 13.222 150.471 12.766 151.791 12.766C153.111 12.766 154.233 13.222 155.157 14.134C156.081 15.046 156.543 16.168 156.543 17.5C156.543 18.832 156.081 19.954 155.157 20.866ZM151.791 20.704C152.691 20.704 153.447 20.398 154.059 19.786C154.671 19.174 154.977 18.412 154.977 17.5C154.977 16.588 154.671 15.826 154.059 15.214C153.447 14.602 152.691 14.296 151.791 14.296C150.903 14.296 150.153 14.602 149.541 15.214C148.929 15.826 148.623 16.588 148.623 17.5C148.623 18.412 148.929 19.174 149.541 19.786C150.153 20.398 150.903 20.704 151.791 20.704ZM159.955 14.512C160.471 13.396 161.407 12.838 162.763 12.838V14.476C161.995 14.44 161.335 14.644 160.783 15.088C160.231 15.532 159.955 16.246 159.955 17.23V22H158.389V13H159.955V14.512ZM165.311 15.43C165.311 15.778 165.485 16.06 165.833 16.276C166.181 16.48 166.601 16.648 167.093 16.78C167.585 16.9 168.077 17.044 168.569 17.212C169.061 17.368 169.481 17.644 169.829 18.04C170.177 18.424 170.351 18.922 170.351 19.534C170.351 20.35 170.033 21.004 169.397 21.496C168.773 21.988 167.969 22.234 166.985 22.234C166.109 22.234 165.359 22.042 164.735 21.658C164.111 21.274 163.667 20.764 163.403 20.128L164.753 19.354C164.897 19.786 165.167 20.128 165.563 20.38C165.959 20.632 166.433 20.758 166.985 20.758C167.501 20.758 167.927 20.662 168.263 20.47C168.599 20.266 168.767 19.954 168.767 19.534C168.767 19.186 168.593 18.91 168.245 18.706C167.897 18.49 167.477 18.322 166.985 18.202C166.493 18.07 166.001 17.92 165.509 17.752C165.017 17.584 164.597 17.308 164.249 16.924C163.901 16.54 163.727 16.048 163.727 15.448C163.727 14.668 164.027 14.026 164.627 13.522C165.239 13.018 166.001 12.766 166.913 12.766C167.645 12.766 168.293 12.934 168.857 13.27C169.433 13.594 169.865 14.05 170.153 14.638L168.839 15.376C168.515 14.608 167.873 14.224 166.913 14.224C166.469 14.224 166.091 14.332 165.779 14.548C165.467 14.752 165.311 15.046 165.311 15.43Z" fill="#555555"/>
<path d="M199.707 20.707C199.512 20.902 199.256 21 199 21C198.744 21 198.488 20.902 198.293 20.707L194.293 16.707C193.902 16.316 193.902 15.684 194.293 15.293C194.684 14.902 195.316 14.902 195.707 15.293L199 18.586L207.35 10.236C205.523 8.251 202.911 7 200 7C194.477 7 190 11.477 190 17C190 22.523 194.477 27 200 27C205.523 27 210 22.523 210 17C210 15.115 209.469 13.358 208.562 11.852L199.707 20.707Z" fill="#008545"/>
<path d="M225.35 9.4H227.024V22H225.35V9.4ZM234.047 12.766C235.103 12.766 235.949 13.102 236.585 13.774C237.221 14.434 237.539 15.334 237.539 16.474V22H235.973V16.564C235.973 15.832 235.775 15.268 235.379 14.872C234.983 14.464 234.437 14.26 233.741 14.26C232.961 14.26 232.331 14.506 231.851 14.998C231.371 15.478 231.131 16.222 231.131 17.23V22H229.565V13H231.131V14.296C231.767 13.276 232.739 12.766 234.047 12.766ZM241.075 15.43C241.075 15.778 241.249 16.06 241.597 16.276C241.945 16.48 242.365 16.648 242.857 16.78C243.349 16.9 243.841 17.044 244.333 17.212C244.825 17.368 245.245 17.644 245.593 18.04C245.941 18.424 246.115 18.922 246.115 19.534C246.115 20.35 245.797 21.004 245.161 21.496C244.537 21.988 243.733 22.234 242.749 22.234C241.873 22.234 241.123 22.042 240.499 21.658C239.875 21.274 239.431 20.764 239.167 20.128L240.517 19.354C240.661 19.786 240.931 20.128 241.327 20.38C241.723 20.632 242.197 20.758 242.749 20.758C243.265 20.758 243.691 20.662 244.027 20.47C244.363 20.266 244.531 19.954 244.531 19.534C244.531 19.186 244.357 18.91 244.009 18.706C243.661 18.49 243.241 18.322 242.749 18.202C242.257 18.07 241.765 17.92 241.273 17.752C240.781 17.584 240.361 17.308 240.013 16.924C239.665 16.54 239.491 16.048 239.491 15.448C239.491 14.668 239.791 14.026 240.391 13.522C241.003 13.018 241.765 12.766 242.677 12.766C243.409 12.766 244.057 12.934 244.621 13.27C245.197 13.594 245.629 14.05 245.917 14.638L244.603 15.376C244.279 14.608 243.637 14.224 242.677 14.224C242.233 14.224 241.855 14.332 241.543 14.548C241.231 14.752 241.075 15.046 241.075 15.43ZM252.514 14.512H250.12V19.39C250.12 19.834 250.204 20.152 250.372 20.344C250.552 20.524 250.822 20.62 251.182 20.632C251.542 20.632 251.986 20.62 252.514 20.596V22C251.146 22.18 250.144 22.072 249.508 21.676C248.872 21.268 248.554 20.506 248.554 19.39V14.512H246.772V13H248.554V10.948L250.12 10.48V13H252.514V14.512ZM261.363 13H262.929V22H261.363V20.452C260.583 21.64 259.449 22.234 257.961 22.234C256.701 22.234 255.627 21.778 254.739 20.866C253.851 19.942 253.407 18.82 253.407 17.5C253.407 16.18 253.851 15.064 254.739 14.152C255.627 13.228 256.701 12.766 257.961 12.766C259.449 12.766 260.583 13.36 261.363 14.548V13ZM258.159 20.722C259.071 20.722 259.833 20.416 260.445 19.804C261.057 19.18 261.363 18.412 261.363 17.5C261.363 16.588 261.057 15.826 260.445 15.214C259.833 14.59 259.071 14.278 258.159 14.278C257.259 14.278 256.503 14.59 255.891 15.214C255.279 15.826 254.973 16.588 254.973 17.5C254.973 18.412 255.279 19.18 255.891 19.804C256.503 20.416 257.259 20.722 258.159 20.722ZM269.783 12.766C270.839 12.766 271.685 13.102 272.321 13.774C272.957 14.434 273.275 15.334 273.275 16.474V22H271.709V16.564C271.709 15.832 271.511 15.268 271.115 14.872C270.719 14.464 270.173 14.26 269.477 14.26C268.697 14.26 268.067 14.506 267.587 14.998C267.107 15.478 266.867 16.222 266.867 17.23V22H265.301V13H266.867V14.296C267.503 13.276 268.475 12.766 269.783 12.766ZM280.357 14.512H277.963V19.39C277.963 19.834 278.047 20.152 278.215 20.344C278.395 20.524 278.665 20.62 279.025 20.632C279.385 20.632 279.829 20.62 280.357 20.596V22C278.989 22.18 277.987 22.072 277.351 21.676C276.715 21.268 276.397 20.506 276.397 19.39V14.512H274.615V13H276.397V10.948L277.963 10.48V13H280.357V14.512ZM292.848 22.234C290.94 22.234 289.362 21.604 288.114 20.344C286.878 19.084 286.26 17.536 286.26 15.7C286.26 13.864 286.878 12.316 288.114 11.056C289.362 9.796 290.94 9.166 292.848 9.166C294 9.166 295.056 9.442 296.016 9.994C296.988 10.546 297.744 11.29 298.284 12.226L296.826 13.072C296.466 12.376 295.926 11.824 295.206 11.416C294.498 10.996 293.712 10.786 292.848 10.786C291.396 10.786 290.208 11.254 289.284 12.19C288.372 13.126 287.916 14.296 287.916 15.7C287.916 17.092 288.372 18.256 289.284 19.192C290.208 20.128 291.396 20.596 292.848 20.596C293.712 20.596 294.498 20.392 295.206 19.984C295.926 19.564 296.466 19.012 296.826 18.328L298.284 19.156C297.756 20.092 297.006 20.842 296.034 21.406C295.062 21.958 294 22.234 292.848 22.234ZM307.579 20.866C306.655 21.778 305.533 22.234 304.213 22.234C302.893 22.234 301.771 21.778 300.847 20.866C299.935 19.954 299.479 18.832 299.479 17.5C299.479 16.168 299.935 15.046 300.847 14.134C301.771 13.222 302.893 12.766 304.213 12.766C305.533 12.766 306.655 13.222 307.579 14.134C308.503 15.046 308.965 16.168 308.965 17.5C308.965 18.832 308.503 19.954 307.579 20.866ZM304.213 20.704C305.113 20.704 305.869 20.398 306.481 19.786C307.093 19.174 307.399 18.412 307.399 17.5C307.399 16.588 307.093 15.826 306.481 15.214C305.869 14.602 305.113 14.296 304.213 14.296C303.325 14.296 302.575 14.602 301.963 15.214C301.351 15.826 301.045 16.588 301.045 17.5C301.045 18.412 301.351 19.174 301.963 19.786C302.575 20.398 303.325 20.704 304.213 20.704ZM315.293 12.766C316.349 12.766 317.195 13.102 317.831 13.774C318.467 14.434 318.785 15.334 318.785 16.474V22H317.219V16.564C317.219 15.832 317.021 15.268 316.625 14.872C316.229 14.464 315.683 14.26 314.987 14.26C314.207 14.26 313.577 14.506 313.097 14.998C312.617 15.478 312.377 16.222 312.377 17.23V22H310.811V13H312.377V14.296C313.013 13.276 313.985 12.766 315.293 12.766ZM325.453 12.766C326.509 12.766 327.355 13.102 327.991 13.774C328.627 14.434 328.945 15.334 328.945 16.474V22H327.379V16.564C327.379 15.832 327.181 15.268 326.785 14.872C326.389 14.464 325.843 14.26 325.147 14.26C324.367 14.26 323.737 14.506 323.257 14.998C322.777 15.478 322.537 16.222 322.537 17.23V22H320.971V13H322.537V14.296C323.173 13.276 324.145 12.766 325.453 12.766ZM332.229 18.22C332.385 19.024 332.751 19.648 333.327 20.092C333.915 20.536 334.635 20.758 335.487 20.758C336.675 20.758 337.539 20.32 338.079 19.444L339.411 20.2C338.535 21.556 337.215 22.234 335.451 22.234C334.023 22.234 332.859 21.79 331.959 20.902C331.071 20.002 330.627 18.868 330.627 17.5C330.627 16.144 331.065 15.016 331.941 14.116C332.817 13.216 333.951 12.766 335.343 12.766C336.663 12.766 337.737 13.234 338.565 14.17C339.405 15.094 339.825 16.21 339.825 17.518C339.825 17.746 339.807 17.98 339.771 18.22H332.229ZM335.343 14.242C334.503 14.242 333.807 14.482 333.255 14.962C332.703 15.43 332.361 16.06 332.229 16.852H338.241C338.109 16 337.773 15.352 337.233 14.908C336.693 14.464 336.063 14.242 335.343 14.242ZM345.838 22.234C344.482 22.234 343.354 21.784 342.454 20.884C341.554 19.972 341.104 18.844 341.104 17.5C341.104 16.156 341.554 15.034 342.454 14.134C343.354 13.222 344.482 12.766 345.838 12.766C346.726 12.766 347.524 12.982 348.232 13.414C348.94 13.834 349.468 14.404 349.816 15.124L348.502 15.88C348.274 15.4 347.92 15.016 347.44 14.728C346.972 14.44 346.438 14.296 345.838 14.296C344.938 14.296 344.182 14.602 343.57 15.214C342.97 15.826 342.67 16.588 342.67 17.5C342.67 18.4 342.97 19.156 343.57 19.768C344.182 20.38 344.938 20.686 345.838 20.686C346.438 20.686 346.978 20.548 347.458 20.272C347.938 19.984 348.304 19.6 348.556 19.12L349.888 19.894C349.504 20.602 348.952 21.172 348.232 21.604C347.512 22.024 346.714 22.234 345.838 22.234ZM356.33 14.512H353.936V19.39C353.936 19.834 354.02 20.152 354.188 20.344C354.368 20.524 354.638 20.62 354.998 20.632C355.358 20.632 355.802 20.62 356.33 20.596V22C354.962 22.18 353.96 22.072 353.324 21.676C352.688 21.268 352.37 20.506 352.37 19.39V14.512H350.588V13H352.37V10.948L353.936 10.48V13H356.33V14.512Z" fill="#555555"/>
</svg>
