<svg width="425" height="425" viewBox="0 0 425 425" fill="none" xmlns="http://www.w3.org/2000/svg">
<g clip-path="url(#clip0_251_4612)">
<path d="M351.204 110.589L351.195 110.817C351.037 114.778 349.643 118.59 347.207 121.718C344.774 124.845 341.422 127.131 337.624 128.256C323.862 131.898 311.796 117.451 316.795 104.224C318.104 100.864 320.435 97.9992 323.459 96.0335C326.483 94.0673 330.048 93.0997 333.651 93.267L333.652 93.2671C342.612 93.6667 351.257 100.785 351.204 110.589Z" stroke="black"/>
<path d="M245.945 18.0215C244.977 18.185 244.073 18.6172 243.338 19.2691C242.603 19.9209 242.065 20.7661 241.787 21.7084C240.597 26.3154 246.564 30.2085 250.712 27.1846C255.561 23.6294 251.604 17.0673 245.945 18.0215ZM249.909 25.3592C247.444 27.6478 243.109 25.4272 243.599 22.4458C243.731 21.8349 244.036 21.275 244.477 20.8332C244.919 20.3914 245.479 20.0865 246.09 19.9552C249.305 19.1265 252.726 22.739 249.904 25.3592H249.909Z" fill="#1D1D1B"/>
<path d="M247.093 21.793C246.866 21.793 246.644 21.8603 246.455 21.9864C246.267 22.1125 246.12 22.2917 246.033 22.5013C245.946 22.711 245.923 22.9418 245.967 23.1643C246.012 23.3869 246.121 23.5914 246.281 23.7519C246.442 23.9124 246.646 24.0217 246.869 24.0659C247.092 24.1102 247.322 24.0875 247.532 24.0006C247.742 23.9138 247.921 23.7667 248.047 23.578C248.173 23.3893 248.24 23.1674 248.24 22.9405C248.241 22.7897 248.211 22.6404 248.154 22.501C248.096 22.3617 248.011 22.2351 247.905 22.1284C247.798 22.0218 247.672 21.9373 247.532 21.8797C247.393 21.8222 247.244 21.7927 247.093 21.793Z" fill="#1D1D1B"/>
<path d="M229.604 113.385C228.357 113.22 227.09 113.441 225.972 114.017C224.854 114.593 223.939 115.498 223.35 116.609C222.761 117.72 222.526 118.985 222.677 120.234C222.828 121.483 223.358 122.655 224.194 123.594C225.031 124.533 226.135 125.194 227.358 125.487C228.581 125.781 229.865 125.693 231.036 125.235C232.208 124.778 233.212 123.973 233.913 122.929C234.613 121.884 234.978 120.65 234.957 119.393C235.026 117.891 234.505 116.421 233.504 115.299C232.504 114.176 231.104 113.489 229.604 113.385Z" fill="#F8971F"/>
<path d="M344.268 119.851C344.585 121.262 343.871 121.317 342.177 122.293C338.314 124.511 338.246 124.702 337.791 124.396C337.337 124.09 336.871 123.78 336.412 123.476V125.75C336.412 125.942 336.336 126.127 336.2 126.262C336.064 126.398 335.88 126.475 335.688 126.475C335.495 126.475 335.311 126.398 335.175 126.262C335.039 126.127 334.963 125.942 334.963 125.75V122.138C334.964 122.011 334.998 121.886 335.061 121.776C335.125 121.666 335.215 121.575 335.325 121.51C335.434 121.446 335.559 121.411 335.686 121.41C335.812 121.408 335.938 121.439 336.049 121.5C336.763 121.972 337.462 122.444 338.174 122.915C339.719 122.021 341.255 121.139 342.802 120.244C342.662 119.565 342.325 118.943 341.833 118.455C341.519 118.127 341.18 117.824 340.82 117.547C340.658 117.441 340.545 117.275 340.506 117.085C340.466 116.896 340.502 116.699 340.607 116.536C339.66 117.56 338.507 118.373 337.223 118.919C335.939 119.465 334.554 119.733 333.159 119.704C331.765 119.676 330.392 119.352 329.131 118.754C327.871 118.157 326.751 117.298 325.847 116.236C325.757 116.304 325.67 116.375 325.585 116.449C325.605 116.582 325.585 116.717 325.53 116.839C325.474 116.962 325.384 117.065 325.271 117.137C324.299 117.754 323.593 118.711 323.29 119.821L327.921 122.492L330.046 121.077C330.157 121.013 330.283 120.979 330.411 120.98C330.539 120.98 330.665 121.014 330.776 121.079C330.887 121.144 330.978 121.237 331.042 121.348C331.105 121.46 331.137 121.586 331.136 121.715V125.327C331.126 125.513 331.045 125.688 330.91 125.815C330.775 125.943 330.596 126.015 330.41 126.015C330.224 126.015 330.045 125.943 329.91 125.815C329.775 125.688 329.694 125.513 329.684 125.327V123.053C328.365 123.923 328.114 124.277 327.559 123.974C322.26 120.945 322.047 120.954 321.854 120.491C321.221 121.417 320.647 122.382 320.137 123.381C321.781 125.238 323.801 126.726 326.063 127.745C328.325 128.765 330.777 129.293 333.258 129.295C335.739 129.297 338.192 128.773 340.455 127.758C342.719 126.742 344.741 125.258 346.389 123.404C345.861 122.122 345.146 120.925 344.268 119.851Z" fill="#5978FF"/>
<path d="M246.982 226.79L312.373 227.63C313.011 227.635 313.642 227.5 314.221 227.232C314.8 226.965 315.313 226.572 315.722 226.083L334.709 203.19C335.208 202.58 335.53 201.844 335.638 201.063C335.746 200.283 335.636 199.487 335.321 198.765C335.006 198.042 334.498 197.421 333.852 196.969C333.206 196.517 332.448 196.252 331.662 196.203L263.84 191.953L246.982 226.79ZM172.672 188.448C179.781 196.441 186.017 205.169 191.274 214.484C192.346 216.1 193.188 217.857 193.775 219.705C193.919 219.637 194.08 219.616 194.237 219.646C205.478 210.508 221.197 195.958 236.008 195.727C235.915 195.589 235.866 195.426 235.868 195.259C235.871 195.093 235.924 194.931 236.021 194.796C237.058 193.2 238.292 191.743 239.695 190.457L176.505 186.498C175.752 186.46 175.001 186.62 174.328 186.962C173.656 187.304 173.085 187.817 172.672 188.448Z" fill="#646F79"/>
<path d="M255.032 120.053C255.106 118.549 254.586 117.076 253.585 115.953C252.583 114.829 251.179 114.144 249.677 114.045C248.43 113.881 247.163 114.101 246.045 114.678C244.928 115.255 244.013 116.159 243.424 117.271C242.836 118.382 242.601 119.647 242.753 120.896C242.904 122.144 243.433 123.317 244.27 124.255C245.107 125.194 246.211 125.855 247.434 126.148C248.657 126.441 249.941 126.353 251.112 125.895C252.284 125.438 253.287 124.633 253.988 123.588C254.689 122.544 255.053 121.31 255.032 120.053ZM129.444 158.452C121.05 149.391 98.5797 143.653 77.0469 151.333C77.7814 153.566 78.5757 155.779 79.429 157.969C91.6649 150.158 115.539 153.596 129.444 158.452Z" fill="#F8971F"/>
<path d="M242.466 198.669C227.706 193.186 208.094 210.749 196.778 220.076C197.951 220.478 199.025 221.126 199.928 221.976C200.83 222.826 201.541 223.859 202.012 225.006C202.129 225.226 202.156 225.484 202.087 225.723C202.018 225.963 201.859 226.167 201.644 226.292C201.428 226.417 201.172 226.454 200.93 226.394C200.687 226.335 200.478 226.184 200.344 225.973C199.992 225.508 199.868 225.42 199.896 224.983C199.804 224.788 199.696 224.603 199.571 224.428C199.078 223.708 198.447 223.093 197.714 222.619C196.982 222.144 196.162 221.82 195.304 221.665C197.641 223.876 198.26 227.571 198.434 230.769C198.506 232.012 196.572 231.999 196.5 230.769C196.638 227.777 195.587 224.852 193.576 222.632C193.416 222.749 193.225 222.814 193.028 222.818C192.83 222.822 192.636 222.766 192.472 222.657C192.307 222.548 192.18 222.39 192.107 222.207C192.035 222.023 192.02 221.822 192.065 221.629C192.065 221.629 192.101 221.306 192.101 221.075C192.023 220.962 191.973 220.831 191.956 220.695C191.939 220.558 191.955 220.419 192.004 220.291C191.632 219.06 191.082 217.891 190.372 216.82C176.287 191.497 155.309 169.135 127.025 159.711C114.642 155.692 94.6054 152.63 82.5098 158.453C78.1375 160.517 74.5958 164.004 72.4648 168.344C88.6605 171.079 103.956 177.683 117.052 187.597C145.153 208.533 147.391 244.937 153.7 276.387C157.313 294.407 160.241 328.818 174.706 342.817C178.533 341.978 181.95 339.838 184.375 336.761C183.686 336.604 183.178 335.758 183.869 335.19C186.865 332.644 189.049 329.275 190.149 325.5C191.249 321.725 191.217 317.71 190.057 313.953C189.67 312.769 191.545 312.253 191.919 313.432C192.539 315.397 192.865 317.442 192.885 319.501C193.616 316.06 193.734 312.518 193.236 309.036C188.085 297.59 195.89 288.714 207.244 283.506C206.254 279.172 203.949 275.25 200.644 272.277C189.571 275.768 177.625 275.281 166.873 270.9C164.808 270.141 162.811 269.207 160.904 268.108C160.688 267.976 160.532 267.764 160.47 267.518C160.408 267.273 160.446 267.012 160.574 266.794C160.702 266.575 160.911 266.416 161.155 266.349C161.4 266.283 161.66 266.316 161.881 266.44C162.808 266.975 163.76 267.462 164.735 267.902C175.447 273.003 187.653 274.018 199.061 270.756C216.947 265.09 248.038 244.779 253.102 225.792C256.581 211.723 250.699 201.724 242.466 198.669Z" fill="#5978FF"/>
<path d="M343.168 105.37C343.165 105.222 343.128 105.077 343.06 104.945C342.148 103.188 340.778 101.71 339.094 100.669C337.41 99.6275 335.475 99.0621 333.495 99.0325C331.516 99.0028 329.565 99.5101 327.85 100.5C326.136 101.49 324.722 102.927 323.758 104.656C321.739 105.697 321.119 111.843 322.959 112.162C324.436 112.442 325.896 108.371 325.273 105.823C326.412 103.865 328.174 102.346 330.278 101.507C332.353 100.796 334.614 100.849 336.653 101.658C338.692 102.467 340.375 103.978 341.398 105.918C341.43 105.969 341.467 106.017 341.506 106.063C341.191 107.165 341.152 108.328 341.394 109.449C341.636 110.569 342.15 111.613 342.892 112.487C345.155 114.174 345.45 107.264 343.168 105.37Z" fill="#5978FF"/>
<path d="M273.785 120.053C273.859 118.549 273.339 117.076 272.338 115.953C271.336 114.829 269.932 114.144 268.43 114.045C267.183 113.881 265.916 114.101 264.798 114.678C263.681 115.255 262.766 116.159 262.177 117.271C261.589 118.382 261.354 119.647 261.506 120.896C261.657 122.144 262.186 123.317 263.023 124.255C263.86 125.194 264.964 125.855 266.187 126.148C267.41 126.441 268.694 126.353 269.865 125.895C271.037 125.438 272.04 124.633 272.741 123.588C273.442 122.544 273.806 121.31 273.785 120.053Z" fill="#FF2E00"/>
<path d="M81.0327 138.04C80.6715 139.325 80.6077 137.357 81.2006 148.027C83.0385 147.533 84.8976 147.122 86.7724 146.795C83.8356 144.693 81.7889 141.571 81.0327 138.04ZM136.196 73.3391C135.033 71.9398 133.794 70.6047 132.486 69.3398C128.763 75.7022 121.684 77.6721 121.051 84.3149C121.119 84.5274 122.483 88.9325 122.732 90.0928C135.389 94.7551 137.841 113.587 127.603 121.409C124.776 123.525 121.357 124.7 117.827 124.769C119.908 126.31 119.87 128.883 119.145 131.38C118.663 133.338 117.778 135.174 116.546 136.77C115.314 138.367 113.762 139.689 111.99 140.651C110.19 141.561 108.137 141.84 106.16 141.443C104.183 141.046 102.396 139.996 101.087 138.462C101.424 139.771 101.4 141.147 101.017 142.444C100.634 143.74 99.907 144.908 98.9127 145.824C108.741 145.798 118.382 148.515 126.75 153.669C126.423 150.441 126.113 147.226 125.784 143.998C125.977 145.97 142.318 136.348 143.634 135.018C148.126 130.296 151.062 124.31 152.045 117.867C154.714 101.787 146.248 85.3965 136.196 73.3391ZM255.641 222.938C260.227 219.481 263.453 214.523 264.756 208.93C264.803 208.769 264.891 208.622 265.012 208.505C265.132 208.387 265.281 208.303 265.444 208.26C265.607 208.218 265.778 208.218 265.941 208.261C266.103 208.303 266.252 208.388 266.373 208.505C267.275 209.503 268.49 210.164 269.817 210.377C270.308 210.351 270.778 210.174 271.164 209.869C271.549 209.565 271.831 209.149 271.97 208.677C272.924 206.212 271.016 203.817 269.577 202.005C267.721 200.799 265.502 200.282 263.304 200.543C263.061 200.601 262.805 200.562 262.589 200.435C262.374 200.308 262.216 200.103 262.149 199.862C262.082 199.621 262.111 199.363 262.229 199.143C262.348 198.923 262.548 198.758 262.786 198.681C265.578 198.248 268.43 198.896 270.761 200.494C272.38 201.131 274.716 201.848 275.51 199.757C275.703 198.826 275.644 197.861 275.341 196.961C275.037 196.06 274.499 195.257 273.783 194.633C273.022 193.74 272.194 192.908 271.305 192.143C269.826 191.505 268.234 191.175 266.624 191.171C265.014 191.167 263.42 191.489 261.938 192.119C261.716 192.239 261.457 192.271 261.213 192.208C260.969 192.145 260.758 191.992 260.622 191.779C260.492 191.558 260.453 191.295 260.516 191.046C260.579 190.797 260.738 190.583 260.958 190.451C262.958 189.573 265.137 189.175 267.318 189.291C262.495 186.352 256.725 185.385 251.207 186.592C245.689 187.798 240.848 191.084 237.691 195.768C249.313 196.493 258.026 207.385 255.641 222.938Z" fill="#FFCEB6"/>
<path d="M254.658 356.547C250.344 356.547 248.978 361.998 248.24 365.321C247.624 368.154 247.116 371.007 246.717 373.879C252.457 370.726 257.905 367.07 262.999 362.954C261.15 360.13 258.039 356.547 254.658 356.547ZM165.73 373.111C165.041 371.997 164.086 371.071 162.951 370.417C162.329 370.126 161.649 369.979 160.962 369.987C160.276 369.996 159.6 370.159 158.985 370.466C156.518 371.844 154.531 373.944 153.292 376.484C150.24 382.644 148.492 389.367 148.156 396.234C156.432 396.852 164.742 396.858 173.019 396.253C172.616 393.551 172.075 390.873 171.398 388.227C170.086 383.052 168.845 377.551 165.73 373.111Z" fill="#5978FF"/>
<path d="M277.37 332.422C274.59 328.2 269.55 327.82 264.546 328.676C243.888 332.195 225.675 345.513 204.571 349.163C195.421 350.746 185.221 350.929 177.726 345.442C160.551 332.932 157.704 296.384 153.698 276.413C147.4 244.963 145.151 208.557 117.05 187.624C98.7493 173.998 74.4199 164.845 51.4804 168.211C42.3895 169.554 33.3263 173.099 27.0532 179.816C5.80304 202.554 13.3702 250.579 19.9323 277.888C27.1722 307.995 40.8425 337.947 62.8301 360.186C65.2292 355.651 69.2816 354.365 72.0994 355.364C74.8322 356.331 75.9075 359.098 76.8871 361.576C78.6729 366.129 80.1635 370.792 81.3496 375.537C88.9297 380.593 97.1306 384.649 105.749 387.605C118.859 392.061 132.462 394.908 146.258 396.084C148.124 372.647 159.935 361.117 167.591 372.43C170.819 377.218 172.088 383.091 173.514 388.602C174.129 391.077 174.603 393.585 174.933 396.114C189.156 394.914 203.163 391.884 216.609 387.097C226.237 383.769 235.606 379.733 244.638 375.023C244.881 373.091 245.159 371.168 245.488 369.258C246.272 364.908 247.188 358.824 250.624 356.082C251.51 355.378 252.561 354.914 253.678 354.735C254.794 354.555 255.938 354.665 257 355.056C260.119 356.449 262.729 358.776 264.469 361.716C269.002 357.606 276.097 349.134 278.175 341.528C278.188 338.475 277.918 335.426 277.37 332.422Z" fill="#0D1226"/>
<path d="M70.2643 356.969C68.9284 357.088 67.6552 357.59 66.5965 358.413C65.5377 359.236 64.7381 360.347 64.293 361.612C68.8172 366.091 73.7092 370.182 78.9174 373.844C77.839 369.85 76.54 365.92 75.0264 362.071C74.1658 359.869 73.1033 357.003 70.2643 356.969Z" fill="#5978FF"/>
<path d="M341.506 106.054C341.074 105.302 340.559 104.6 339.971 103.963C338.785 102.633 337.228 101.688 335.501 101.248C333.774 100.809 331.954 100.896 330.277 101.498C328.159 102.313 326.39 103.839 325.272 105.814C325.505 106.88 325.485 107.986 325.214 109.043C324.944 110.101 324.43 111.08 323.715 111.904C324.175 114.065 325.347 116.01 327.044 117.425C328.742 118.84 330.865 119.643 333.074 119.707C335.283 119.77 337.449 119.09 339.224 117.775C341 116.459 342.282 114.586 342.866 112.454C342.133 111.58 341.626 110.539 341.389 109.423C341.152 108.308 341.192 107.151 341.506 106.054Z" fill="#FFCEB6"/>
<path d="M138.832 91.8469C138.832 92.5232 139.101 93.1718 139.579 93.65C140.057 94.1283 140.706 94.3969 141.382 94.3969C142.058 94.3969 142.707 94.1283 143.185 93.65C143.663 93.1718 143.932 92.5232 143.932 91.8469C143.932 91.1706 143.663 90.522 143.185 90.0438C142.707 89.5655 142.058 89.2969 141.382 89.2969C140.706 89.2969 140.057 89.5655 139.579 90.0438C139.101 90.522 138.832 91.1706 138.832 91.8469Z" fill="#1D1D1B"/>
<path d="M134.441 79.3145C134.615 79.1298 134.713 78.8854 134.713 78.6313C134.713 78.3772 134.615 78.1327 134.441 77.9481C134.259 77.7686 134.013 77.668 133.758 77.668C133.502 77.668 133.257 77.7686 133.075 77.9481C131.11 80.1911 129.998 83.0546 129.934 86.0359C129.864 86.5341 129.927 87.0418 130.114 87.5085C130.184 87.6278 130.278 87.7318 130.389 87.8144C130.5 87.897 130.626 87.9565 130.761 87.9893C130.895 88.0222 131.035 88.0278 131.171 88.0057C131.308 87.9837 131.439 87.9345 131.556 87.861C131.673 87.7875 131.775 87.6913 131.854 87.5779C131.933 87.4646 131.989 87.3365 132.018 87.2012C132.047 87.066 132.049 86.9262 132.023 86.7903C131.997 86.6544 131.944 86.525 131.867 86.4099C131.823 83.8087 132.739 81.2825 134.441 79.3145ZM131.891 86.752C131.891 86.8838 131.878 86.8604 131.878 86.7265L131.891 86.752ZM141.077 111.732C142.274 112.928 143.818 113.716 145.489 113.983C147.16 114.25 148.873 113.983 150.383 113.219C150.498 113.158 150.599 113.075 150.681 112.974C150.762 112.874 150.823 112.757 150.859 112.632C150.895 112.508 150.905 112.377 150.889 112.248C150.873 112.119 150.831 111.995 150.766 111.883C150.701 111.77 150.614 111.672 150.51 111.595C150.406 111.517 150.288 111.461 150.162 111.43C150.035 111.399 149.904 111.393 149.776 111.414C149.648 111.435 149.526 111.482 149.416 111.551C148.277 112.108 146.991 112.293 145.742 112.078C144.492 111.863 143.342 111.26 142.454 110.355C142.272 110.172 142.024 110.069 141.766 110.069C141.508 110.069 141.26 110.172 141.077 110.355C140.895 110.537 140.792 110.785 140.792 111.043C140.792 111.301 140.895 111.549 141.077 111.732Z" fill="#1D1D1B"/>
<path d="M381.018 260.929C379.605 260.87 236.221 254.149 233.102 254.002C236.611 251.287 239.926 248.331 243.024 245.155C244.033 245.198 378.509 251.488 380.523 251.531C380.779 251.531 381.025 251.429 381.207 251.247C381.388 251.066 381.49 250.82 381.49 250.564C381.49 250.307 381.388 250.061 381.207 249.88C381.025 249.699 380.779 249.597 380.523 249.597C379.28 249.537 245.684 243.336 244.79 243.288C249.913 237.62 253.515 232.575 255.149 225.497C256.26 225.497 263.56 219.921 266.22 210.87C267.2 211.698 268.411 212.205 269.688 212.322C270.433 212.277 271.158 212.059 271.804 211.686C272.451 211.313 273.002 210.795 273.414 210.173C273.826 209.551 274.088 208.841 274.179 208.1C274.27 207.36 274.188 206.608 273.938 205.904C277.069 206.315 280.208 206.677 283.354 206.99C279.971 210.248 276.559 213.484 273.118 216.697C270.311 216.527 267.495 216.31 264.692 216.06C263.46 215.951 263.46 217.885 264.692 217.993C266.856 218.187 269.032 218.344 271.208 218.491C270.254 219.373 269.308 220.278 268.354 221.162C267.436 222.012 268.8 223.372 269.72 222.526C271.11 221.251 272.464 219.953 273.83 218.671C278.832 218.973 283.839 219.118 288.841 219.154C288.189 219.855 287.513 220.543 286.871 221.245C286.021 222.165 287.39 223.529 288.238 222.611C289.3 221.451 290.388 220.314 291.476 219.179C294.281 219.179 297.09 219.139 299.902 219.058C300.158 219.058 300.404 218.956 300.586 218.775C300.767 218.594 300.869 218.348 300.869 218.091C300.869 217.835 300.767 217.589 300.586 217.408C300.404 217.226 300.158 217.124 299.902 217.124C297.713 217.184 295.526 217.209 293.327 217.22C296.258 214.174 299.247 211.184 302.293 208.252C303.939 208.312 311.602 208.433 311.602 208.433C311.634 208.64 311.746 208.826 311.913 208.953C312.079 209.079 312.289 209.136 312.497 209.111C312.731 209.106 312.957 209.031 313.148 208.895C313.338 208.76 313.483 208.57 313.564 208.35C313.645 208.131 313.658 207.892 313.601 207.666C313.544 207.439 313.42 207.235 313.245 207.079C312.412 206.174 310.888 206.489 309.788 206.476C307.951 206.45 306.113 206.391 304.277 206.342C306.805 203.934 309.367 201.569 311.964 199.249C312.894 198.414 311.539 197.06 310.599 197.882C307.529 200.626 304.515 203.426 301.557 206.282C301.304 206.27 297.42 206.227 287.717 205.432C289.29 203.898 290.885 202.375 292.443 200.828C292.613 200.644 292.705 200.402 292.701 200.152C292.696 199.902 292.594 199.664 292.418 199.487C292.241 199.31 292.002 199.208 291.752 199.204C291.502 199.199 291.26 199.291 291.077 199.461C289.132 201.395 287.137 203.286 285.167 205.216C284.955 205.192 280.573 204.888 273.118 203.873C272.965 203.59 272.803 203.312 272.632 203.04C273.372 203.168 274.134 203.101 274.841 202.846C275.549 202.59 276.177 202.155 276.665 201.583C277.153 201.011 277.484 200.322 277.625 199.583C277.766 198.844 277.712 198.082 277.468 197.37C276.531 193.258 269.18 186.156 259.83 184.584V181.993C266.805 182.316 373.011 187.306 373.119 187.306C373.376 187.306 373.622 187.204 373.803 187.023C373.984 186.842 374.086 186.596 374.086 186.339C374.086 186.083 373.984 185.837 373.803 185.655C373.622 185.474 373.376 185.372 373.119 185.372C371.245 185.287 266.069 180.361 259.83 180.07C259.83 172.565 259.83 159.071 259.818 155.771C269.329 156.134 363.944 158.249 365.202 158.225C365.456 158.218 365.697 158.113 365.877 157.934C366.057 157.754 366.161 157.512 366.169 157.258C368.24 131.97 374.768 44.5663 373.094 19.0342C373.09 18.7791 372.986 18.5357 372.806 18.3553C372.626 18.1749 372.382 18.0717 372.127 18.0673C370.289 17.995 135.094 10.6297 134.199 10.6701C133.944 10.6755 133.702 10.7791 133.522 10.9593C133.341 11.1394 133.238 11.3822 133.232 11.637C133.232 13.6217 133.158 32.3942 133.081 53.536C129.669 48.3169 121.545 46.2663 116.931 50.4951C116.57 48.3199 115.551 46.3075 114.012 44.7286C112.473 43.1498 110.487 42.0801 108.322 41.6635C106.156 41.2469 103.915 41.5034 101.9 42.3985C99.885 43.2935 98.1923 44.7842 97.0496 46.6701C94.632 45.2345 91.8497 44.5317 89.0404 44.647C88.2741 44.6975 87.5361 44.9561 86.9058 45.3949C86.2756 45.8338 85.7771 46.4363 85.464 47.1376C68.6763 48.4359 53.2296 64.3991 55.0762 92.4154C56.228 110.053 63.0004 113.398 65.9138 123.26C66.7857 126.289 67.0437 129.461 66.6726 132.591C66.3015 135.721 65.3087 138.745 63.7527 141.486C62.9281 142.925 61.9039 144.58 62.4946 146.127C64.1947 150.541 77.9903 148.516 81.0482 138.042C81.8022 141.576 83.8483 144.701 86.7857 146.805C82.9767 147.483 79.2319 148.482 75.5911 149.791C75.3481 149.864 75.1423 150.027 75.0165 150.248C74.8907 150.468 74.8545 150.728 74.9154 150.975C75.7613 153.699 76.7581 156.374 77.901 158.988C74.6718 161.313 72.1075 164.443 70.4635 168.066C70.8035 168.115 72.1635 168.296 72.5077 168.344C79.1229 154.942 95.4835 154.137 110.303 155.992C145.987 160.433 172.875 185.275 190.417 216.825C190.842 217.605 192.497 220.482 192.117 221.634C192.071 221.826 192.086 222.027 192.159 222.211C192.231 222.395 192.358 222.552 192.523 222.661C192.688 222.77 192.882 222.826 193.079 222.822C193.277 222.818 193.468 222.753 193.628 222.637C195.646 224.854 196.703 227.782 196.566 230.778C196.639 232.012 198.572 232.023 198.5 230.778C198.311 227.654 197.75 223.897 195.368 221.676C199.533 222.467 199.901 227.129 201.62 226.379C201.836 226.29 202.012 226.126 202.114 225.916C202.216 225.706 202.238 225.466 202.174 225.242C201.716 224.045 201.002 222.963 200.081 222.072C199.16 221.181 198.056 220.501 196.845 220.082C208.32 210.59 227.713 193.199 242.533 198.675C254.463 203.137 259.32 221.61 247.116 237.656C237.958 249.665 221.404 260.985 208.135 267.209C201.961 270.467 195.152 272.343 188.181 272.708C179.031 273.031 169.963 270.885 161.929 266.495C161.708 266.38 161.452 266.354 161.213 266.422C160.974 266.49 160.77 266.648 160.644 266.862C160.518 267.076 160.479 267.331 160.536 267.573C160.592 267.815 160.739 268.026 160.947 268.163C167.471 271.692 174.65 273.844 182.04 274.485C188.339 275.115 194.701 274.38 200.691 272.332C211.455 268.297 221.586 262.741 230.775 255.834C233.48 255.955 381.001 262.868 381.084 262.87C382.272 262.887 382.272 260.978 381.018 260.929ZM285.904 207.203C290.426 207.617 294.101 207.889 299.645 208.133C296.595 211.111 293.601 214.145 290.664 217.235C285.722 217.222 280.766 217.065 275.821 216.81C279.208 213.645 282.57 210.443 285.904 207.203ZM104.927 153.537C95.8511 152.887 86.8644 153.478 79.4268 157.968C78.5768 155.779 77.7948 153.567 77.0447 151.332C81.1786 149.878 85.4511 148.853 89.7948 148.274C108.255 145.785 123.665 152.188 129.452 158.45C121.526 155.749 113.281 154.098 104.927 153.537ZM236.022 194.797C235.925 194.932 235.872 195.094 235.87 195.26C235.867 195.426 235.916 195.59 236.009 195.727C221.971 195.94 206.801 209.24 195.978 218.221C193.528 220.261 194.645 219.421 193.776 219.708C193.182 217.863 192.341 216.107 191.275 214.487C177.696 190.653 158.055 169.755 132.775 159.704C132.75 159.585 132.705 159.471 132.644 159.366C126.309 150.035 110.331 146.002 98.9451 145.828C99.9392 144.912 100.667 143.744 101.05 142.448C101.433 141.152 101.458 139.776 101.121 138.467C102.43 140.001 104.216 141.05 106.193 141.447C108.17 141.844 110.223 141.565 112.022 140.655C113.793 139.692 115.342 138.37 116.572 136.773C117.802 135.177 118.685 133.341 119.165 131.384C119.9 128.834 119.925 126.371 117.849 124.773C132.495 124.369 138.037 108.036 131.048 96.9608C129.149 93.7948 126.225 91.3729 122.76 90.097C121.8 86.7309 122.104 87.6256 121.081 84.319C121.719 77.6805 128.693 75.8423 132.514 69.344C133.381 70.2344 133.931 70.7593 134.985 71.9366L135.211 12.6081C156.336 12.0939 364.15 20.2582 371.215 20.0457C372.637 43.1553 367.539 114.261 365.775 137.517C364.097 137.466 195.019 132.081 147.209 130.579C146.784 131.225 146.336 131.855 145.866 132.47C191.604 133.932 363.07 139.406 365.644 139.427C364.124 158.682 364.281 155.896 364.277 156.3C335.613 156.791 158.233 148.952 134.703 148.437C134.703 146.595 134.72 143.52 134.73 140.524C134.25 140.789 133.77 141.049 133.296 141.299C132.96 143.887 132.78 146.493 132.756 149.102C132.807 149.315 132.642 150.239 133.723 150.312C135.355 150.397 216.348 154.045 225.401 154.421L227.658 178.511C219.287 178.124 163.96 175.55 163.856 175.548C163.618 175.569 163.396 175.678 163.234 175.854C163.072 176.03 162.981 176.26 162.979 176.499C162.978 176.738 163.065 176.969 163.225 177.147C163.385 177.325 163.605 177.437 163.843 177.461C165.66 177.537 218.367 180.011 227.84 180.446L228.327 185.632C228.329 185.843 228.4 186.047 228.528 186.215C228.657 186.383 228.836 186.505 229.039 186.562C233.511 187.271 238.006 187.826 242.524 188.228C239.941 189.963 237.73 192.196 236.022 194.797ZM227.356 154.489C237.543 154.9 247.736 155.303 257.935 155.698C257.975 162.205 257.935 179.286 257.935 184.34C253.659 183.944 249.355 184.706 245.474 186.545C240.359 186.173 235.263 185.588 230.197 184.79C230.063 183.39 228.104 162.53 227.356 154.489ZM237.726 195.766C240.883 191.083 245.723 187.797 251.24 186.59C256.757 185.383 262.527 186.349 267.351 189.287C265.17 189.172 262.993 189.569 260.993 190.447C260.777 190.579 260.621 190.791 260.559 191.036C260.497 191.282 260.534 191.542 260.663 191.761C260.791 191.979 260.999 192.139 261.244 192.205C261.489 192.271 261.749 192.239 261.97 192.115C263.452 191.485 265.046 191.162 266.656 191.166C268.266 191.17 269.859 191.501 271.337 192.138C273.479 194.051 276.563 197.081 275.545 199.754C274.748 201.845 272.415 201.131 270.796 200.492C268.464 198.894 265.611 198.245 262.818 198.677C262.58 198.753 262.381 198.919 262.262 199.139C262.143 199.359 262.114 199.616 262.181 199.857C262.248 200.098 262.406 200.304 262.622 200.431C262.837 200.558 263.093 200.596 263.337 200.539C265.507 200.302 267.696 200.786 269.563 201.918C271.051 203.405 272.884 206.395 272.005 208.673C271.867 209.145 271.586 209.562 271.2 209.867C270.814 210.172 270.343 210.349 269.852 210.373C268.522 210.166 267.304 209.503 266.407 208.499C266.286 208.383 266.136 208.301 265.974 208.259C265.811 208.217 265.641 208.217 265.478 208.26C265.316 208.303 265.167 208.386 265.046 208.502C264.925 208.618 264.835 208.763 264.786 208.924C263.475 214.513 260.252 219.468 255.674 222.932C257.788 209.102 250.712 196.565 237.726 195.757V195.766Z" fill="#1D1D1B"/>
<path d="M229.421 127.55C231.446 127.342 233.324 126.398 234.699 124.896C236.074 123.395 236.85 121.441 236.879 119.405C236.945 117.646 236.403 115.917 235.344 114.51C234.285 113.104 232.774 112.104 231.065 111.681C229.539 111.251 227.92 111.275 226.407 111.75C224.894 112.226 223.553 113.133 222.547 114.359C221.541 115.585 220.915 117.078 220.744 118.655C220.574 120.232 220.867 121.824 221.588 123.237C222.351 124.623 223.493 125.765 224.879 126.529C226.266 127.292 227.841 127.647 229.421 127.55ZM229.603 113.385C231.105 113.484 232.508 114.169 233.509 115.293C234.511 116.417 235.03 117.889 234.956 119.392C234.977 120.65 234.613 121.884 233.912 122.928C233.211 123.973 232.207 124.778 231.036 125.235C229.864 125.692 228.58 125.78 227.357 125.487C226.134 125.194 225.03 124.533 224.194 123.594C223.357 122.655 222.827 121.482 222.677 120.234C222.526 118.985 222.76 117.72 223.349 116.609C223.938 115.497 224.853 114.593 225.971 114.017C227.089 113.44 228.356 113.22 229.603 113.385ZM249.498 128.203C251.523 127.995 253.401 127.05 254.776 125.549C256.15 124.047 256.926 122.093 256.954 120.058C257.023 118.298 256.482 116.568 255.422 115.161C254.363 113.753 252.851 112.755 251.14 112.333C249.614 111.905 247.996 111.93 246.484 112.406C244.972 112.882 243.632 113.789 242.626 115.015C241.621 116.24 240.995 117.733 240.824 119.309C240.653 120.885 240.946 122.476 241.665 123.889C242.428 125.276 243.569 126.418 244.956 127.181C246.343 127.945 247.918 128.299 249.498 128.203ZM249.678 114.044C251.181 114.142 252.584 114.827 253.586 115.951C254.588 117.075 255.108 118.548 255.033 120.051C255.054 121.309 254.69 122.542 253.989 123.587C253.288 124.631 252.285 125.436 251.113 125.894C249.942 126.351 248.659 126.439 247.436 126.146C246.212 125.853 245.108 125.193 244.272 124.254C243.435 123.315 242.905 122.143 242.754 120.894C242.603 119.646 242.837 118.381 243.426 117.269C244.014 116.158 244.929 115.253 246.047 114.677C247.164 114.1 248.432 113.879 249.678 114.044ZM268.255 128.203C270.281 127.995 272.159 127.051 273.534 125.549C274.91 124.048 275.685 122.093 275.714 120.058C275.78 118.298 275.238 116.57 274.179 115.163C273.12 113.756 271.609 112.757 269.9 112.333C268.374 111.902 266.755 111.926 265.241 112.402C263.728 112.878 262.387 113.784 261.381 115.011C260.375 116.237 259.749 117.73 259.579 119.307C259.41 120.884 259.703 122.476 260.425 123.889C261.187 125.276 262.328 126.418 263.714 127.182C265.101 127.946 266.675 128.3 268.255 128.203ZM268.43 114.044C269.932 114.142 271.335 114.827 272.337 115.951C273.339 117.075 273.859 118.548 273.785 120.051C273.805 121.309 273.441 122.542 272.74 123.587C272.04 124.631 271.036 125.436 269.865 125.894C268.693 126.351 267.41 126.439 266.187 126.146C264.964 125.853 263.86 125.193 263.023 124.254C262.186 123.315 261.656 122.143 261.505 120.894C261.354 119.646 261.588 118.381 262.177 117.269C262.765 116.158 263.68 115.253 264.798 114.677C265.915 114.1 267.183 113.879 268.43 114.044ZM215.823 198.56C216.101 198.736 216.248 198.711 217.225 198.632C217.482 198.632 217.727 198.53 217.909 198.349C218.09 198.168 218.192 197.922 218.192 197.665C218.192 197.409 218.09 197.163 217.909 196.982C217.727 196.8 217.482 196.699 217.225 196.699C213.842 196.531 210.457 196.348 207.072 196.18C207.737 195.528 208.379 194.85 209.054 194.21C209.224 194.027 209.317 193.785 209.312 193.535C209.307 193.285 209.206 193.046 209.029 192.869C208.852 192.693 208.614 192.591 208.364 192.586C208.114 192.582 207.871 192.674 207.688 192.844C207.386 193.146 207.072 193.447 206.77 193.751L206.757 193.775C205.984 194.525 205.236 195.298 204.473 196.059C198.006 195.732 191.544 195.402 185.086 195.069C183.841 195.007 183.841 196.941 185.086 197.002C190.936 197.304 196.786 197.602 202.637 197.897C200.37 200.192 198.138 202.52 195.941 204.882C194.296 204.786 192.656 204.685 191.021 204.58C189.776 204.508 189.789 206.442 191.021 206.514C192.084 206.574 193.146 206.648 194.224 206.707C194.152 206.792 194.067 206.865 193.994 206.95C193.161 207.868 194.515 209.234 195.361 208.314C195.807 207.819 196.279 207.347 196.738 206.852L205.187 207.36C206.432 207.432 206.419 205.498 205.187 205.426L198.478 205.027C200.71 202.655 202.977 200.317 205.278 198.014C208.753 198.199 212.291 198.379 215.823 198.56ZM316.047 340.93C315.344 299.492 297.134 271.516 256.06 273.463C243.947 274.02 225.353 276.829 213.213 281.149C206.126 283.671 198.703 287.212 194.443 293.37C192.522 296.217 191.562 299.603 191.703 303.035C191.844 306.466 193.079 309.762 195.227 312.442C196 313.409 197.32 312.079 196.593 311.076C190.773 303.041 192.369 292.618 208.136 285.284C218.974 280.218 234.172 277.649 246.1 276.291C257.656 274.986 269.403 274.61 280.512 278.629C304.022 287.095 312.628 311.248 313.907 336.429C314.386 346.084 313.892 355.762 312.432 365.317C312.22 366.537 314.077 367.057 314.294 365.835C315.593 357.599 316.179 349.267 316.047 340.93Z" fill="#1D1D1B"/>
<path d="M278.064 327.788C278.26 326.365 278.748 324.998 279.497 323.773C280.246 322.547 281.24 321.49 282.417 320.667C282.526 320.603 282.622 320.519 282.699 320.419C282.776 320.318 282.832 320.204 282.865 320.081C282.898 319.959 282.906 319.832 282.889 319.706C282.873 319.581 282.832 319.46 282.768 319.35C282.705 319.241 282.621 319.145 282.52 319.068C282.42 318.991 282.305 318.934 282.183 318.902C282.061 318.869 281.933 318.861 281.808 318.877C281.682 318.894 281.561 318.935 281.452 318.999C278.778 320.828 276.932 323.638 276.313 326.819L276.277 326.842C276.18 325.793 276.233 324.735 276.435 323.701C276.795 321.579 277.607 319.558 278.817 317.777C279.518 316.74 277.837 315.771 277.149 316.799C275.615 319.083 274.673 321.712 274.405 324.449C274.193 326.43 274.193 329.849 276.821 330.127C279.769 340.07 276.097 352.196 281.996 376.179C282.072 376.417 282.237 376.616 282.458 376.735C282.678 376.854 282.935 376.883 283.176 376.815C283.417 376.748 283.623 376.591 283.75 376.375C283.877 376.16 283.915 375.903 283.857 375.66C277.676 350.545 282.234 338.889 278.064 327.788ZM190.055 313.979C191.219 317.736 191.254 321.752 190.153 325.527C189.053 329.303 186.867 332.672 183.867 335.215C182.91 336.018 184.292 337.352 185.233 336.581C188.47 333.79 190.826 330.119 192.015 326.014C193.204 321.909 193.174 317.547 191.929 313.459C191.542 312.286 189.67 312.804 190.055 313.979ZM264.483 361.68C262.745 358.739 260.134 356.411 257.014 355.02C255.952 354.63 254.808 354.519 253.692 354.699C252.575 354.879 251.524 355.344 250.639 356.048C249.047 357.477 247.887 359.323 247.29 361.378C245.397 366.882 242.798 383.155 244.075 398.98C244.083 399.209 244.172 399.428 244.327 399.597C244.481 399.767 244.69 399.876 244.917 399.907C245.144 399.937 245.375 399.886 245.568 399.763C245.761 399.639 245.904 399.452 245.972 399.233C246.293 398.419 246.64 397.775 245.915 397.361C245.179 386.615 245.966 375.819 248.253 365.294C248.979 361.971 250.346 356.52 254.672 356.52C258.038 356.52 261.158 360.096 263.011 362.925C266.305 368.315 268.076 374.497 268.136 380.813C268.185 382.059 270.119 382.059 270.07 380.813C270.004 374.043 268.071 367.422 264.483 361.68ZM173.513 388.595C172.09 383.096 170.83 377.211 167.591 372.424C163.264 366.017 157.854 367.05 153.426 372.774C145.735 382.688 145.61 401.08 146.228 413.405C146.288 414.637 148.221 414.65 148.162 413.405C147.571 401.764 147.473 386.776 153.292 376.485C154.531 373.944 156.517 371.844 158.985 370.467C161.885 369.143 163.94 370.56 165.73 373.112C168.849 377.549 170.099 383.053 171.429 388.215C173.756 397.197 173.503 402.805 175.08 410.74C175.32 411.96 177.181 411.439 176.941 410.219C175.505 403.016 175.39 395.841 173.513 388.595ZM76.8867 361.575C75.9049 359.098 74.8318 356.331 72.099 355.364C70.8229 355.007 69.4735 355.007 68.1972 355.363C66.9209 355.719 65.7664 356.417 64.8591 357.383C62.9392 359.62 61.5729 362.278 60.8704 365.141C57.6021 375.341 57.107 386.585 56.665 397.159C56.6161 398.404 58.5499 398.404 58.5987 397.159C59.0237 386.959 60.0969 356.869 70.2502 357.007C73.0659 357.043 74.1305 359.897 75.0124 362.119C79.8506 374.427 82.5118 387.482 82.8771 400.701C82.8771 400.958 82.979 401.204 83.1603 401.385C83.3416 401.566 83.5876 401.668 83.844 401.668C84.1004 401.668 84.3463 401.566 84.5277 401.385C84.709 401.204 84.8109 400.958 84.8109 400.701C84.4428 387.3 81.762 374.064 76.8867 361.575ZM337.289 99.7879C339.67 100.776 341.658 102.522 342.946 104.756C343.337 104.293 343.601 103.736 343.71 103.139C343.819 102.543 343.77 101.928 343.568 101.356C343.267 100.641 342.711 100.062 342.008 99.7318C341.306 99.4015 340.506 99.3427 339.762 99.5669C339.791 98.9888 339.643 98.4158 339.337 97.9242C338.783 97.1996 337.512 96.8787 335.82 98.2132C335.907 97.8892 335.918 97.5497 335.853 97.2207C335.787 96.8918 335.648 96.5821 335.444 96.3156C334.409 95.3742 331.772 96.5281 330.648 97.6458C330.685 97.5533 330.701 97.454 330.696 97.3547C330.69 97.2553 330.664 97.1582 330.618 97.07C330.572 96.9817 330.508 96.9044 330.429 96.8432C330.351 96.7819 330.26 96.7383 330.164 96.7151C328.661 96.2901 324.067 99.7411 324.031 104.208C325.393 102.056 327.456 100.441 329.872 99.6358C332.288 98.8304 334.908 98.8841 337.289 99.7879ZM327.227 108.322C327.227 108.506 327.281 108.686 327.384 108.839C327.486 108.992 327.631 109.111 327.801 109.182C327.971 109.252 328.159 109.271 328.339 109.235C328.52 109.199 328.686 109.11 328.816 108.98C328.946 108.85 329.035 108.684 329.07 108.504C329.106 108.323 329.088 108.136 329.018 107.966C328.947 107.796 328.828 107.65 328.675 107.548C328.522 107.446 328.342 107.391 328.158 107.391C327.911 107.391 327.674 107.489 327.499 107.664C327.325 107.838 327.227 108.075 327.227 108.322ZM338.468 108.879C338.468 108.632 338.37 108.395 338.196 108.221C338.021 108.046 337.784 107.948 337.537 107.948C337.353 107.948 337.173 108.003 337.02 108.105C336.867 108.207 336.748 108.352 336.678 108.523C336.607 108.693 336.589 108.88 336.625 109.06C336.66 109.241 336.749 109.407 336.879 109.537C337.009 109.667 337.175 109.756 337.356 109.792C337.536 109.827 337.724 109.809 337.894 109.739C338.064 109.668 338.209 109.549 338.311 109.396C338.414 109.243 338.468 109.063 338.468 108.879ZM334.854 111.803C334.637 111.682 334.383 111.649 334.143 111.71C333.902 111.771 333.694 111.921 333.562 112.13C333.57 112.119 333.578 112.107 333.585 112.094C333.478 112.227 333.327 112.316 333.16 112.347L333.111 112.359C332.817 112.381 332.521 112.372 332.229 112.334C331.947 112.301 331.67 112.23 331.407 112.121C331.371 112.109 331.347 112.085 331.309 112.073C331.199 112.009 331.079 111.968 330.953 111.951C330.828 111.935 330.7 111.943 330.578 111.976C330.456 112.008 330.341 112.065 330.241 112.142C330.14 112.219 330.056 112.315 329.993 112.424C329.929 112.534 329.888 112.655 329.871 112.78C329.855 112.906 329.863 113.033 329.896 113.155C329.928 113.278 329.985 113.392 330.062 113.493C330.139 113.593 330.235 113.677 330.344 113.741C330.722 113.936 331.125 114.079 331.541 114.166C334.945 114.854 336.097 112.457 334.854 111.803ZM322.186 120.855C323.304 121.601 323.697 121.744 327.601 123.975C328.143 124.274 328.379 123.937 329.726 123.055V125.328C329.726 125.521 329.802 125.705 329.938 125.841C330.074 125.977 330.258 126.053 330.451 126.053C330.643 126.053 330.827 125.977 330.963 125.841C331.099 125.705 331.175 125.521 331.175 125.328V121.716C331.174 121.589 331.14 121.465 331.077 121.355C331.014 121.245 330.923 121.153 330.813 121.089C330.704 121.025 330.579 120.99 330.453 120.988C330.326 120.986 330.201 121.017 330.089 121.078C329.375 121.55 328.674 122.022 327.964 122.494L323.336 119.823C323.641 118.713 324.347 117.756 325.319 117.139C326.064 116.631 325.378 115.362 324.581 115.881C323.379 116.662 322.463 117.811 321.97 119.157C321.778 119.752 321.681 120.56 322.186 120.855ZM341.575 116.312C340.799 115.791 340.077 117.062 340.848 117.568C341.814 118.197 342.519 119.155 342.831 120.265L338.203 122.936C337.489 122.464 336.787 121.992 336.078 121.52C335.967 121.456 335.841 121.422 335.712 121.423C335.584 121.423 335.458 121.457 335.348 121.522C335.237 121.587 335.146 121.68 335.083 121.792C335.02 121.903 334.988 122.03 334.99 122.158V125.77C334.99 125.963 335.066 126.147 335.202 126.283C335.338 126.419 335.522 126.495 335.714 126.495C335.906 126.495 336.091 126.419 336.227 126.283C336.362 126.147 336.439 125.963 336.439 125.77V123.497C337.767 124.37 338.009 124.719 338.564 124.417C339.784 123.716 343.362 121.671 343.917 121.333C344.134 121.167 344.289 120.933 344.359 120.668C344.429 120.404 344.409 120.124 344.303 119.871C343.843 118.4 342.876 117.139 341.575 116.312Z" fill="#1D1D1B"/>
<path d="M250.383 75.0932C249.512 75.3999 248.558 75.3649 247.712 74.9954C242.952 82.2609 243.224 81.3811 243.698 82.2354C245.298 85.0429 246.991 87.7964 248.774 90.4911C250.373 87.1399 253.609 82.0654 253.609 81.6319C253.6 81.4172 253.832 82.0994 250.383 75.0932ZM249.131 73.3528C249.508 73.3534 249.879 73.2689 250.218 73.1055C250.557 72.9421 250.855 72.7041 251.089 72.4093C249.899 72.5524 248.696 72.5317 247.512 72.3477C247.688 72.6274 247.925 72.8634 248.206 73.0375C248.486 73.2117 248.803 73.3196 249.131 73.3528Z" fill="#F8971F"/>
<path d="M238.579 62.1177C238.825 62.053 239.087 62.0875 239.309 62.2138C239.53 62.3402 239.693 62.5483 239.763 62.7935C242.077 73.3846 257.328 72.9936 259.572 62.666C259.641 62.4203 259.805 62.2119 260.027 62.0854C260.248 61.959 260.511 61.9248 260.758 61.9902C261.106 62.1821 261.516 62.2287 261.898 62.1201C262.28 62.0115 262.605 61.7563 262.8 61.4101C262.907 61.1566 262.936 60.8768 262.883 60.6067C262.83 60.3365 262.698 60.0883 262.504 59.8936C262.309 59.699 262.061 59.5669 261.791 59.5141C261.521 59.4613 261.241 59.4904 260.987 59.5975C260.859 59.67 260.716 59.7125 260.569 59.7217C260.422 59.731 260.275 59.7068 260.139 59.651C260.003 59.5951 259.881 59.5091 259.783 59.3993C259.684 59.2895 259.612 59.1589 259.572 59.0173C256.731 47.6485 242.3 48.0522 239.822 58.7878C239.822 58.8112 239.822 58.8346 239.799 58.8707C239.73 59.1163 239.567 59.3249 239.345 59.4517C239.124 59.5785 238.862 59.6133 238.615 59.5486C238.415 59.4859 238.204 59.4696 237.997 59.5008C237.79 59.532 237.592 59.61 237.42 59.7288C237.248 59.8476 237.104 60.0041 237.001 60.1864C236.899 60.3687 236.838 60.5721 236.826 60.7811C236.815 60.9977 236.858 61.2137 236.949 61.4103C237.041 61.6069 237.179 61.7783 237.351 61.9098C237.524 62.0414 237.726 62.129 237.939 62.1652C238.153 62.2014 238.373 62.1851 238.579 62.1177Z" fill="#FFCEB6"/>
<path d="M215.143 37C214.889 37.0085 214.648 37.1131 214.469 37.2926C214.289 37.4721 214.184 37.7131 214.176 37.9669C214.14 40.0239 212 100.143 212 100.143C212.003 100.398 212.106 100.642 212.287 100.823C212.467 101.003 212.711 101.106 212.967 101.11C224.844 101.59 286.374 104.255 286.588 104.24C288.55 104.106 288.713 102.102 289.463 39.7923C289.495 38.3133 291.988 38.4748 215.143 37ZM242.955 70.5902C243.551 70.9856 244.182 71.3256 244.84 71.6059C245.165 72.4026 245.623 73.1384 246.194 73.782C245.131 75.3885 244.09 77.0077 243.038 78.6164C241.459 81.0262 240.896 81.1664 242.035 83.2086C243.933 86.5448 245.952 89.8032 248.091 92.9837C248.191 93.1427 248.333 93.2699 248.503 93.3501C248.672 93.4303 248.861 93.4601 249.047 93.4359C249.233 93.4117 249.408 93.3346 249.551 93.2137C249.694 93.0928 249.8 92.9333 249.855 92.7542C251.346 89.5838 253.009 86.4973 254.836 83.5082C255.992 81.3449 255.605 81.3045 254.424 78.9033C253.64 77.3074 252.854 75.7157 252.067 74.1283C252.764 73.5628 253.243 72.7725 253.421 71.8928C254.349 71.6023 255.238 71.2006 256.069 70.6964C262.952 74.0667 265.187 82.5392 265.882 90.2041C266.118 93.9201 266.112 97.6474 265.865 101.363L231.397 99.8751C230.891 89.2266 233.11 74.7489 242.955 70.5902ZM247.711 74.9954C248.557 75.3649 249.511 75.3998 250.382 75.0931C251.083 76.4829 252.89 80.1634 253.096 80.5863C253.228 80.8647 253.604 81.3279 253.608 81.6318C253.608 82.0568 250.38 87.1207 248.773 90.491C246.99 87.7961 245.297 85.0427 243.697 82.2353C243.234 81.4257 242.872 82.3798 247.711 74.9954ZM247.511 72.3433C248.694 72.539 249.899 72.5598 251.088 72.405C250.862 72.7089 250.566 72.9536 250.225 73.1179C249.884 73.2823 249.509 73.3614 249.13 73.3485C248.801 73.3186 248.483 73.2121 248.202 73.0376C247.921 72.8631 247.684 72.6254 247.511 72.3433ZM239.763 62.7807C239.693 62.5359 239.53 62.3281 239.309 62.2018C239.088 62.0756 238.826 62.0408 238.58 62.105C238.375 62.1721 238.157 62.1886 237.944 62.1531C237.732 62.1175 237.531 62.031 237.359 61.9008C237.187 61.7707 237.049 61.6009 236.957 61.4059C236.865 61.2109 236.822 60.9965 236.831 60.7811C236.846 60.573 236.908 60.371 237.011 60.19C237.115 60.009 237.258 59.8535 237.43 59.7352C237.601 59.6169 237.798 59.5387 238.004 59.5064C238.21 59.4741 238.42 59.4885 238.62 59.5486C238.867 59.6133 239.129 59.5785 239.351 59.4517C239.572 59.3249 239.735 59.1163 239.804 58.8707C239.814 58.8439 239.822 58.8161 239.827 58.7878C240.266 56.473 241.506 54.3865 243.329 52.8942C245.152 51.402 247.442 50.5991 249.798 50.6265C252.154 50.6539 254.425 51.5097 256.213 53.044C258.001 54.5782 259.192 56.6929 259.577 59.0173C259.618 59.1585 259.691 59.2885 259.789 59.3978C259.887 59.5071 260.009 59.5928 260.145 59.6486C260.281 59.7043 260.428 59.7287 260.574 59.7198C260.721 59.711 260.864 59.6691 260.992 59.5975C261.246 59.4904 261.526 59.4613 261.796 59.5141C262.066 59.5669 262.314 59.699 262.509 59.8936C262.703 60.0883 262.836 60.3365 262.888 60.6067C262.941 60.8768 262.912 61.1565 262.805 61.4101C262.61 61.7563 262.286 62.0115 261.903 62.1201C261.521 62.2287 261.111 62.1821 260.763 61.9902C260.516 61.9231 260.253 61.9565 260.03 62.0832C259.808 62.2098 259.645 62.4194 259.577 62.666C257.335 72.9808 242.029 73.4951 239.763 62.7935V62.7807ZM285.919 102.234L267.814 101.456C268.103 98.1912 268.136 94.9086 267.914 91.6385C267.365 83.2383 265.151 73.6821 257.809 69.4363C259.422 67.996 260.6 66.1329 261.209 64.0579C261.982 64.1404 262.758 63.9499 263.405 63.5194C264.052 63.089 264.527 62.4457 264.749 61.7012C264.87 61.1836 264.866 60.6448 264.739 60.1288C264.611 59.6128 264.364 59.1342 264.016 58.7323C263.668 58.3303 263.23 58.0162 262.738 57.8157C262.246 57.6152 261.713 57.534 261.184 57.5787C261.137 57.4087 261.101 57.2281 261.039 57.0602C262.278 52.519 260.493 47.5507 254.634 44.6586C254.047 44.3025 253.357 44.1529 252.675 44.2336C252.01 44.3781 251.455 45.1516 251.77 45.7551C247.407 44.2059 242.371 42.8587 238.486 45.804C238.195 45.9923 237.964 46.2609 237.821 46.5775C237.748 46.8548 237.761 47.1476 237.859 47.4174C237.956 47.6871 238.132 47.9211 238.365 48.0884C238.839 48.4106 239.373 48.6327 239.936 48.7407C238.534 48.6876 237.151 49.0772 235.983 49.8542C234.424 50.4675 232.971 51.3239 231.68 52.3915C231.271 52.7659 230.974 53.2472 230.824 53.7812C230.674 54.3151 230.676 54.8805 230.83 55.4133C231.508 57.2026 234.058 57.9995 236.028 58.3883C235.517 58.8105 235.151 59.3804 234.978 60.0197C234.805 60.659 234.834 61.3361 235.062 61.9579C235.29 62.5796 235.705 63.1155 236.25 63.4915C236.795 63.8676 237.444 64.0655 238.106 64.0579C238.67 66.0431 239.756 67.8414 241.249 69.2663C231.261 74.292 228.934 88.6486 229.44 99.7986C220.551 99.4161 214.17 99.1398 213.97 99.1335C214.029 97.4058 216.095 41.1417 216.11 38.9168C217.81 38.9401 287.542 40.6168 287.542 40.6168C287.085 76.8356 286.837 97.6672 285.919 102.234Z" fill="#1D1D1B"/>
<path d="M243.574 60.2906C243.768 60.2929 243.958 60.2334 244.116 60.1208C244.275 60.0082 244.393 59.8483 244.455 59.664C244.517 59.4797 244.518 59.2806 244.46 59.0953C244.401 58.9101 244.285 58.7482 244.128 58.6331C243.953 58.4895 243.73 58.4173 243.504 58.4311C243.278 58.4449 243.065 58.5436 242.909 58.7075C242.781 58.8387 242.695 59.0046 242.661 59.1845C242.627 59.3644 242.646 59.5503 242.717 59.7191C242.788 59.8878 242.907 60.032 243.06 60.1337C243.212 60.2353 243.391 60.2899 243.574 60.2906ZM254.488 59.6913C254.488 59.9382 254.586 60.1749 254.76 60.3495C254.935 60.524 255.172 60.6221 255.419 60.6221C255.665 60.6221 255.902 60.524 256.077 60.3495C256.251 60.1749 256.349 59.9382 256.349 59.6913C256.319 59.4661 256.208 59.2596 256.036 59.1101C255.865 58.9606 255.646 58.8782 255.419 58.8782C255.191 58.8782 254.972 58.9606 254.801 59.1101C254.629 59.2596 254.518 59.4661 254.488 59.6913ZM243.115 56.2701C243.282 56.3634 243.479 56.3879 243.664 56.3383C243.849 56.2887 244.007 56.1689 244.105 56.0044C244.545 55.1247 245.38 55.6814 245.858 55.4137C245.98 55.3402 246.077 55.233 246.139 55.1051C246.201 54.9772 246.224 54.8341 246.206 54.6932C246.188 54.5523 246.13 54.4196 246.038 54.3114C245.946 54.2031 245.824 54.1239 245.688 54.0834C243.654 53.6414 242.005 55.6878 243.115 56.2701ZM253.944 55.2501C254.254 55.2228 254.566 55.2739 254.851 55.3986C255.136 55.5234 255.385 55.7178 255.576 55.9641C256.103 56.6016 257.286 55.7707 256.589 54.9483C256.266 54.565 255.857 54.2634 255.395 54.0681C254.933 53.8728 254.431 53.7892 253.931 53.8242C253.834 53.8198 253.737 53.8353 253.647 53.8695C253.556 53.9038 253.473 53.9562 253.403 54.0236C253.333 54.0909 253.278 54.1718 253.241 54.2612C253.203 54.3507 253.184 54.4468 253.185 54.5438C253.186 54.6408 253.206 54.7366 253.246 54.8254C253.285 54.9142 253.342 54.994 253.413 55.0601C253.484 55.1262 253.567 55.1771 253.659 55.2098C253.75 55.2424 253.847 55.2561 253.944 55.2501ZM245.301 63.1126C245.307 63.3334 245.387 63.5458 245.527 63.7166C245.667 63.8873 245.86 64.0068 246.075 64.0561C246.144 64.5439 246.31 65.0128 246.564 65.4352C246.817 65.8577 247.152 66.225 247.55 66.5156C247.948 66.8062 248.4 67.0142 248.879 67.1272C249.359 67.2402 249.856 67.2559 250.342 67.1735C252.769 66.7485 252.558 62.8321 251.224 62.286C250.824 62.1075 250.882 62.1649 246.268 62.1224C246.01 62.1311 245.766 62.239 245.586 62.4234C245.406 62.6079 245.304 62.8548 245.301 63.1126Z" fill="#1D1D1B"/>
<path d="M403.514 175.866C405.954 175.052 409.296 175.849 415.021 172.553C416.87 171.478 419.709 169.79 419.335 167.272C418.925 164.552 415.854 163.887 413.598 164.431C409.799 165.52 406.32 167.51 403.457 170.232C403.433 169.762 403.397 169.291 403.349 168.819C404.998 164.62 410.548 161.949 413.175 155.523C414.203 152.998 415.387 148.298 411.751 147.195C407.926 146.035 405.756 150.315 404.364 153.058C403.312 155.131 402.372 157.259 401.549 159.433C401.245 158.443 400.911 157.463 400.546 156.496C398.34 150.735 393.79 147.102 391.733 148.506C390.014 149.694 390.972 154.091 391.89 156.243C393.828 160.106 396.539 163.529 399.855 166.299C400.019 166.449 400.227 166.54 400.448 166.56C400.668 166.58 400.89 166.526 401.077 166.407C401.476 169.21 401.374 168.477 401.149 169.465C397.871 167.331 394.338 165.618 390.632 164.365C390.024 164.036 389.35 163.849 388.659 163.818C387.968 163.786 387.279 163.911 386.644 164.182C386.166 164.51 385.782 164.957 385.53 165.479C385.278 166.001 385.167 166.579 385.207 167.158C385.537 172.202 395.55 177.287 401.621 174.264C401.621 174.421 401.621 174.578 401.608 174.735C400.992 175.166 400.521 175.773 400.255 176.476C399.953 177.236 400.654 177.708 401.294 177.623C401.381 177.983 401.409 178.355 401.379 178.724C402.016 178.701 402.654 178.662 403.291 178.639C403.406 177.691 403.478 176.784 403.514 175.866Z" fill="#008545"/>
<path d="M425.738 182.887C425.645 181.382 425.452 179.884 425.16 178.403C425.103 178.199 424.982 178.019 424.813 177.89C424.645 177.761 424.439 177.691 424.227 177.689C419.078 177.921 380.681 179.587 378.82 179.672C378.312 179.672 377.97 179.863 377.887 180.373C375.66 193.087 377.09 206.534 388.429 212.912C396.138 216.709 405.008 217.41 413.217 214.869C424.899 210.224 426.911 195.452 425.738 182.887Z" fill="#FF6D59"/>
<path d="M113.367 90.1896C115.681 89.3646 118.166 89.1359 120.592 89.5245C118.485 81.6806 115.657 74.0484 112.145 66.7252C107.332 56.9501 102.308 50.1118 93.0835 47.073C92.2683 46.7077 91.3855 46.5178 90.4923 46.5156C89.5991 46.5134 88.7154 46.699 87.8984 47.0602C93.4093 49.7421 98.2749 53.5841 102.162 58.3228C109.155 67.5023 113.076 78.6533 113.367 90.1896Z" fill="#5978FF"/>
<path d="M103.165 104.552C102.358 107.855 102.702 111.334 104.139 114.415C105.576 117.496 108.021 119.995 111.07 121.499C113.899 122.794 117.058 123.185 120.117 122.619C123.175 122.052 125.985 120.555 128.162 118.333C133.164 112.916 133.19 103.961 129.381 97.9328C121.343 85.5652 106.232 91.9147 103.165 104.552Z" fill="#5978FF"/>
<path d="M363.191 204.495C353.01 199.282 342.378 208.745 337.072 216.845C335.053 219.929 332.822 223.794 333.011 227.604C333.294 233.342 339.69 238.402 350.224 235.75C360.02 233.31 368.153 224.544 368.777 214.672C369.052 212.601 368.658 210.498 367.653 208.667C366.648 206.837 365.085 205.375 363.191 204.495ZM345.944 209.873C348.817 207.536 354.444 203.698 357.936 204.954C357.861 205.921 356.52 206.779 355.94 207.54C355.584 208.239 355.176 208.909 354.718 209.546C353.681 210.562 351.293 210.619 350.717 212.64C348.458 212.374 346.199 211.867 343.902 211.686C344.24 211.699 345.63 210.128 345.944 209.873ZM341.847 234.252C340.252 234.045 338.754 233.371 337.541 232.315C336.328 231.259 335.455 229.868 335.03 228.316C334.18 223.701 339.099 216.816 342.162 213.441C344.999 213.59 347.82 213.966 350.598 214.565C350.763 215.228 351.101 215.836 351.577 216.327C352.053 216.817 352.65 217.173 353.308 217.358C353.966 217.544 354.661 217.552 355.323 217.382C355.985 217.212 356.59 216.87 357.077 216.391C363.82 218.781 364.712 220.216 365.632 220.052C361.807 229.84 350.719 236.03 341.847 234.252ZM366.878 213.851C366.86 215.428 366.62 216.995 366.166 218.505C366.106 218.436 366.034 218.379 365.953 218.335C363.398 216.914 360.73 215.705 357.976 214.723C358.139 214.179 358.174 213.606 358.08 213.046C357.986 212.487 357.764 211.957 357.432 211.497C356.754 210.589 356.223 210.819 356.769 209.731C357.76 208.088 359.031 206.631 360.526 205.428C365.305 207.215 366.907 210.005 366.878 213.851Z" fill="#1D1D1B"/>
</g>
<defs>
<clipPath id="clip0_251_4612">
<rect width="425.004" height="425.004" fill="white"/>
</clipPath>
</defs>
</svg>
