<svg width="16" height="16" viewBox="0 0 16 16" fill="none" xmlns="http://www.w3.org/2000/svg">
<path d="M13.7816 10.8161C14.0736 10.7401 14.3781 10.9421 14.3996 11.2431C14.4466 11.8936 14.2651 12.4461 13.8556 12.8556C12.9056 13.8001 10.1456 14.0001 8.00056 14.0001C5.85556 14.0001 3.09556 13.8001 2.14556 12.8551C1.73606 12.4456 1.55456 11.8931 1.60156 11.2426C1.62306 10.9421 1.92756 10.7401 2.21956 10.8156C3.39906 11.1221 5.38806 11.5001 8.00056 11.5001C10.6131 11.5001 12.6021 11.1221 13.7816 10.8161ZM1.90706 9.68808C1.76556 9.64608 1.65106 9.54658 1.59356 9.41058C1.08656 8.20658 0.506056 5.93908 1.98556 3.72508C2.09556 3.55508 2.30056 3.47008 2.49556 3.51008C3.68056 3.74508 4.66556 4.48008 5.26556 5.03508C5.60056 4.11008 6.31056 2.64008 7.70006 1.60058C7.87606 1.46908 8.12506 1.46908 8.30056 1.60058C9.69056 2.64058 10.4001 4.11058 10.7351 5.03508C11.3351 4.48008 12.3201 3.74508 13.5051 3.51008C13.7001 3.47008 13.9051 3.55508 14.0151 3.72508C15.4946 5.93908 14.9141 8.20658 14.4071 9.41108C14.3496 9.54708 14.2351 9.64658 14.0936 9.68858C13.1441 9.97158 10.9846 10.5001 8.00056 10.5001C5.01656 10.5001 2.85706 9.97158 1.90706 9.68808Z" fill="#F8971F"/>
</svg>
