<svg width="16" height="16" viewBox="0 0 16 16" fill="none" xmlns="http://www.w3.org/2000/svg">
<g clip-path="url(#clip0_251_5846)">
<path d="M7.99988 1.4375C6.5879 1.4375 5.37115 2.41357 5.04263 3.76995C4.59 3.81948 4.13741 3.8758 3.68486 3.94815C2.78361 4.09224 2.01771 4.80106 1.80065 5.78285V5.78385C1.31629 7.97912 1.31629 10.1867 1.80065 12.382C2.01762 13.364 2.78266 14.0736 3.68395 14.2177C6.55979 14.6774 9.43905 14.6774 12.3149 14.2177C13.2161 14.0736 13.982 13.3648 14.1991 12.383V12.382C14.6835 10.1867 14.6835 7.97912 14.1991 5.78385C14.0916 5.29716 13.8492 4.87757 13.5225 4.56038C13.4766 4.49839 13.418 4.44895 13.3513 4.41603C13.0502 4.17526 12.6967 4.00904 12.3158 3.94815C11.863 3.87577 11.4101 3.81949 10.9571 3.76995C10.6286 2.41357 9.41186 1.4375 7.99988 1.4375ZM7.99988 2.45689C8.87738 2.45689 9.60013 2.97034 9.92346 3.67538C9.28222 3.6298 8.64109 3.6037 7.99988 3.6037C7.35867 3.6037 6.71734 3.6298 6.07629 3.67538C6.39963 2.97034 7.12237 2.45689 7.99988 2.45689ZM7.99988 4.62309C8.82342 4.62309 9.64716 4.66657 10.471 4.74455C10.5059 4.75258 10.5415 4.75625 10.5772 4.7555H10.5781C11.1118 4.80821 11.6456 4.87225 12.1794 4.95758C12.3378 4.98291 12.4862 5.04002 12.6225 5.11786C12.2414 6.55781 11.1392 7.73767 9.68816 8.26761C9.45588 7.62912 8.84152 7.11682 7.99988 7.11682C7.15656 7.11682 6.54187 7.63131 6.31068 8.2716C4.85926 7.7415 3.75971 6.55681 3.37907 5.11686C3.51512 5.03941 3.66344 4.98282 3.82128 4.95758C4.35678 4.87198 4.8919 4.80827 5.42717 4.7555C5.46161 4.75595 5.496 4.75228 5.52971 4.74455H5.53154C6.35428 4.66672 7.17713 4.62309 7.99988 4.62309ZM13.2964 6.06955C13.7372 8.0988 13.735 10.1146 13.2872 12.1441C13.164 12.7016 12.7182 13.122 12.1785 13.2083C9.39164 13.6538 6.6072 13.6538 3.82037 13.2083C3.28067 13.122 2.83589 12.7024 2.71254 12.1441C2.26483 10.1149 2.26279 8.09948 2.70339 6.07055C3.34072 7.6357 4.66535 8.83891 6.29603 9.33877C6.51375 10.0001 7.13666 10.5393 7.99988 10.5393C8.86478 10.5393 9.48811 9.99791 9.70464 9.33479C11.3337 8.83428 12.6595 7.63338 13.2964 6.06955ZM7.99988 8.13621C8.63068 8.13621 8.81591 8.44142 8.84402 8.74545C8.81119 8.83916 8.8045 8.94131 8.82479 9.03913C8.75554 9.29493 8.54119 9.51995 7.99988 9.51995C7.54448 9.51995 7.31918 9.36033 7.21708 9.15759C7.2517 9.07545 7.26561 8.98479 7.25741 8.89488C7.24921 8.80497 7.21917 8.71904 7.17038 8.6459C7.23083 8.37844 7.43842 8.13621 7.99988 8.13621Z" fill="#555555"/>
</g>
<defs>
<clipPath id="clip0_251_5846">
<rect width="14" height="14" fill="white" transform="translate(1 1)"/>
</clipPath>
</defs>
</svg>
