<svg width="41" height="45" viewBox="0 0 41 45" fill="none" xmlns="http://www.w3.org/2000/svg">
<path d="M37.5995 22.5017C35.3942 18.866 33.1505 15.3211 30.4496 12.0284C29.1895 10.4987 27.7876 9.09119 26.2917 7.79415C25.0289 6.70057 23.1699 4.86148 21.4071 5.81078C20.1917 6.46415 21.0562 7.99587 21.694 8.6824C23.2568 10.3702 25.1611 11.7626 26.7579 13.4373C29.8848 16.7102 32.4711 20.4895 35.2898 24.026C36.2612 25.2479 38.4291 23.8673 37.5995 22.5017Z" fill="#F8971F"/>
<path d="M12.1103 19.2576C14.165 20.9605 16.6752 21.9517 19.0353 23.1502C21.7243 24.51 24.3964 25.9822 27.3488 26.6768C29.0956 27.0884 30.0699 24.6607 28.3121 23.9936C25.3778 22.8803 22.634 21.4794 19.868 20.0017C17.4938 18.7344 15.1738 17.5487 12.4144 17.8229C11.6615 17.8968 11.634 18.8607 12.1103 19.2576Z" fill="#F8971F"/>
<path d="M1.88064 37.7328C1.2087 37.9817 1.42904 39.1275 2.1388 39.1264C9.4296 39.1104 17.1615 38.6469 24.1504 36.4485C25.911 35.8947 25.4894 33.0953 23.6147 33.557C16.4485 35.3218 8.85326 35.1557 1.88064 37.7328Z" fill="#F8971F"/>
</svg>
