<svg width="39" height="16" viewBox="0 0 39 16" fill="none" xmlns="http://www.w3.org/2000/svg">
<path d="M6.54692 4.47214C6.95255 3.22372 7.15537 2.59952 7.4409 2.40697C7.77881 2.1791 8.22119 2.1791 8.5591 2.40697C8.84464 2.59952 9.04745 3.22372 9.45308 4.47214C9.56657 4.82142 9.62332 4.99606 9.72405 5.12972C9.84396 5.28883 10.0087 5.40849 10.197 5.47336C10.3553 5.52786 10.5389 5.52786 10.9062 5.52786C12.2188 5.52786 12.8752 5.52786 13.1465 5.73992C13.4677 5.99088 13.6044 6.41161 13.4921 6.8034C13.3972 7.13445 12.8662 7.52024 11.8042 8.2918C11.5071 8.50766 11.3586 8.6156 11.2626 8.75271C11.1483 8.91591 11.0854 9.10953 11.0819 9.30873C11.079 9.47608 11.1357 9.65072 11.2492 10C11.6548 11.2484 11.8576 11.8726 11.7398 12.1962C11.6004 12.5792 11.2425 12.8392 10.8352 12.8535C10.491 12.8655 9.96002 12.4798 8.89806 11.7082C8.60094 11.4923 8.45238 11.3844 8.29232 11.3355C8.10179 11.2772 7.89821 11.2772 7.70768 11.3355C7.54762 11.3844 7.39906 11.4923 7.10194 11.7082C6.03998 12.4798 5.509 12.8655 5.16482 12.8535C4.75751 12.8392 4.39961 12.5792 4.26018 12.1962C4.14235 11.8726 4.34517 11.2484 4.7508 10C4.86429 9.65072 4.92104 9.47608 4.91811 9.30873C4.91462 9.10953 4.85171 8.91591 4.73744 8.75271C4.64145 8.6156 4.49289 8.50766 4.19577 8.2918C3.13381 7.52024 2.60283 7.13445 2.50794 6.8034C2.39564 6.41161 2.53235 5.99088 2.85348 5.73992C3.12484 5.52786 3.78117 5.52786 5.09383 5.52786C5.46109 5.52786 5.64472 5.52786 5.80297 5.47336C5.99134 5.40849 6.15604 5.28883 6.27595 5.12972C6.37668 4.99606 6.43343 4.82142 6.54692 4.47214Z" fill="white"/>
<path d="M20.8879 10.176V9.144L24.9199 3.36H26.5759V8.988H27.6919V10.176H26.5759V12H25.2319V10.176H20.8879ZM25.2919 4.752L22.4599 8.988H25.2919V4.752ZM29.5575 12.084C29.3095 12.084 29.1015 12 28.9335 11.832C28.7655 11.664 28.6815 11.456 28.6815 11.208C28.6815 10.96 28.7655 10.752 28.9335 10.584C29.1015 10.416 29.3095 10.332 29.5575 10.332C29.7975 10.332 30.0015 10.416 30.1695 10.584C30.3375 10.752 30.4215 10.96 30.4215 11.208C30.4215 11.456 30.3375 11.664 30.1695 11.832C30.0015 12 29.7975 12.084 29.5575 12.084ZM37.36 4.428H33.34V6.816C33.508 6.592 33.756 6.404 34.084 6.252C34.42 6.1 34.776 6.024 35.152 6.024C35.824 6.024 36.368 6.168 36.784 6.456C37.208 6.744 37.508 7.108 37.684 7.548C37.868 7.988 37.96 8.452 37.96 8.94C37.96 9.532 37.844 10.06 37.612 10.524C37.388 10.98 37.048 11.34 36.592 11.604C36.144 11.868 35.592 12 34.936 12C34.064 12 33.364 11.784 32.836 11.352C32.308 10.92 31.992 10.348 31.888 9.636H33.22C33.308 10.012 33.504 10.312 33.808 10.536C34.112 10.752 34.492 10.86 34.948 10.86C35.516 10.86 35.94 10.688 36.22 10.344C36.508 10 36.652 9.544 36.652 8.976C36.652 8.4 36.508 7.96 36.22 7.656C35.932 7.344 35.508 7.188 34.948 7.188C34.556 7.188 34.224 7.288 33.952 7.488C33.688 7.68 33.496 7.944 33.376 8.28H32.08V3.228H37.36V4.428Z" fill="white"/>
</svg>
