<svg width="50" height="24" viewBox="0 0 50 24" fill="none" xmlns="http://www.w3.org/2000/svg">
<rect width="50" height="24" rx="4" fill="url(#paint0_linear_251_5835)"/>
<path d="M12.5469 8.47214C12.9525 7.22372 13.1554 6.59952 13.4409 6.40697C13.7788 6.1791 14.2212 6.1791 14.5591 6.40697C14.8446 6.59952 15.0475 7.22372 15.4531 8.47214C15.5666 8.82142 15.6233 8.99606 15.7241 9.12972C15.844 9.28883 16.0087 9.40849 16.197 9.47336C16.3553 9.52786 16.5389 9.52786 16.9062 9.52786C18.2188 9.52786 18.8752 9.52786 19.1465 9.73992C19.4677 9.99088 19.6044 10.4116 19.4921 10.8034C19.3972 11.1345 18.8662 11.5202 17.8042 12.2918C17.5071 12.5077 17.3586 12.6156 17.2626 12.7527C17.1483 12.9159 17.0854 13.1095 17.0819 13.3087C17.079 13.4761 17.1357 13.6507 17.2492 14C17.6548 15.2484 17.8576 15.8726 17.7398 16.1962C17.6004 16.5792 17.2425 16.8392 16.8352 16.8535C16.491 16.8655 15.96 16.4798 14.8981 15.7082C14.6009 15.4923 14.4524 15.3844 14.2923 15.3355C14.1018 15.2772 13.8982 15.2772 13.7077 15.3355C13.5476 15.3844 13.3991 15.4923 13.1019 15.7082C12.04 16.4798 11.509 16.8655 11.1648 16.8535C10.7575 16.8392 10.3996 16.5792 10.2602 16.1962C10.1424 15.8726 10.3452 15.2484 10.7508 14C10.8643 13.6507 10.921 13.4761 10.9181 13.3087C10.9146 13.1095 10.8517 12.9159 10.7374 12.7527C10.6414 12.6156 10.4929 12.5077 10.1958 12.2918C9.13381 11.5202 8.60283 11.1345 8.50794 10.8034C8.39564 10.4116 8.53235 9.99088 8.85348 9.73992C9.12484 9.52786 9.78117 9.52786 11.0938 9.52786C11.4611 9.52786 11.6447 9.52786 11.803 9.47336C11.9913 9.40849 12.156 9.28883 12.2759 9.12972C12.3767 8.99606 12.4334 8.82142 12.5469 8.47214Z" fill="white"/>
<path d="M26.7571 14.176V13.144L30.7891 7.36H32.4451V12.988H33.5611V14.176H32.4451V16H31.1011V14.176H26.7571ZM31.1611 8.752L28.3291 12.988H31.1611V8.752ZM35.4266 16.084C35.1786 16.084 34.9706 16 34.8026 15.832C34.6346 15.664 34.5506 15.456 34.5506 15.208C34.5506 14.96 34.6346 14.752 34.8026 14.584C34.9706 14.416 35.1786 14.332 35.4266 14.332C35.6666 14.332 35.8706 14.416 36.0386 14.584C36.2066 14.752 36.2906 14.96 36.2906 15.208C36.2906 15.456 36.2066 15.664 36.0386 15.832C35.8706 16 35.6666 16.084 35.4266 16.084ZM38.3451 14.14C39.1131 13.476 39.7171 12.932 40.1571 12.508C40.6051 12.076 40.9771 11.628 41.2731 11.164C41.5691 10.7 41.7171 10.236 41.7171 9.772C41.7171 9.292 41.6011 8.916 41.3691 8.644C41.1451 8.372 40.7891 8.236 40.3011 8.236C39.8291 8.236 39.4611 8.388 39.1971 8.692C38.9411 8.988 38.8051 9.388 38.7891 9.892H37.4691C37.4931 8.98 37.7651 8.284 38.2851 7.804C38.8131 7.316 39.4811 7.072 40.2891 7.072C41.1611 7.072 41.8411 7.312 42.3291 7.792C42.8251 8.272 43.0731 8.912 43.0731 9.712C43.0731 10.288 42.9251 10.844 42.6291 11.38C42.3411 11.908 41.9931 12.384 41.5851 12.808C41.1851 13.224 40.6731 13.708 40.0491 14.26L39.5091 14.74H43.3131V15.88H37.4811V14.884L38.3451 14.14Z" fill="white"/>
<defs>
<linearGradient id="paint0_linear_251_5835" x1="0" y1="12" x2="50" y2="12" gradientUnits="userSpaceOnUse">
<stop stop-color="#008545"/>
<stop offset="1" stop-color="#058A4A"/>
</linearGradient>
</defs>
</svg>
