<svg width="51" height="24" viewBox="0 0 51 24" fill="none" xmlns="http://www.w3.org/2000/svg">
<rect width="51" height="24" rx="4" fill="url(#paint0_linear_251_5873)"/>
<path d="M12.5469 8.47214C12.9525 7.22372 13.1554 6.59952 13.4409 6.40697C13.7788 6.1791 14.2212 6.1791 14.5591 6.40697C14.8446 6.59952 15.0475 7.22372 15.4531 8.47214C15.5666 8.82142 15.6233 8.99606 15.7241 9.12972C15.844 9.28883 16.0087 9.40849 16.197 9.47336C16.3553 9.52786 16.5389 9.52786 16.9062 9.52786C18.2188 9.52786 18.8752 9.52786 19.1465 9.73992C19.4677 9.99088 19.6044 10.4116 19.4921 10.8034C19.3972 11.1345 18.8662 11.5202 17.8042 12.2918C17.5071 12.5077 17.3586 12.6156 17.2626 12.7527C17.1483 12.9159 17.0854 13.1095 17.0819 13.3087C17.079 13.4761 17.1357 13.6507 17.2492 14C17.6548 15.2484 17.8576 15.8726 17.7398 16.1962C17.6004 16.5792 17.2425 16.8392 16.8352 16.8535C16.491 16.8655 15.96 16.4798 14.8981 15.7082C14.6009 15.4923 14.4524 15.3844 14.2923 15.3355C14.1018 15.2772 13.8982 15.2772 13.7077 15.3355C13.5476 15.3844 13.3991 15.4923 13.1019 15.7082C12.04 16.4798 11.509 16.8655 11.1648 16.8535C10.7575 16.8392 10.3996 16.5792 10.2602 16.1962C10.1424 15.8726 10.3452 15.2484 10.7508 14C10.8643 13.6507 10.921 13.4761 10.9181 13.3087C10.9146 13.1095 10.8517 12.9159 10.7374 12.7527C10.6414 12.6156 10.4929 12.5077 10.1958 12.2918C9.13381 11.5202 8.60283 11.1345 8.50794 10.8034C8.39564 10.4116 8.53235 9.99088 8.85348 9.73992C9.12484 9.52786 9.78117 9.52786 11.0938 9.52786C11.4611 9.52786 11.6447 9.52786 11.803 9.47336C11.9913 9.40849 12.156 9.28883 12.2759 9.12972C12.3767 8.99606 12.4334 8.82142 12.5469 8.47214Z" fill="white"/>
<path d="M26.8879 14.176V13.144L30.9199 7.36H32.5759V12.988H33.6919V14.176H32.5759V16H31.2319V14.176H26.8879ZM31.2919 8.752L28.4599 12.988H31.2919V8.752ZM35.5575 16.084C35.3095 16.084 35.1015 16 34.9335 15.832C34.7655 15.664 34.6815 15.456 34.6815 15.208C34.6815 14.96 34.7655 14.752 34.9335 14.584C35.1015 14.416 35.3095 14.332 35.5575 14.332C35.7975 14.332 36.0015 14.416 36.1695 14.584C36.3375 14.752 36.4215 14.96 36.4215 15.208C36.4215 15.456 36.3375 15.664 36.1695 15.832C36.0015 16 35.7975 16.084 35.5575 16.084ZM43.36 8.428H39.34V10.816C39.508 10.592 39.756 10.404 40.084 10.252C40.42 10.1 40.776 10.024 41.152 10.024C41.824 10.024 42.368 10.168 42.784 10.456C43.208 10.744 43.508 11.108 43.684 11.548C43.868 11.988 43.96 12.452 43.96 12.94C43.96 13.532 43.844 14.06 43.612 14.524C43.388 14.98 43.048 15.34 42.592 15.604C42.144 15.868 41.592 16 40.936 16C40.064 16 39.364 15.784 38.836 15.352C38.308 14.92 37.992 14.348 37.888 13.636H39.22C39.308 14.012 39.504 14.312 39.808 14.536C40.112 14.752 40.492 14.86 40.948 14.86C41.516 14.86 41.94 14.688 42.22 14.344C42.508 14 42.652 13.544 42.652 12.976C42.652 12.4 42.508 11.96 42.22 11.656C41.932 11.344 41.508 11.188 40.948 11.188C40.556 11.188 40.224 11.288 39.952 11.488C39.688 11.68 39.496 11.944 39.376 12.28H38.08V7.228H43.36V8.428Z" fill="white"/>
<defs>
<linearGradient id="paint0_linear_251_5873" x1="0" y1="12" x2="51" y2="12" gradientUnits="userSpaceOnUse">
<stop stop-color="#008545"/>
<stop offset="1" stop-color="#058A4A"/>
</linearGradient>
</defs>
</svg>
